<svg width="636" height="636" viewBox="0 0 636 636" fill="none" xmlns="http://www.w3.org/2000/svg">
<g clip-path="url(#clip0_701_690)">
<rect width="635.38" height="635.38" transform="translate(0.380432)" fill="#FF645C"/>
<rect x="0.380457" y="423.587" width="635.38" height="211.793" fill="black"/>
<path d="M37.9385 70.0068H34.7616V55.8167H39.061L42.3862 62.8059L43.7205 66.131H43.9534L45.2454 62.8059L48.4646 55.8167H52.7852V70.0068H49.6083V62.8059L49.7142 60.582H49.4813L48.6553 62.8059L45.6902 69.1597H41.8355L38.8704 62.8059L38.0444 60.582H37.8114L37.9385 62.8059V70.0068ZM56.485 73.6073H54.7483V70.7269H57.3534C58.137 70.7269 58.4759 70.5151 58.6877 70.0492L53.4987 59.396H57.0992L59.3442 64.2461L60.2337 66.7452H60.4455L61.2927 64.2249L63.3048 59.396H66.8417L61.5892 70.7693C60.5726 72.9931 59.1536 73.6073 56.485 73.6073ZM74.051 73.6073H70.8741V59.396H73.818V62.2976H74.0298C74.411 60.2643 75.7665 59.1842 78.2656 59.1842C81.5273 59.1842 83.3487 61.3445 83.3487 64.712C83.3487 68.0795 81.5696 70.2186 78.3715 70.2186C75.9147 70.2186 74.5593 69.0114 74.1992 67.1476H74.051V73.6073ZM74.051 64.8603C74.051 66.6817 75.1523 67.3171 77.1431 67.3171C79.1764 67.3171 80.1294 66.6393 80.1294 64.712C80.1294 62.7635 79.1764 62.1069 77.1643 62.1069C75.1099 62.1069 74.051 62.8059 74.051 64.6908V64.8603ZM89.0537 70.2186C86.0674 70.2186 84.6484 68.376 84.6484 66.0039V59.396H87.8253V64.945C87.8253 66.6605 88.5454 67.3806 90.5574 67.3806C92.633 67.3806 93.3743 66.5758 93.3743 64.7755V59.396H96.5512V70.0068H93.5861V66.7664H93.4167C93.1413 68.5455 91.8494 70.2186 89.0537 70.2186ZM101.352 70.0068H98.1756V59.396H101.119V62.2128H101.31C101.607 60.4973 102.729 59.1842 104.868 59.1842C107.24 59.1842 108.215 60.815 108.215 62.8906V64.6485H105.038V63.5471C105.038 62.3823 104.572 61.874 103.28 61.874C101.861 61.874 101.352 62.5305 101.352 63.8648V70.0068ZM114.723 70.2186C111.144 70.2186 109.174 68.8208 109.174 66.364V66.3004H112.351V66.4911C112.351 67.4441 112.944 67.6983 114.745 67.6983C116.439 67.6983 116.841 67.423 116.841 66.7876C116.841 66.1946 116.524 66.0251 115.274 65.8557L112.288 65.4956C110.17 65.2627 108.984 64.3096 108.984 62.5305C108.984 60.6667 110.572 59.1842 114.215 59.1842C117.689 59.1842 119.658 60.4973 119.658 63.0812V63.1447H116.481V63.0177C116.481 62.1493 116.058 61.7045 114.109 61.7045C112.521 61.7045 112.118 61.9799 112.118 62.6576C112.118 63.2083 112.415 63.4412 113.813 63.6107L116.079 63.886C118.917 64.2037 119.976 65.1568 119.976 66.9147C119.976 68.9055 118.006 70.2186 114.723 70.2186ZM126.891 70.2186C123.354 70.2186 120.94 68.4819 120.94 64.712C120.94 61.3233 123.333 59.1842 126.828 59.1842C130.301 59.1842 132.61 61.0056 132.61 64.3308C132.61 64.712 132.568 64.9873 132.525 65.3474H123.884C123.969 66.9782 124.731 67.6771 126.786 67.6771C128.671 67.6771 129.327 67.19 129.327 66.2793V66.0675H132.504V66.3004C132.504 68.609 130.259 70.2186 126.891 70.2186ZM126.764 61.6622C124.879 61.6622 124.075 62.2976 123.926 63.6742H129.56C129.475 62.2764 128.628 61.6622 126.764 61.6622ZM140.402 58.3158H137.225V55.8167H140.402V58.3158ZM140.402 70.0068H137.225V59.396H140.402V70.0068ZM147.423 70.2186C143.844 70.2186 141.874 68.8208 141.874 66.364V66.3004H145.051V66.4911C145.051 67.4441 145.644 67.6983 147.444 67.6983C149.139 67.6983 149.541 67.423 149.541 66.7876C149.541 66.1946 149.223 66.0251 147.974 65.8557L144.988 65.4956C142.87 65.2627 141.684 64.3096 141.684 62.5305C141.684 60.6667 143.272 59.1842 146.915 59.1842C150.388 59.1842 152.358 60.4973 152.358 63.0812V63.1447H149.181V63.0177C149.181 62.1493 148.757 61.7045 146.809 61.7045C145.221 61.7045 144.818 61.9799 144.818 62.6576C144.818 63.2083 145.115 63.4412 146.512 63.6107L148.779 63.886C151.617 64.2037 152.676 65.1568 152.676 66.9147C152.676 68.9055 150.706 70.2186 147.423 70.2186ZM164.702 70.0068H162.075C159.597 70.0068 158.094 68.842 158.094 66.1734V62.0222H156.421V59.396H158.094V57.3416H161.271V59.396H164.702V62.0222H161.271V65.8133C161.271 66.8723 161.673 67.1476 162.796 67.1476H164.702V70.0068ZM169.068 70.0068H165.892V55.8167H169.068V62.6364H169.238C169.577 60.8362 170.826 59.1842 173.537 59.1842C176.397 59.1842 177.794 61.048 177.794 63.5048V70.0068H174.617V64.4578C174.617 62.6788 173.855 62.0434 171.864 62.0434C169.725 62.0434 169.068 62.9118 169.068 64.6908V70.0068ZM185.031 70.2186C181.494 70.2186 179.08 68.4819 179.08 64.712C179.08 61.3233 181.473 59.1842 184.968 59.1842C188.441 59.1842 190.75 61.0056 190.75 64.3308C190.75 64.712 190.707 64.9873 190.665 65.3474H182.024C182.108 66.9782 182.871 67.6771 184.925 67.6771C186.81 67.6771 187.467 67.19 187.467 66.2793V66.0675H190.644V66.3004C190.644 68.609 188.399 70.2186 185.031 70.2186ZM184.904 61.6622C183.019 61.6622 182.214 62.2976 182.066 63.6742H187.7C187.615 62.2764 186.768 61.6622 184.904 61.6622ZM198.542 70.0068H195.365V59.396H198.309V62.6152H198.478C198.732 60.8362 199.791 59.1842 202.46 59.1842C204.917 59.1842 206.166 60.6879 206.399 62.6576H206.59C206.844 60.8574 207.924 59.1842 210.656 59.1842C213.388 59.1842 214.723 60.9844 214.723 63.3989V70.0068H211.546V64.4578C211.546 62.7 210.932 62.0434 209.11 62.0434C207.183 62.0434 206.632 62.8059 206.632 64.6485V70.0068H203.455V64.4578C203.455 62.7 202.841 62.0434 201.02 62.0434C199.092 62.0434 198.542 62.8059 198.542 64.6485V70.0068ZM221.992 70.2186C218.371 70.2186 215.935 68.0583 215.935 64.712C215.935 61.3233 218.371 59.1842 221.992 59.1842C225.614 59.1842 228.049 61.3233 228.049 64.712C228.049 68.0583 225.614 70.2186 221.992 70.2186ZM221.992 67.4018C224.131 67.4018 224.894 66.5758 224.894 64.712C224.894 62.8482 224.131 61.9799 221.992 61.9799C219.832 61.9799 219.091 62.8482 219.091 64.712C219.091 66.5758 219.832 67.4018 221.992 67.4018ZM232.524 70.0068H229.347V59.396H232.291V62.6576H232.481C232.757 60.8785 234.028 59.1842 236.802 59.1842C239.704 59.1842 241.08 61.048 241.08 63.3989V70.0068H237.903V64.4578C237.903 62.7635 237.204 62.0434 235.256 62.0434C233.244 62.0434 232.524 62.8482 232.524 64.6485V70.0068ZM248.321 70.2186C244.784 70.2186 242.37 68.4819 242.37 64.712C242.37 61.3233 244.763 59.1842 248.258 59.1842C251.731 59.1842 254.04 61.0056 254.04 64.3308C254.04 64.712 253.997 64.9873 253.955 65.3474H245.314C245.398 66.9782 246.161 67.6771 248.215 67.6771C250.1 67.6771 250.757 67.19 250.757 66.2793V66.0675H253.934V66.3004C253.934 68.609 251.689 70.2186 248.321 70.2186ZM248.194 61.6622C246.309 61.6622 245.504 62.2976 245.356 63.6742H250.99C250.905 62.2764 250.058 61.6622 248.194 61.6622ZM257.42 73.6073H255.683V70.7269H258.288C259.072 70.7269 259.411 70.5151 259.623 70.0492L254.434 59.396H258.034L260.279 64.2461L261.169 66.7452H261.38L262.228 64.2249L264.24 59.396H267.777L262.524 70.7693C261.508 72.9931 260.089 73.6073 257.42 73.6073ZM275.071 70.2186C272.783 70.2186 271.407 69.1597 271.407 67.3806C271.407 65.8133 272.571 64.8391 274.838 64.6061L279.391 64.1402V63.7377C279.391 62.3611 278.777 61.9799 277.083 61.9799C275.473 61.9799 274.816 62.4034 274.816 63.6107V63.6954H271.618V63.6319C271.618 61.0056 273.821 59.1842 277.316 59.1842C280.853 59.1842 282.526 61.0056 282.526 63.7801V70.0068H279.561V67.5712H279.391C278.904 69.2232 277.422 70.2186 275.071 70.2186ZM274.605 67.1688C274.605 67.7406 275.049 67.9736 275.981 67.9736C278.142 67.9736 279.306 67.4653 279.391 65.9616L275.706 66.3852C274.944 66.4487 274.605 66.6605 274.605 67.1688ZM287.313 73.6073H284.136V59.396H287.08V62.2976H287.292C287.673 60.2643 289.028 59.1842 291.528 59.1842C294.789 59.1842 296.611 61.3445 296.611 64.712C296.611 68.0795 294.832 70.2186 291.634 70.2186C289.177 70.2186 287.821 69.0114 287.461 67.1476H287.313V73.6073ZM287.313 64.8603C287.313 66.6817 288.414 67.3171 290.405 67.3171C292.438 67.3171 293.391 66.6393 293.391 64.712C293.391 62.7635 292.438 62.1069 290.426 62.1069C288.372 62.1069 287.313 62.8059 287.313 64.6908V64.8603ZM301.108 73.6073H297.932V59.396H300.875V62.2976H301.087C301.469 60.2643 302.824 59.1842 305.323 59.1842C308.585 59.1842 310.406 61.3445 310.406 64.712C310.406 68.0795 308.627 70.2186 305.429 70.2186C302.972 70.2186 301.617 69.0114 301.257 67.1476H301.108V73.6073ZM301.108 64.8603C301.108 66.6817 302.21 67.3171 304.201 67.3171C306.234 67.3171 307.187 66.6393 307.187 64.712C307.187 62.7635 306.234 62.1069 304.222 62.1069C302.167 62.1069 301.108 62.8059 301.108 64.6908V64.8603ZM322.471 70.0068H319.845C317.367 70.0068 315.863 68.842 315.863 66.1734V62.0222H314.19V59.396H315.863V57.3416H319.04V59.396H322.471V62.0222H319.04V65.8133C319.04 66.8723 319.443 67.1476 320.565 67.1476H322.471V70.0068ZM326.838 70.0068H323.661V55.8167H326.838V62.6364H327.007C327.346 60.8362 328.596 59.1842 331.307 59.1842C334.166 59.1842 335.564 61.048 335.564 63.5048V70.0068H332.387V64.4578C332.387 62.6788 331.625 62.0434 329.634 62.0434C327.495 62.0434 326.838 62.9118 326.838 64.6908V70.0068ZM340.429 70.2186C338.141 70.2186 336.765 69.1597 336.765 67.3806C336.765 65.8133 337.93 64.8391 340.196 64.6061L344.749 64.1402V63.7377C344.749 62.3611 344.135 61.9799 342.441 61.9799C340.831 61.9799 340.175 62.4034 340.175 63.6107V63.6954H336.977V63.6319C336.977 61.0056 339.179 59.1842 342.674 59.1842C346.211 59.1842 347.884 61.0056 347.884 63.7801V70.0068H344.919V67.5712H344.749C344.262 69.2232 342.78 70.2186 340.429 70.2186ZM339.963 67.1688C339.963 67.7406 340.408 67.9736 341.339 67.9736C343.5 67.9736 344.665 67.4653 344.749 65.9616L341.064 66.3852C340.302 66.4487 339.963 66.6605 339.963 67.1688ZM356.97 70.0068H354.344C351.866 70.0068 350.363 68.842 350.363 66.1734V62.0222H348.689V59.396H350.363V57.3416H353.539V59.396H356.97V62.0222H353.539V65.8133C353.539 66.8723 353.942 67.1476 355.064 67.1476H356.97V70.0068ZM364.605 70.0068H361.428V55.8167H364.605V63.3353H367.02L369.731 59.396H373.5L369.625 64.5214L373.437 70.0068H369.688L367.041 66.1734H364.605V70.0068ZM379.906 70.2186C376.369 70.2186 373.955 68.4819 373.955 64.712C373.955 61.3233 376.348 59.1842 379.843 59.1842C383.316 59.1842 385.624 61.0056 385.624 64.3308C385.624 64.712 385.582 64.9873 385.54 65.3474H376.899C376.983 66.9782 377.746 67.6771 379.8 67.6771C381.685 67.6771 382.342 67.19 382.342 66.2793V66.0675H385.519V66.3004C385.519 68.609 383.274 70.2186 379.906 70.2186ZM379.779 61.6622C377.894 61.6622 377.089 62.2976 376.941 63.6742H382.575C382.49 62.2764 381.643 61.6622 379.779 61.6622ZM392.605 70.2186C389.068 70.2186 386.654 68.4819 386.654 64.712C386.654 61.3233 389.047 59.1842 392.542 59.1842C396.015 59.1842 398.324 61.0056 398.324 64.3308C398.324 64.712 398.281 64.9873 398.239 65.3474H389.598C389.683 66.9782 390.445 67.6771 392.5 67.6771C394.384 67.6771 395.041 67.19 395.041 66.2793V66.0675H398.218V66.3004C398.218 68.609 395.973 70.2186 392.605 70.2186ZM392.478 61.6622C390.593 61.6622 389.789 62.2976 389.64 63.6742H395.274C395.189 62.2764 394.342 61.6622 392.478 61.6622ZM402.848 73.6073H399.671V59.396H402.615V62.2976H402.827C403.208 60.2643 404.563 59.1842 407.063 59.1842C410.324 59.1842 412.146 61.3445 412.146 64.712C412.146 68.0795 410.367 70.2186 407.169 70.2186C404.712 70.2186 403.356 69.0114 402.996 67.1476H402.848V73.6073ZM402.848 64.8603C402.848 66.6817 403.949 67.3171 405.94 67.3171C407.973 67.3171 408.926 66.6393 408.926 64.712C408.926 62.7635 407.973 62.1069 405.961 62.1069C403.907 62.1069 402.848 62.8059 402.848 64.6908V64.8603ZM418.825 70.2186C415.246 70.2186 413.276 68.8208 413.276 66.364V66.3004H416.453V66.4911C416.453 67.4441 417.046 67.6983 418.846 67.6983C420.54 67.6983 420.943 67.423 420.943 66.7876C420.943 66.1946 420.625 66.0251 419.376 65.8557L416.389 65.4956C414.271 65.2627 413.085 64.3096 413.085 62.5305C413.085 60.6667 414.674 59.1842 418.317 59.1842C421.79 59.1842 423.76 60.4973 423.76 63.0812V63.1447H420.583V63.0177C420.583 62.1493 420.159 61.7045 418.211 61.7045C416.622 61.7045 416.22 61.9799 416.22 62.6576C416.22 63.2083 416.516 63.4412 417.914 63.6107L420.18 63.886C423.018 64.2037 424.077 65.1568 424.077 66.9147C424.077 68.9055 422.108 70.2186 418.825 70.2186ZM435.405 70.2186C430.83 70.2186 428.309 67.3382 428.309 62.9118C428.309 58.5064 430.83 55.6049 435.405 55.6049C439.958 55.6049 442.5 58.5064 442.5 62.9118C442.5 67.3382 439.958 70.2186 435.405 70.2186ZM435.405 67.1264C438.094 67.1264 439.09 65.9616 439.09 62.9118C439.09 59.8619 438.094 58.6971 435.405 58.6971C432.694 58.6971 431.719 59.8619 431.719 62.9118C431.719 65.9616 432.694 67.1264 435.405 67.1264ZM37.9385 96.0068H34.7616V81.8167H38.1503L43.2334 88.5305L45.1818 91.5168H45.4148L45.2666 88.6576V81.8167H48.4435V96.0068H45.0548L39.8235 89.2294L38.0232 86.5608H37.8114L37.9385 89.1659V96.0068ZM56.8217 96.2186C52.48 96.2186 49.8114 93.3382 49.8114 88.9118C49.8114 84.4853 52.8188 81.6049 57.6901 81.6049C62.1377 81.6049 64.9546 83.6805 64.9546 87.0903V87.2598H61.4176V87.0903C61.4176 85.4383 60.3375 84.6547 57.6054 84.6547C54.3861 84.6547 53.1789 85.756 53.1789 88.9118C53.1789 92.0675 54.3437 93.1688 57.4571 93.1688C60.7187 93.1688 61.7142 92.6605 61.7989 90.8603H56.9912V88.5093H64.9758V96.0068H62.0318V92.957H61.8624C61.3753 94.8208 59.8927 96.2186 56.8217 96.2186ZM69.7075 96.0068H66.5306V81.8167H69.9193L75.0024 88.5305L76.9509 91.5168H77.1838L77.0356 88.6576V81.8167H80.2125V96.0068H76.8238L71.5925 89.2294L69.7923 86.5608H69.5805L69.7075 89.1659V96.0068ZM88.1099 96.0068H85.166V81.8167H88.3429V88.2128H88.5123C88.8724 86.4338 90.1643 85.1842 92.6846 85.1842C95.8615 85.1842 97.6406 87.3233 97.6406 90.712C97.6406 94.0583 95.8404 96.2186 92.5364 96.2186C90.0796 96.2186 88.6817 95.1597 88.3005 93.0629H88.1099V96.0068ZM88.3429 90.7755C88.3429 92.6181 89.423 93.3171 91.4351 93.3171C93.4895 93.3171 94.4214 92.6393 94.4214 90.712C94.4214 88.7635 93.4895 88.0858 91.4562 88.0858C89.4018 88.0858 88.3429 88.7635 88.3429 90.6061V90.7755ZM102.223 96.2186C99.9358 96.2186 98.5591 95.1597 98.5591 93.3806C98.5591 91.8133 99.724 90.8391 101.99 90.6061L106.544 90.1402V89.7377C106.544 88.3611 105.93 87.9799 104.235 87.9799C102.626 87.9799 101.969 88.4034 101.969 89.6107V89.6954H98.7709V89.6319C98.7709 87.0056 100.974 85.1842 104.468 85.1842C108.005 85.1842 109.678 87.0056 109.678 89.7801V96.0068H106.713V93.5712H106.544C106.057 95.2232 104.574 96.2186 102.223 96.2186ZM101.757 93.1688C101.757 93.7406 102.202 93.9736 103.134 93.9736C105.294 93.9736 106.459 93.4653 106.544 91.9616L102.859 92.3852C102.096 92.4487 101.757 92.6605 101.757 93.1688ZM114.465 96.0068H111.289V81.8167H114.465V96.0068ZM119.39 96.2186C117.103 96.2186 115.726 95.1597 115.726 93.3806C115.726 91.8133 116.891 90.8391 119.157 90.6061L123.711 90.1402V89.7377C123.711 88.3611 123.096 87.9799 121.402 87.9799C119.792 87.9799 119.136 88.4034 119.136 89.6107V89.6954H115.938V89.6319C115.938 87.0056 118.14 85.1842 121.635 85.1842C125.172 85.1842 126.845 87.0056 126.845 89.7801V96.0068H123.88V93.5712H123.711C123.223 95.2232 121.741 96.2186 119.39 96.2186ZM118.924 93.1688C118.924 93.7406 119.369 93.9736 120.301 93.9736C122.461 93.9736 123.626 93.4653 123.711 91.9616L120.025 92.3852C119.263 92.4487 118.924 92.6605 118.924 93.1688ZM131.632 96.0068H128.455V85.396H131.399V88.6576H131.59C131.865 86.8785 133.136 85.1842 135.911 85.1842C138.812 85.1842 140.189 87.048 140.189 89.3989V96.0068H137.012V90.4578C137.012 88.7635 136.313 88.0434 134.364 88.0434C132.352 88.0434 131.632 88.8482 131.632 90.6485V96.0068ZM147.451 96.2186C143.808 96.2186 141.478 94.0583 141.478 90.712C141.478 87.3233 143.808 85.1842 147.451 85.1842C150.861 85.1842 153.19 87.0056 153.19 89.7589V90.0554H150.035V89.886C150.035 88.5305 149.039 88.0434 147.387 88.0434C145.502 88.0434 144.634 88.7423 144.634 90.712C144.634 92.6605 145.502 93.3594 147.387 93.3594C149.039 93.3594 150.035 92.8723 150.035 91.5168V91.3474H153.19V91.6439C153.19 94.376 150.861 96.2186 147.451 96.2186ZM160.191 96.2186C156.654 96.2186 154.24 94.4819 154.24 90.712C154.24 87.3233 156.633 85.1842 160.127 85.1842C163.601 85.1842 165.909 87.0056 165.909 90.3308C165.909 90.712 165.867 90.9873 165.825 91.3474H157.184C157.268 92.9782 158.031 93.6771 160.085 93.6771C161.97 93.6771 162.627 93.19 162.627 92.2793V92.0675H165.804V92.3004C165.804 94.609 163.559 96.2186 160.191 96.2186ZM160.064 87.6622C158.179 87.6622 157.374 88.2976 157.226 89.6742H162.86C162.775 88.2764 161.928 87.6622 160.064 87.6622ZM172.615 96.2186C169.036 96.2186 167.066 94.8208 167.066 92.364V92.3004H170.243V92.4911C170.243 93.4441 170.836 93.6983 172.636 93.6983C174.331 93.6983 174.733 93.423 174.733 92.7876C174.733 92.1946 174.415 92.0251 173.166 91.8557L170.179 91.4956C168.061 91.2627 166.875 90.3096 166.875 88.5305C166.875 86.6667 168.464 85.1842 172.107 85.1842C175.58 85.1842 177.55 86.4973 177.55 89.0812V89.1447H174.373V89.0177C174.373 88.1493 173.949 87.7045 172.001 87.7045C170.412 87.7045 170.01 87.9799 170.01 88.6576C170.01 89.2083 170.306 89.4412 171.704 89.6107L173.97 89.886C176.809 90.2037 177.867 91.1568 177.867 92.9147C177.867 94.9055 175.898 96.2186 172.615 96.2186ZM185.679 96.2186C183.391 96.2186 182.015 95.1597 182.015 93.3806C182.015 91.8133 183.18 90.8391 185.446 90.6061L189.999 90.1402V89.7377C189.999 88.3611 189.385 87.9799 187.691 87.9799C186.081 87.9799 185.425 88.4034 185.425 89.6107V89.6954H182.227V89.6319C182.227 87.0056 184.429 85.1842 187.924 85.1842C191.461 85.1842 193.134 87.0056 193.134 89.7801V96.0068H190.169V93.5712H189.999C189.512 95.2232 188.03 96.2186 185.679 96.2186ZM185.213 93.1688C185.213 93.7406 185.658 93.9736 186.59 93.9736C188.75 93.9736 189.915 93.4653 189.999 91.9616L186.314 92.3852C185.552 92.4487 185.213 92.6605 185.213 93.1688ZM200.759 96.0068H196.799L193.897 85.396H197.18L198.429 90.2461L198.874 93.55H199.086L199.933 89.9284L201.543 85.396H205.63L207.219 89.9284L208.066 93.55H208.278L208.744 90.2461L209.972 85.396H213.213L210.205 96.0068H206.245L204.423 90.9026L203.64 87.9799H203.407L202.602 90.9026L200.759 96.0068ZM217.324 96.2186C215.036 96.2186 213.66 95.1597 213.66 93.3806C213.66 91.8133 214.825 90.8391 217.091 90.6061L221.644 90.1402V89.7377C221.644 88.3611 221.03 87.9799 219.336 87.9799C217.726 87.9799 217.07 88.4034 217.07 89.6107V89.6954H213.872V89.6319C213.872 87.0056 216.074 85.1842 219.569 85.1842C223.106 85.1842 224.779 87.0056 224.779 89.7801V96.0068H221.814V93.5712H221.644C221.157 95.2232 219.675 96.2186 217.324 96.2186ZM216.858 93.1688C216.858 93.7406 217.303 93.9736 218.234 93.9736C220.395 93.9736 221.56 93.4653 221.644 91.9616L217.959 92.3852C217.197 92.4487 216.858 92.6605 216.858 93.1688ZM228.422 99.6073H226.686V96.7269H229.291C230.074 96.7269 230.413 96.5151 230.625 96.0492L225.436 85.396H229.037L231.282 90.2461L232.171 92.7452H232.383L233.23 90.2249L235.242 85.396H238.779L233.527 96.7693C232.51 98.9931 231.091 99.6073 228.422 99.6073ZM243.419 96.0068H239.332V92.3004H243.419V96.0068ZM255.179 96.0068H248.338V81.8167H255.179C259.732 81.8167 262.613 84.4641 262.613 88.9118C262.613 93.3594 259.732 96.0068 255.179 96.0068ZM255.179 84.6759H251.515V93.1476H255.179C258.059 93.1476 259.224 92.3216 259.224 88.9118C259.224 85.5019 258.059 84.6759 255.179 84.6759ZM269.646 96.2186C266.024 96.2186 263.588 94.0583 263.588 90.712C263.588 87.3233 266.024 85.1842 269.646 85.1842C273.267 85.1842 275.703 87.3233 275.703 90.712C275.703 94.0583 273.267 96.2186 269.646 96.2186ZM269.646 93.4018C271.785 93.4018 272.547 92.5758 272.547 90.712C272.547 88.8482 271.785 87.9799 269.646 87.9799C267.485 87.9799 266.744 88.8482 266.744 90.712C266.744 92.5758 267.485 93.4018 269.646 93.4018ZM283.015 96.0068H279.055L276.153 85.396H279.436L280.686 90.2461L281.13 93.55H281.342L282.189 89.9284L283.799 85.396H287.887L289.475 89.9284L290.322 93.55H290.534L291 90.2461L292.228 85.396H295.469L292.461 96.0068H288.501L286.679 90.9026L285.896 87.9799H285.663L284.858 90.9026L283.015 96.0068ZM299.495 96.0068H296.318V85.396H299.262V88.6576H299.453C299.728 86.8785 300.999 85.1842 303.773 85.1842C306.675 85.1842 308.052 87.048 308.052 89.3989V96.0068H304.875V90.4578C304.875 88.7635 304.176 88.0434 302.227 88.0434C300.215 88.0434 299.495 88.8482 299.495 90.6485V96.0068ZM312.836 96.0068H309.659V81.8167H312.836V96.0068ZM320.153 96.2186C316.532 96.2186 314.096 94.0583 314.096 90.712C314.096 87.3233 316.532 85.1842 320.153 85.1842C323.775 85.1842 326.211 87.3233 326.211 90.712C326.211 94.0583 323.775 96.2186 320.153 96.2186ZM320.153 93.4018C322.293 93.4018 323.055 92.5758 323.055 90.712C323.055 88.8482 322.293 87.9799 320.153 87.9799C317.993 87.9799 317.252 88.8482 317.252 90.712C317.252 92.5758 317.993 93.4018 320.153 93.4018ZM330.77 96.2186C328.482 96.2186 327.106 95.1597 327.106 93.3806C327.106 91.8133 328.271 90.8391 330.537 90.6061L335.09 90.1402V89.7377C335.09 88.3611 334.476 87.9799 332.782 87.9799C331.172 87.9799 330.516 88.4034 330.516 89.6107V89.6954H327.318V89.6319C327.318 87.0056 329.52 85.1842 333.015 85.1842C336.552 85.1842 338.225 87.0056 338.225 89.7801V96.0068H335.26V93.5712H335.09C334.603 95.2232 333.121 96.2186 330.77 96.2186ZM330.304 93.1688C330.304 93.7406 330.749 93.9736 331.681 93.9736C333.841 93.9736 335.006 93.4653 335.09 91.9616L331.405 92.3852C330.643 92.4487 330.304 92.6605 330.304 93.1688ZM344.579 96.2186C341.275 96.2186 339.454 94.0583 339.454 90.712C339.454 87.3233 341.254 85.1842 344.41 85.1842C346.93 85.1842 348.222 86.4338 348.582 88.2128H348.773V81.8167H351.95V96.0068H348.985V93.0629H348.815C348.413 95.1597 347.015 96.2186 344.579 96.2186ZM342.673 90.712C342.673 92.6393 343.626 93.3171 345.66 93.3171C347.672 93.3171 348.773 92.6181 348.773 90.7755V90.6061C348.773 88.7635 347.693 88.0858 345.66 88.0858C343.626 88.0858 342.673 88.7635 342.673 90.712ZM364.375 96.0068H361.749C359.271 96.0068 357.767 94.842 357.767 92.1734V88.0222H356.094V85.396H357.767V83.3416H360.944V85.396H364.375V88.0222H360.944V91.8133C360.944 92.8723 361.346 93.1476 362.469 93.1476H364.375V96.0068ZM368.742 96.0068H365.565V81.8167H368.742V88.6364H368.911C369.25 86.8362 370.5 85.1842 373.211 85.1842C376.07 85.1842 377.468 87.048 377.468 89.5048V96.0068H374.291V90.4578C374.291 88.6788 373.528 88.0434 371.537 88.0434C369.398 88.0434 368.742 88.9118 368.742 90.6908V96.0068ZM384.704 96.2186C381.168 96.2186 378.753 94.4819 378.753 90.712C378.753 87.3233 381.146 85.1842 384.641 85.1842C388.114 85.1842 390.423 87.0056 390.423 90.3308C390.423 90.712 390.381 90.9873 390.338 91.3474H381.697C381.782 92.9782 382.544 93.6771 384.599 93.6771C386.484 93.6771 387.14 93.19 387.14 92.2793V92.0675H390.317V92.3004C390.317 94.609 388.072 96.2186 384.704 96.2186ZM384.577 87.6622C382.692 87.6622 381.888 88.2976 381.739 89.6742H387.373C387.288 88.2764 386.441 87.6622 384.577 87.6622ZM398.3 96.2186C396.012 96.2186 394.636 95.1597 394.636 93.3806C394.636 91.8133 395.8 90.8391 398.067 90.6061L402.62 90.1402V89.7377C402.62 88.3611 402.006 87.9799 400.312 87.9799C398.702 87.9799 398.046 88.4034 398.046 89.6107V89.6954H394.847V89.6319C394.847 87.0056 397.05 85.1842 400.545 85.1842C404.082 85.1842 405.755 87.0056 405.755 89.7801V96.0068H402.79V93.5712H402.62C402.133 95.2232 400.651 96.2186 398.3 96.2186ZM397.834 93.1688C397.834 93.7406 398.278 93.9736 399.21 93.9736C401.371 93.9736 402.536 93.4653 402.62 91.9616L398.935 92.3852C398.173 92.4487 397.834 92.6605 397.834 93.1688ZM410.542 99.6073H407.365V85.396H410.309V88.2976H410.521C410.902 86.2643 412.258 85.1842 414.757 85.1842C418.018 85.1842 419.84 87.3445 419.84 90.712C419.84 94.0795 418.061 96.2186 414.863 96.2186C412.406 96.2186 411.05 95.0114 410.69 93.1476H410.542V99.6073ZM410.542 90.8603C410.542 92.6817 411.643 93.3171 413.634 93.3171C415.667 93.3171 416.62 92.6393 416.62 90.712C416.62 88.7635 415.667 88.1069 413.655 88.1069C411.601 88.1069 410.542 88.8059 410.542 90.6908V90.8603ZM424.338 99.6073H421.161V85.396H424.105V88.2976H424.316C424.698 86.2643 426.053 85.1842 428.552 85.1842C431.814 85.1842 433.635 87.3445 433.635 90.712C433.635 94.0795 431.856 96.2186 428.658 96.2186C426.201 96.2186 424.846 95.0114 424.486 93.1476H424.338V99.6073ZM424.338 90.8603C424.338 92.6817 425.439 93.3171 427.43 93.3171C429.463 93.3171 430.416 92.6393 430.416 90.712C430.416 88.7635 429.463 88.1069 427.451 88.1069C425.396 88.1069 424.338 88.8059 424.338 90.6908V90.8603ZM445.7 96.0068H443.074C440.596 96.0068 439.092 94.842 439.092 92.1734V88.0222H437.419V85.396H439.092V83.3416H442.269V85.396H445.7V88.0222H442.269V91.8133C442.269 92.8723 442.672 93.1476 443.794 93.1476H445.7V96.0068ZM452.545 96.2186C448.923 96.2186 446.488 94.0583 446.488 90.712C446.488 87.3233 448.923 85.1842 452.545 85.1842C456.167 85.1842 458.602 87.3233 458.602 90.712C458.602 94.0583 456.167 96.2186 452.545 96.2186ZM452.545 93.4018C454.684 93.4018 455.447 92.5758 455.447 90.712C455.447 88.8482 454.684 87.9799 452.545 87.9799C450.385 87.9799 449.644 88.8482 449.644 90.712C449.644 92.5758 450.385 93.4018 452.545 93.4018ZM40.3953 122.219C36.8584 122.219 34.4439 120.482 34.4439 116.712C34.4439 113.323 36.8372 111.184 40.3318 111.184C43.8052 111.184 46.1137 113.006 46.1137 116.331C46.1137 116.712 46.0714 116.987 46.029 117.347H37.3878C37.4726 118.978 38.235 119.677 40.2894 119.677C42.1744 119.677 42.8309 119.19 42.8309 118.279V118.067H46.0078V118.3C46.0078 120.609 43.7628 122.219 40.3953 122.219ZM40.2682 113.662C38.3833 113.662 37.5785 114.298 37.4302 115.674H43.0639C42.9792 114.276 42.132 113.662 40.2682 113.662ZM50.6378 122.007H47.4609V111.396H50.4049V114.658H50.5955C50.8708 112.879 52.1416 111.184 54.9161 111.184C57.8176 111.184 59.1943 113.048 59.1943 115.399V122.007H56.0174V116.458C56.0174 114.763 55.3185 114.043 53.37 114.043C51.3579 114.043 50.6378 114.848 50.6378 116.648V122.007ZM63.9784 110.316H60.8015V107.817H63.9784V110.316ZM59.7001 125.607H59.1706V123.235H59.7425C60.4414 123.235 60.8015 122.96 60.8015 122.219V111.396H63.9784V121.71C63.9784 124.718 62.3475 125.607 59.7001 125.607ZM71.3375 122.219C67.7158 122.219 65.2802 120.058 65.2802 116.712C65.2802 113.323 67.7158 111.184 71.3375 111.184C74.9592 111.184 77.3948 113.323 77.3948 116.712C77.3948 120.058 74.9592 122.219 71.3375 122.219ZM71.3375 119.402C73.4766 119.402 74.2391 118.576 74.2391 116.712C74.2391 114.848 73.4766 113.98 71.3375 113.98C69.1772 113.98 68.4359 114.848 68.4359 116.712C68.4359 118.576 69.1772 119.402 71.3375 119.402ZM80.7254 125.607H78.9887V122.727H81.5938C82.3774 122.727 82.7163 122.515 82.9281 122.049L77.7391 111.396H81.3396L83.5846 116.246L84.4742 118.745H84.686L85.5331 116.225L87.5452 111.396H91.0821L85.8297 122.769C84.813 124.993 83.394 125.607 80.7254 125.607ZM98.2914 122.007H95.1145V111.396H98.0584V114.615H98.2278C98.482 112.836 99.541 111.184 102.21 111.184C104.666 111.184 105.916 112.688 106.149 114.658H106.34C106.594 112.857 107.674 111.184 110.406 111.184C113.138 111.184 114.472 112.984 114.472 115.399V122.007H111.295V116.458C111.295 114.7 110.681 114.043 108.86 114.043C106.933 114.043 106.382 114.806 106.382 116.648V122.007H103.205V116.458C103.205 114.7 102.591 114.043 100.769 114.043C98.842 114.043 98.2914 114.806 98.2914 116.648V122.007ZM121.742 122.219C118.12 122.219 115.685 120.058 115.685 116.712C115.685 113.323 118.12 111.184 121.742 111.184C125.364 111.184 127.799 113.323 127.799 116.712C127.799 120.058 125.364 122.219 121.742 122.219ZM121.742 119.402C123.881 119.402 124.643 118.576 124.643 116.712C124.643 114.848 123.881 113.98 121.742 113.98C119.582 113.98 118.84 114.848 118.84 116.712C118.84 118.576 119.582 119.402 121.742 119.402ZM133.841 122.219C130.537 122.219 128.715 120.058 128.715 116.712C128.715 113.323 130.516 111.184 133.671 111.184C136.192 111.184 137.484 112.434 137.844 114.213H138.034V107.817H141.211V122.007H138.246V119.063H138.077C137.674 121.16 136.276 122.219 133.841 122.219ZM131.935 116.712C131.935 118.639 132.888 119.317 134.921 119.317C136.933 119.317 138.034 118.618 138.034 116.776V116.606C138.034 114.763 136.954 114.086 134.921 114.086C132.888 114.086 131.935 114.763 131.935 116.712ZM148.526 122.219C144.989 122.219 142.574 120.482 142.574 116.712C142.574 113.323 144.968 111.184 148.462 111.184C151.936 111.184 154.244 113.006 154.244 116.331C154.244 116.712 154.202 116.987 154.16 117.347H145.518C145.603 118.978 146.366 119.677 148.42 119.677C150.305 119.677 150.961 119.19 150.961 118.279V118.067H154.138V118.3C154.138 120.609 151.893 122.219 148.526 122.219ZM148.399 113.662C146.514 113.662 145.709 114.298 145.561 115.674H151.194C151.11 114.276 150.263 113.662 148.399 113.662ZM158.768 122.007H155.591V111.396H158.535V114.213H158.726C159.022 112.497 160.145 111.184 162.284 111.184C164.656 111.184 165.63 112.815 165.63 114.891V116.648H162.454V115.547C162.454 114.382 161.988 113.874 160.696 113.874C159.277 113.874 158.768 114.531 158.768 115.865V122.007ZM169.958 122.007H166.781V111.396H169.725V114.658H169.915C170.191 112.879 171.462 111.184 174.236 111.184C177.138 111.184 178.514 113.048 178.514 115.399V122.007H175.337V116.458C175.337 114.763 174.638 114.043 172.69 114.043C170.678 114.043 169.958 114.848 169.958 116.648V122.007ZM186.566 122.007H183.389V111.396H186.333V114.615H186.503C186.757 112.836 187.816 111.184 190.484 111.184C192.941 111.184 194.191 112.688 194.424 114.658H194.614C194.869 112.857 195.949 111.184 198.681 111.184C201.413 111.184 202.747 112.984 202.747 115.399V122.007H199.57V116.458C199.57 114.7 198.956 114.043 197.135 114.043C195.207 114.043 194.657 114.806 194.657 116.648V122.007H191.48V116.458C191.48 114.7 190.866 114.043 189.044 114.043C187.117 114.043 186.566 114.806 186.566 116.648V122.007ZM210.017 122.219C206.395 122.219 203.959 120.058 203.959 116.712C203.959 113.323 206.395 111.184 210.017 111.184C213.638 111.184 216.074 113.323 216.074 116.712C216.074 120.058 213.638 122.219 210.017 122.219ZM210.017 119.402C212.156 119.402 212.918 118.576 212.918 116.712C212.918 114.848 212.156 113.98 210.017 113.98C207.856 113.98 207.115 114.848 207.115 116.712C207.115 118.576 207.856 119.402 210.017 119.402ZM220.548 122.007H217.371V111.396H220.315V114.658H220.506C220.781 112.879 222.052 111.184 224.827 111.184C227.728 111.184 229.105 113.048 229.105 115.399V122.007H225.928V116.458C225.928 114.763 225.229 114.043 223.28 114.043C221.268 114.043 220.548 114.848 220.548 116.648V122.007ZM236.346 122.219C232.809 122.219 230.394 120.482 230.394 116.712C230.394 113.323 232.788 111.184 236.282 111.184C239.756 111.184 242.064 113.006 242.064 116.331C242.064 116.712 242.022 116.987 241.979 117.347H233.338C233.423 118.978 234.185 119.677 236.24 119.677C238.125 119.677 238.781 119.19 238.781 118.279V118.067H241.958V118.3C241.958 120.609 239.713 122.219 236.346 122.219ZM236.219 113.662C234.334 113.662 233.529 114.298 233.381 115.674H239.014C238.93 114.276 238.082 113.662 236.219 113.662ZM245.445 125.607H243.708V122.727H246.313C247.096 122.727 247.435 122.515 247.647 122.049L242.458 111.396H246.059L248.304 116.246L249.193 118.745H249.405L250.252 116.225L252.264 111.396H255.801L250.549 122.769C249.532 124.993 248.113 125.607 245.445 125.607ZM263.01 122.007H259.834V111.396H262.777V114.615H262.947C263.201 112.836 264.26 111.184 266.929 111.184C269.385 111.184 270.635 112.688 270.868 114.658H271.059C271.313 112.857 272.393 111.184 275.125 111.184C277.857 111.184 279.191 112.984 279.191 115.399V122.007H276.015V116.458C276.015 114.7 275.4 114.043 273.579 114.043C271.652 114.043 271.101 114.806 271.101 116.648V122.007H267.924V116.458C267.924 114.7 267.31 114.043 265.488 114.043C263.561 114.043 263.01 114.806 263.01 116.648V122.007ZM284.068 122.219C281.78 122.219 280.404 121.16 280.404 119.381C280.404 117.813 281.569 116.839 283.835 116.606L288.388 116.14V115.738C288.388 114.361 287.774 113.98 286.08 113.98C284.47 113.98 283.814 114.403 283.814 115.611V115.695H280.615V115.632C280.615 113.006 282.818 111.184 286.313 111.184C289.85 111.184 291.523 113.006 291.523 115.78V122.007H288.558V119.571H288.388C287.901 121.223 286.419 122.219 284.068 122.219ZM283.602 119.169C283.602 119.741 284.047 119.974 284.978 119.974C287.139 119.974 288.304 119.465 288.388 117.962L284.703 118.385C283.941 118.449 283.602 118.66 283.602 119.169ZM296.31 122.007H293.133V111.396H296.077V114.658H296.268C296.543 112.879 297.814 111.184 300.588 111.184C303.49 111.184 304.866 113.048 304.866 115.399V122.007H301.69V116.458C301.69 114.763 300.991 114.043 299.042 114.043C297.03 114.043 296.31 114.848 296.31 116.648V122.007ZM309.735 122.219C307.448 122.219 306.071 121.16 306.071 119.381C306.071 117.813 307.236 116.839 309.502 116.606L314.056 116.14V115.738C314.056 114.361 313.442 113.98 311.747 113.98C310.138 113.98 309.481 114.403 309.481 115.611V115.695H306.283V115.632C306.283 113.006 308.486 111.184 311.98 111.184C315.517 111.184 317.19 113.006 317.19 115.78V122.007H314.225V119.571H314.056C313.569 121.223 312.086 122.219 309.735 122.219ZM309.269 119.169C309.269 119.741 309.714 119.974 310.646 119.974C312.806 119.974 313.971 119.465 314.056 117.962L310.371 118.385C309.608 118.449 309.269 118.66 309.269 119.169ZM323.46 120.927C320.304 120.927 318.483 119.042 318.483 116.055C318.483 113.09 320.41 111.184 323.587 111.184C325.747 111.184 327.294 112.116 327.632 113.959H327.802V111.396H330.767V120.461C330.767 124.167 328.522 125.819 324.731 125.819C321.3 125.819 319.14 124.294 319.14 121.626H322.316C322.316 122.812 322.782 123.172 324.943 123.172C326.976 123.172 327.59 122.748 327.59 120.673V118.279H327.421C327.082 119.847 325.832 120.927 323.46 120.927ZM321.681 116.055C321.681 117.623 322.571 118.195 324.561 118.195C326.595 118.195 327.59 117.623 327.59 116.161V115.928C327.59 114.488 326.573 113.938 324.604 113.938C322.571 113.938 321.681 114.488 321.681 116.055ZM338.085 122.219C334.548 122.219 332.134 120.482 332.134 116.712C332.134 113.323 334.527 111.184 338.022 111.184C341.495 111.184 343.804 113.006 343.804 116.331C343.804 116.712 343.761 116.987 343.719 117.347H335.078C335.162 118.978 335.925 119.677 337.979 119.677C339.864 119.677 340.521 119.19 340.521 118.279V118.067H343.698V118.3C343.698 120.609 341.453 122.219 338.085 122.219ZM337.958 113.662C336.073 113.662 335.268 114.298 335.12 115.674H340.754C340.669 114.276 339.822 113.662 337.958 113.662ZM348.328 122.007H345.151V111.396H348.095V114.615H348.264C348.518 112.836 349.577 111.184 352.246 111.184C354.703 111.184 355.952 112.688 356.185 114.658H356.376C356.63 112.857 357.71 111.184 360.442 111.184C363.174 111.184 364.509 112.984 364.509 115.399V122.007H361.332V116.458C361.332 114.7 360.718 114.043 358.896 114.043C356.969 114.043 356.418 114.806 356.418 116.648V122.007H353.241V116.458C353.241 114.7 352.627 114.043 350.806 114.043C348.878 114.043 348.328 114.806 348.328 116.648V122.007ZM371.757 122.219C368.22 122.219 365.806 120.482 365.806 116.712C365.806 113.323 368.199 111.184 371.693 111.184C375.167 111.184 377.475 113.006 377.475 116.331C377.475 116.712 377.433 116.987 377.391 117.347H368.75C368.834 118.978 369.597 119.677 371.651 119.677C373.536 119.677 374.193 119.19 374.193 118.279V118.067H377.37V118.3C377.37 120.609 375.124 122.219 371.757 122.219ZM371.63 113.662C369.745 113.662 368.94 114.298 368.792 115.674H374.426C374.341 114.276 373.494 113.662 371.63 113.662ZM382 122.007H378.823V111.396H381.767V114.658H381.957C382.232 112.879 383.503 111.184 386.278 111.184C389.179 111.184 390.556 113.048 390.556 115.399V122.007H387.379V116.458C387.379 114.763 386.68 114.043 384.732 114.043C382.72 114.043 382 114.848 382 116.648V122.007ZM399.639 122.007H397.013C394.535 122.007 393.031 120.842 393.031 118.173V114.022H391.358V111.396H393.031V109.342H396.208V111.396H399.639V114.022H396.208V117.813C396.208 118.872 396.611 119.148 397.733 119.148H399.639V122.007ZM404.705 122.007H400.617V118.3H404.705V122.007Z" fill="black"/>
<path d="M48.6741 545.069H40.2777L34.3286 519.842H40.6542L43.704 534.15L44.57 539.685H44.9842L46.1514 534.15L50.3684 519.842H58.7649L62.9443 534.15L64.1115 539.685H64.5257L65.3917 534.15L68.4415 519.842H74.6164L68.6297 545.069H60.2333L56.4681 532.456L54.6984 525.189H54.2843L52.5146 532.456L48.6741 545.069ZM82.2136 545.069H76.5658V519.842H82.2136V531.966H82.5149C83.1173 528.766 85.3388 525.829 90.1583 525.829C95.2413 525.829 97.7263 529.142 97.7263 533.51V545.069H92.0785V535.204C92.0785 532.042 90.723 530.912 87.1837 530.912C83.3809 530.912 82.2136 532.456 82.2136 535.619V545.069ZM106.375 545.446C102.308 545.446 99.861 543.563 99.861 540.4C99.861 537.614 101.932 535.882 105.961 535.468L114.056 534.64V533.924C114.056 531.477 112.964 530.799 109.952 530.799C107.09 530.799 105.923 531.552 105.923 533.698V533.849H100.238V533.736C100.238 529.067 104.153 525.829 110.366 525.829C116.654 525.829 119.628 529.067 119.628 534V545.069H114.357V540.739H114.056C113.19 543.676 110.554 545.446 106.375 545.446ZM105.547 540.024C105.547 541.041 106.337 541.455 107.994 541.455C111.834 541.455 113.905 540.551 114.056 537.878L107.504 538.631C106.149 538.744 105.547 539.12 105.547 540.024ZM135.782 545.069H131.114C126.708 545.069 124.035 542.998 124.035 538.254V530.874H121.06V526.206H124.035V522.553H129.683V526.206H135.782V530.874H129.683V537.614C129.683 539.497 130.398 539.986 132.394 539.986H135.782V545.069ZM149.355 524.285H143.707V519.842H149.355V524.285ZM149.355 545.069H143.707V526.206H149.355V545.069ZM161.837 545.446C155.474 545.446 151.973 542.961 151.973 538.593V538.48H157.62V538.819C157.62 540.513 158.675 540.965 161.875 540.965C164.887 540.965 165.603 540.476 165.603 539.346C165.603 538.292 165.038 537.991 162.816 537.69L157.507 537.049C153.742 536.635 151.634 534.941 151.634 531.778C151.634 528.465 154.458 525.829 160.934 525.829C167.109 525.829 170.61 528.164 170.61 532.757V532.87H164.963V532.644C164.963 531.1 164.209 530.31 160.745 530.31C157.922 530.31 157.206 530.799 157.206 532.004C157.206 532.983 157.733 533.397 160.218 533.698L164.247 534.188C169.293 534.753 171.175 536.447 171.175 539.572C171.175 543.111 167.673 545.446 161.837 545.446ZM184.911 545.069H179.264V526.206H184.497V531.929H184.798C185.25 528.766 187.133 525.829 191.877 525.829C196.245 525.829 198.466 528.502 198.88 532.004H199.219C199.671 528.804 201.591 525.829 206.448 525.829C211.306 525.829 213.678 529.03 213.678 533.322V545.069H208.03V535.204C208.03 532.079 206.938 530.912 203.7 530.912C200.274 530.912 199.295 532.268 199.295 535.543V545.069H193.647V535.204C193.647 532.079 192.555 530.912 189.317 530.912C185.89 530.912 184.911 532.268 184.911 535.543V545.069ZM220.163 551.47H217.075V546.35H221.706C223.1 546.35 223.702 545.973 224.078 545.145L214.854 526.206H221.255L225.246 534.828L226.827 539.271H227.204L228.71 534.79L232.287 526.206H238.575L229.237 546.425C227.43 550.378 224.907 551.47 220.163 551.47ZM41.0683 597.47H35.4205V572.206H40.6542V577.364H41.0307C41.7084 573.749 44.1182 571.829 48.5611 571.829C54.3596 571.829 57.5977 575.67 57.5977 581.656C57.5977 587.643 54.4349 591.446 48.7494 591.446C44.3817 591.446 41.972 589.3 41.3319 585.986H41.0683V597.47ZM41.0683 581.92C41.0683 585.158 43.0263 586.288 46.5656 586.288C50.1802 586.288 51.8745 585.083 51.8745 581.656C51.8745 578.192 50.1802 577.025 46.6032 577.025C42.951 577.025 41.0683 578.268 41.0683 581.619V581.92ZM67.7399 591.446C62.431 591.446 59.9083 588.17 59.9083 583.953V572.206H65.5561V582.07C65.5561 585.12 66.8363 586.4 70.4132 586.4C74.1031 586.4 75.421 584.97 75.421 581.769V572.206H81.0688V591.069H75.7975V585.309H75.4963C75.0068 588.471 72.71 591.446 67.7399 591.446ZM89.6044 591.069H83.9565V572.206H89.1902V577.213H89.529C90.0562 574.164 92.0517 571.829 95.8546 571.829C100.072 571.829 101.804 574.728 101.804 578.418V581.543H96.1558V579.585C96.1558 577.515 95.3275 576.611 93.0307 576.611C90.508 576.611 89.6044 577.778 89.6044 580.15V591.069ZM113.375 591.446C107.012 591.446 103.51 588.961 103.51 584.593V584.48H109.158V584.819C109.158 586.513 110.212 586.965 113.413 586.965C116.425 586.965 117.14 586.476 117.14 585.346C117.14 584.292 116.575 583.991 114.354 583.69L109.045 583.049C105.28 582.635 103.171 580.941 103.171 577.778C103.171 574.465 105.995 571.829 112.471 571.829C118.646 571.829 122.148 574.164 122.148 578.757V578.87H116.5V578.644C116.5 577.1 115.747 576.31 112.283 576.31C109.459 576.31 108.744 576.799 108.744 578.004C108.744 578.983 109.271 579.397 111.756 579.698L115.785 580.188C120.83 580.753 122.713 582.447 122.713 585.572C122.713 589.111 119.211 591.446 113.375 591.446ZM135.007 591.446C128.719 591.446 124.427 588.358 124.427 581.656C124.427 575.632 128.681 571.829 134.894 571.829C141.069 571.829 145.173 575.067 145.173 580.979C145.173 581.656 145.098 582.146 145.022 582.786H129.66C129.811 585.685 131.166 586.928 134.819 586.928C138.17 586.928 139.337 586.062 139.337 584.443V584.066H144.985V584.48C144.985 588.584 140.994 591.446 135.007 591.446ZM134.781 576.234C131.43 576.234 129.999 577.364 129.736 579.811H139.751C139.601 577.326 138.094 576.234 134.781 576.234ZM159.203 582.748H153.555V581.43C153.555 578.682 155.475 577.402 157.809 576.498L160.445 575.444C162.252 574.728 163.118 574.164 163.118 572.883C163.118 571.603 162.365 570.624 157.998 570.624C153.404 570.624 152.011 571.829 152.011 574.239V575.707H146.439V574.691C146.439 569.796 149.79 565.466 158.412 565.466C165.829 565.466 168.766 568.704 168.766 572.695C168.766 576.611 166.093 578.192 163.608 579.171L160.822 580.263C159.429 580.828 159.203 581.355 159.203 582.296V582.748ZM159.654 591.069H153.178V584.932H159.654V591.069Z" fill="white"/>
<path d="M378.06 587.784H375.942V580.95H373.513V579.496H373.909C374.954 579.496 375.66 579.256 376.126 578.324H378.06V587.784ZM383.709 587.925C380.659 587.925 378.979 586.005 378.979 583.054C378.979 580.117 380.659 578.183 383.709 578.183C386.745 578.183 388.439 580.117 388.439 583.054C388.439 586.005 386.745 587.925 383.709 587.925ZM383.709 585.864C385.502 585.864 386.166 585.087 386.166 583.054C386.166 581.021 385.502 580.244 383.709 580.244C381.901 580.244 381.252 581.021 381.252 583.054C381.252 585.087 381.901 585.864 383.709 585.864ZM390.751 588.067H388.492L393.575 578.042H395.834L390.751 588.067ZM399.824 587.784H397.382C397.382 583.534 399.81 581.656 401.589 580.386V580.23H395.617V578.324H403.792V580.033C401.166 582.518 399.824 584.226 399.824 587.784ZM405.794 588.067H403.535L408.618 578.042H410.877L405.794 588.067ZM419.245 587.784H410.844V586.429C410.844 584.763 411.564 583.901 413.555 583.238L415.983 582.447C416.83 582.15 417.141 581.868 417.141 581.247C417.141 580.527 416.746 580.117 415.192 580.117C413.456 580.117 412.933 580.64 412.933 581.685V581.868H410.858V581.685C410.858 579.849 412.114 578.183 415.263 578.183C418.115 578.183 419.273 579.482 419.273 581.275C419.273 582.955 418.172 583.788 416.491 584.254L414.43 584.819C413.512 585.101 413.075 585.37 413.075 586.118L415.545 585.878H419.245V587.784ZM424.689 587.925C421.639 587.925 419.959 586.005 419.959 583.054C419.959 580.117 421.639 578.183 424.689 578.183C427.724 578.183 429.419 580.117 429.419 583.054C429.419 586.005 427.724 587.925 424.689 587.925ZM424.689 585.864C426.482 585.864 427.145 585.087 427.145 583.054C427.145 581.021 426.482 580.244 424.689 580.244C422.881 580.244 422.232 581.021 422.232 583.054C422.232 585.087 422.881 585.864 424.689 585.864ZM438.48 587.784H430.079V586.429C430.079 584.763 430.799 583.901 432.79 583.238L435.218 582.447C436.065 582.15 436.376 581.868 436.376 581.247C436.376 580.527 435.981 580.117 434.428 580.117C432.691 580.117 432.168 580.64 432.168 581.685V581.868H430.093V581.685C430.093 579.849 431.35 578.183 434.498 578.183C437.35 578.183 438.508 579.482 438.508 581.275C438.508 582.955 437.407 583.788 435.727 584.254L433.665 584.819C432.747 585.101 432.31 585.37 432.31 586.118L434.781 585.878H438.48V587.784ZM447.171 587.784H445.053V585.977H439.053V584.537L444.714 578.324H447.171V584.071H448.611V585.977H447.171V587.784ZM442.004 584.071H445.053V580.767H444.898L442.004 583.915V584.071Z" fill="white"/>
<path d="M464.04 481.8C499.71 492.665 537.433 472.558 548.299 436.888C559.164 401.218 539.056 363.494 503.386 352.629C467.717 341.764 429.993 361.872 419.128 397.542C408.262 433.211 428.37 470.935 464.04 481.8Z" stroke="black" stroke-width="14.4573" stroke-miterlimit="10"/>
<path d="M573.135 492.791C614.375 492.885 647.905 449.53 648.028 395.954C648.151 342.378 614.818 298.87 573.578 298.775C532.338 298.681 498.808 342.036 498.685 395.612C498.562 449.188 531.895 492.697 573.135 492.791Z" stroke="black" stroke-width="14.4573" stroke-miterlimit="10"/>
<path d="M617.958 357.604C659.198 357.698 692.729 314.343 692.852 260.767C692.974 207.191 659.642 163.682 618.402 163.588C577.162 163.493 543.631 206.849 543.509 260.425C543.386 314.001 576.718 357.509 617.958 357.604Z" stroke="black" stroke-width="14.4573" stroke-miterlimit="10"/>
<path d="M37.9385 402.993L34.7616 402.993L34.7616 388.803L39.061 388.803L42.3862 395.792L43.7205 399.117L43.9534 399.117L45.2454 395.792L48.4646 388.803L52.7852 388.803L52.7852 402.993L49.6083 402.993L49.6083 395.792L49.7142 393.568L49.4813 393.568L48.6553 395.792L45.6902 402.146L41.8355 402.146L38.8704 395.792L38.0444 393.568L37.8114 393.568L37.9385 395.792L37.9385 402.993ZM56.485 406.594L54.7483 406.594L54.7483 403.713L57.3534 403.713C58.137 403.713 58.4759 403.501 58.6877 403.036L53.4987 392.382L57.0992 392.382L59.3442 397.232L60.2337 399.732L60.4455 399.732L61.2927 397.211L63.3048 392.382L66.8417 392.382L61.5892 403.756C60.5726 405.979 59.1536 406.594 56.485 406.594ZM74.051 406.594L70.8741 406.594L70.8741 392.382L73.818 392.382L73.818 395.284L74.0298 395.284C74.411 393.251 75.7665 392.171 78.2656 392.171C81.5273 392.171 83.3487 394.331 83.3487 397.698C83.3487 401.066 81.5696 403.205 78.3715 403.205C75.9147 403.205 74.5593 401.998 74.1992 400.134L74.051 400.134L74.051 406.594ZM74.051 397.847C74.051 399.668 75.1523 400.303 77.1431 400.303C79.1764 400.303 80.1294 399.626 80.1294 397.698C80.1294 395.75 79.1764 395.093 77.1643 395.093C75.1099 395.093 74.051 395.792 74.051 397.677L74.051 397.847ZM89.0537 403.205C86.0674 403.205 84.6484 401.362 84.6484 398.99L84.6484 392.382L87.8253 392.382L87.8253 397.931C87.8253 399.647 88.5454 400.367 90.5574 400.367C92.633 400.367 93.3743 399.562 93.3743 397.762L93.3743 392.382L96.5512 392.382L96.5512 402.993L93.5861 402.993L93.5861 399.753L93.4167 399.753C93.1413 401.532 91.8494 403.205 89.0537 403.205ZM101.352 402.993L98.1756 402.993L98.1756 392.382L101.119 392.382L101.119 395.199L101.31 395.199C101.607 393.484 102.729 392.171 104.868 392.171C107.24 392.171 108.215 393.801 108.215 395.877L108.215 397.635L105.038 397.635L105.038 396.533C105.038 395.369 104.572 394.86 103.28 394.86C101.861 394.86 101.352 395.517 101.352 396.851L101.352 402.993ZM114.723 403.205C111.144 403.205 109.174 401.807 109.174 399.35L109.174 399.287L112.351 399.287L112.351 399.477C112.351 400.43 112.944 400.685 114.745 400.685C116.439 400.685 116.841 400.409 116.841 399.774C116.841 399.181 116.524 399.011 115.274 398.842L112.288 398.482C110.17 398.249 108.984 397.296 108.984 395.517C108.984 393.653 110.572 392.171 114.215 392.171C117.689 392.171 119.658 393.484 119.658 396.068L119.658 396.131L116.481 396.131L116.481 396.004C116.481 395.136 116.058 394.691 114.109 394.691C112.521 394.691 112.118 394.966 112.118 395.644C112.118 396.195 112.415 396.428 113.813 396.597L116.079 396.872C118.917 397.19 119.976 398.143 119.976 399.901C119.976 401.892 118.006 403.205 114.723 403.205ZM126.891 403.205C123.354 403.205 120.94 401.468 120.94 397.698C120.94 394.31 123.333 392.171 126.828 392.171C130.301 392.171 132.61 393.992 132.61 397.317C132.61 397.698 132.568 397.974 132.525 398.334L123.884 398.334C123.969 399.965 124.731 400.663 126.786 400.663C128.671 400.663 129.327 400.176 129.327 399.266L129.327 399.054L132.504 399.054L132.504 399.287C132.504 401.595 130.259 403.205 126.891 403.205ZM126.764 394.648C124.879 394.648 124.075 395.284 123.926 396.661L129.56 396.661C129.475 395.263 128.628 394.648 126.764 394.648ZM140.402 402.993L137.225 402.993L137.225 388.803L140.402 388.803L140.402 394.437L147.815 394.437L147.815 388.803L150.992 388.803L150.992 402.993L147.815 402.993L147.815 397.296L140.402 397.296L140.402 402.993ZM165.7 405.979L161.57 405.979L159.367 403.184C155.026 402.93 152.378 400.113 152.378 395.898C152.378 391.472 155.301 388.591 160.003 388.591C164.81 388.591 167.712 391.472 167.712 395.898C167.712 399.35 165.954 401.871 162.883 402.803L165.7 405.979ZM160.003 400.155C163.116 400.155 164.323 399.054 164.323 395.898C164.323 392.742 163.116 391.641 160.003 391.641C156.889 391.641 155.746 392.742 155.746 395.898C155.746 399.054 156.889 400.155 160.003 400.155Z" fill="black"/>
<path d="M480.187 587.784L478.069 587.784L478.069 580.71L480.031 580.71L480.031 582.856L480.144 582.856C480.314 581.67 481.02 580.569 482.799 580.569C484.437 580.569 485.27 581.572 485.425 582.885L485.552 582.885C485.722 581.685 486.442 580.569 488.263 580.569C490.085 580.569 490.974 581.769 490.974 583.379L490.974 587.784L488.856 587.784L488.856 584.085C488.856 582.913 488.447 582.475 487.232 582.475C485.948 582.475 485.58 582.984 485.58 584.212L485.58 587.784L483.463 587.784L483.463 584.085C483.463 582.913 483.053 582.475 481.839 582.475C480.554 582.475 480.187 582.984 480.187 584.212L480.187 587.784ZM493.406 590.185L492.248 590.185L492.248 588.264L493.985 588.264C494.507 588.264 494.733 588.123 494.874 587.812L491.415 580.71L493.815 580.71L495.312 583.944L495.905 585.61L496.046 585.61L496.611 583.93L497.953 580.71L500.31 580.71L496.809 588.292C496.131 589.775 495.185 590.185 493.406 590.185ZM502.938 590.185L500.82 590.185L500.82 580.71L502.783 580.71L502.783 582.645L502.924 582.645C503.178 581.289 504.082 580.569 505.748 580.569C507.922 580.569 509.137 582.009 509.137 584.254C509.137 586.499 507.951 587.925 505.818 587.925C504.181 587.925 503.277 587.121 503.037 585.878L502.938 585.878L502.938 590.185ZM502.938 584.353C502.938 585.567 503.672 585.991 505 585.991C506.355 585.991 506.99 585.539 506.99 584.254C506.99 582.955 506.355 582.518 505.014 582.518C503.644 582.518 502.938 582.984 502.938 584.24L502.938 584.353ZM512.94 587.925C510.949 587.925 510.003 586.697 510.003 585.116L510.003 580.71L512.121 580.71L512.121 584.41C512.121 585.553 512.601 586.033 513.942 586.033C515.326 586.033 515.82 585.497 515.82 584.297L515.82 580.71L517.938 580.71L517.938 587.784L515.961 587.784L515.961 585.624L515.849 585.624C515.665 586.81 514.804 587.925 512.94 587.925ZM521.139 587.784L519.021 587.784L519.021 580.71L520.984 580.71L520.984 582.588L521.111 582.588C521.308 581.444 522.057 580.569 523.483 580.569C525.064 580.569 525.714 581.656 525.714 583.04L525.714 584.212L523.596 584.212L523.596 583.478C523.596 582.701 523.285 582.362 522.424 582.362C521.478 582.362 521.139 582.8 521.139 583.69L521.139 587.784ZM530.053 587.925C527.667 587.925 526.354 586.993 526.354 585.356L526.354 585.313L528.472 585.313L528.472 585.44C528.472 586.076 528.867 586.245 530.067 586.245C531.197 586.245 531.465 586.062 531.465 585.638C531.465 585.243 531.253 585.13 530.42 585.017L528.429 584.777C527.017 584.621 526.227 583.986 526.227 582.8C526.227 581.557 527.286 580.569 529.714 580.569C532.03 580.569 533.343 581.444 533.343 583.167L533.343 583.209L531.225 583.209L531.225 583.125C531.225 582.546 530.943 582.249 529.644 582.249C528.585 582.249 528.316 582.433 528.316 582.885C528.316 583.252 528.514 583.407 529.446 583.52L530.957 583.704C532.849 583.915 533.555 584.551 533.555 585.723C533.555 587.05 532.242 587.925 530.053 587.925ZM538.165 587.925C535.807 587.925 534.197 586.768 534.197 584.254C534.197 581.995 535.793 580.569 538.123 580.569C540.438 580.569 541.977 581.783 541.977 584C541.977 584.254 541.949 584.438 541.921 584.678L536.16 584.678C536.217 585.765 536.725 586.231 538.094 586.231C539.351 586.231 539.789 585.906 539.789 585.299L539.789 585.158L541.907 585.158L541.907 585.313C541.907 586.852 540.41 587.925 538.165 587.925ZM538.08 582.221C536.824 582.221 536.287 582.645 536.188 583.562L539.944 583.562C539.888 582.631 539.323 582.221 538.08 582.221ZM544.993 590.185L542.875 590.185L542.875 580.71L544.838 580.71L544.838 582.645L544.979 582.645C545.233 581.289 546.137 580.569 547.803 580.569C549.978 580.569 551.192 582.009 551.192 584.254C551.192 586.499 550.006 587.925 547.874 587.925C546.236 587.925 545.332 587.121 545.092 585.878L544.993 585.878L544.993 590.185ZM544.993 584.353C544.993 585.567 545.728 585.991 547.055 585.991C548.41 585.991 549.046 585.539 549.046 584.254C549.046 582.955 548.41 582.518 547.069 582.518C545.699 582.518 544.993 582.984 544.993 584.24L544.993 584.353ZM554.247 587.925C552.722 587.925 551.804 587.219 551.804 586.033C551.804 584.989 552.581 584.339 554.092 584.184L557.127 583.873L557.127 583.605C557.127 582.687 556.718 582.433 555.588 582.433C554.515 582.433 554.077 582.715 554.077 583.52L554.077 583.577L551.945 583.577L551.945 583.534C551.945 581.783 553.414 580.569 555.744 580.569C558.102 580.569 559.217 581.783 559.217 583.633L559.217 587.784L557.24 587.784L557.24 586.16L557.127 586.16C556.803 587.262 555.814 587.925 554.247 587.925ZM553.936 585.892C553.936 586.273 554.233 586.429 554.854 586.429C556.294 586.429 557.071 586.09 557.127 585.087L554.67 585.37C554.162 585.412 553.936 585.553 553.936 585.892ZM561.646 590.185L560.488 590.185L560.488 588.264L562.225 588.264C562.747 588.264 562.973 588.123 563.114 587.812L559.655 580.71L562.055 580.71L563.552 583.944L564.145 585.61L564.286 585.61L564.851 583.93L566.192 580.71L568.55 580.71L565.049 588.292C564.371 589.775 563.425 590.185 561.646 590.185ZM571.644 587.784L568.919 587.784L568.919 585.313L571.644 585.313L571.644 587.784ZM576.401 587.925C573.973 587.925 572.42 586.485 572.42 584.254C572.42 581.995 573.973 580.569 576.401 580.569C578.675 580.569 580.228 581.783 580.228 583.619L580.228 583.817L578.124 583.817L578.124 583.704C578.124 582.8 577.46 582.475 576.359 582.475C575.102 582.475 574.523 582.941 574.523 584.254C574.523 585.553 575.102 586.019 576.359 586.019C577.46 586.019 578.124 585.694 578.124 584.791L578.124 584.678L580.228 584.678L580.228 584.876C580.228 586.697 578.675 587.925 576.401 587.925ZM584.909 587.925C582.494 587.925 580.871 586.485 580.871 584.254C580.871 581.995 582.494 580.569 584.909 580.569C587.323 580.569 588.947 581.995 588.947 584.254C588.947 586.485 587.323 587.925 584.909 587.925ZM584.909 586.047C586.335 586.047 586.843 585.497 586.843 584.254C586.843 583.012 586.335 582.433 584.909 582.433C583.469 582.433 582.974 583.012 582.974 584.254C582.974 585.497 583.469 586.047 584.909 586.047ZM591.93 587.784L589.812 587.784L589.812 580.71L591.775 580.71L591.775 582.856L591.888 582.856C592.057 581.67 592.763 580.569 594.542 580.569C596.18 580.569 597.013 581.572 597.168 582.885L597.295 582.885C597.465 581.685 598.185 580.569 600.006 580.569C601.828 580.569 602.717 581.769 602.717 583.379L602.717 587.784L600.599 587.784L600.599 584.085C600.599 582.913 600.19 582.475 598.976 582.475C597.691 582.475 597.324 582.984 597.324 584.212L597.324 587.784L595.206 587.784L595.206 584.085C595.206 582.913 594.796 582.475 593.582 582.475C592.297 582.475 591.93 582.984 591.93 584.212L591.93 587.784Z" fill="white"/>
</g>
<defs>
<clipPath id="clip0_701_690">
<rect width="635.38" height="635.38" fill="white" transform="translate(0.380432)"/>
</clipPath>
</defs>
</svg>
