<svg width="636" height="636" viewBox="0 0 636 636" fill="none" xmlns="http://www.w3.org/2000/svg">
<g clip-path="url(#clip0_701_712)">
<rect width="635.38" height="635.38" transform="translate(0.380432 0.380859)" fill="#5FFFC5"/>
<rect x="0.38048" y="423.968" width="635.38" height="211.793" fill="black"/>
<path d="M37.9385 70.3877H34.7616V56.1975H38.1503L43.2333 62.9114L45.1818 65.8977H45.4148L45.2666 63.0385V56.1975H48.4435V70.3877H45.0548L39.8235 63.6103L38.0232 60.9417H37.8114L37.9385 63.5468V70.3877ZM55.7839 70.5995C52.1623 70.5995 49.7266 68.4392 49.7266 65.0929C49.7266 61.7042 52.1623 59.565 55.7839 59.565C59.4056 59.565 61.8412 61.7042 61.8412 65.0929C61.8412 68.4392 59.4056 70.5995 55.7839 70.5995ZM55.7839 67.7826C57.923 67.7826 58.6855 66.9566 58.6855 65.0929C58.6855 63.2291 57.923 62.3607 55.7839 62.3607C53.6236 62.3607 52.8824 63.2291 52.8824 65.0929C52.8824 66.9566 53.6236 67.7826 55.7839 67.7826ZM67.0144 70.3877H62.9268V66.6813H67.0144V70.3877ZM79.2185 70.3877H74.4956L71.1492 56.1975H74.7073L76.4229 64.2457L76.91 67.359H77.143L77.7995 64.2457L80.1716 56.1975H84.8946L87.2455 64.2457L87.9021 67.359H88.1351L88.6222 64.2457L90.3377 56.1975H93.8111L90.4436 70.3877H85.7206L83.6027 63.2926L82.6072 59.205H82.3743L81.3788 63.2926L79.2185 70.3877ZM100.541 70.5995C97.0044 70.5995 94.59 68.8628 94.59 65.0929C94.59 61.7042 96.9832 59.565 100.478 59.565C103.951 59.565 106.26 61.3865 106.26 64.7116C106.26 65.0929 106.217 65.3682 106.175 65.7282H97.5339C97.6186 67.359 98.3811 68.058 100.435 68.058C102.32 68.058 102.977 67.5708 102.977 66.6601V66.4483H106.154V66.6813C106.154 68.9899 103.909 70.5995 100.541 70.5995ZM100.414 62.043C98.5293 62.043 97.7245 62.6784 97.5762 64.0551H103.21C103.125 62.6572 102.278 62.043 100.414 62.043ZM114.137 70.5995C111.849 70.5995 110.472 69.5405 110.472 67.7615C110.472 66.1942 111.637 65.2199 113.904 64.987L118.457 64.521V64.1186C118.457 62.742 117.843 62.3607 116.149 62.3607C114.539 62.3607 113.882 62.7843 113.882 63.9915V64.0762H110.684V64.0127C110.684 61.3865 112.887 59.565 116.382 59.565C119.918 59.565 121.592 61.3865 121.592 64.161V70.3877H118.627V67.9521H118.457C117.97 69.6041 116.487 70.5995 114.137 70.5995ZM113.671 67.5497C113.671 68.1215 114.115 68.3545 115.047 68.3545C117.208 68.3545 118.372 67.8462 118.457 66.3424L114.772 66.766C114.009 66.8296 113.671 67.0414 113.671 67.5497ZM126.379 70.3877H123.202V59.7768H126.146V62.5937H126.336C126.633 60.8782 127.755 59.565 129.895 59.565C132.267 59.565 133.241 61.1959 133.241 63.2714V65.0293H130.064V63.928C130.064 62.7631 129.598 62.2548 128.306 62.2548C126.887 62.2548 126.379 62.9114 126.379 64.2457V70.3877ZM140.025 70.5995C136.488 70.5995 134.074 68.8628 134.074 65.0929C134.074 61.7042 136.467 59.565 139.962 59.565C143.435 59.565 145.744 61.3865 145.744 64.7116C145.744 65.0929 145.701 65.3682 145.659 65.7282H137.018C137.102 67.359 137.865 68.058 139.919 68.058C141.804 68.058 142.461 67.5708 142.461 66.6601V66.4483H145.638V66.6813C145.638 68.9899 143.393 70.5995 140.025 70.5995ZM139.898 62.043C138.013 62.043 137.208 62.6784 137.06 64.0551H142.694C142.609 62.6572 141.762 62.043 139.898 62.043ZM153.536 70.3877H150.359V59.7768H153.303V63.0385H153.493C153.769 61.2594 155.039 59.565 157.814 59.565C160.715 59.565 162.092 61.4288 162.092 63.7797V70.3877H158.915V64.8387C158.915 63.1444 158.216 62.4243 156.268 62.4243C154.256 62.4243 153.536 63.2291 153.536 65.0293V70.3877ZM169.354 70.5995C165.732 70.5995 163.297 68.4392 163.297 65.0929C163.297 61.7042 165.732 59.565 169.354 59.565C172.976 59.565 175.411 61.7042 175.411 65.0929C175.411 68.4392 172.976 70.5995 169.354 70.5995ZM169.354 67.7826C171.493 67.7826 172.256 66.9566 172.256 65.0929C172.256 63.2291 171.493 62.3607 169.354 62.3607C167.194 62.3607 166.452 63.2291 166.452 65.0929C166.452 66.9566 167.194 67.7826 169.354 67.7826ZM184.185 70.3877H181.559C179.081 70.3877 177.577 69.2228 177.577 66.5542V62.4031H175.904V59.7768H177.577V57.7224H180.754V59.7768H184.185V62.4031H180.754V66.1942C180.754 67.2532 181.156 67.5285 182.279 67.5285H184.185V70.3877ZM191.904 70.5995C189.617 70.5995 188.24 69.5405 188.24 67.7615C188.24 66.1942 189.405 65.2199 191.671 64.987L196.225 64.521V64.1186C196.225 62.742 195.611 62.3607 193.916 62.3607C192.307 62.3607 191.65 62.7843 191.65 63.9915V64.0762H188.452V64.0127C188.452 61.3865 190.655 59.565 194.149 59.565C197.686 59.565 199.36 61.3865 199.36 64.161V70.3877H196.394V67.9521H196.225C195.738 69.6041 194.255 70.5995 191.904 70.5995ZM191.438 67.5497C191.438 68.1215 191.883 68.3545 192.815 68.3545C194.975 68.3545 196.14 67.8462 196.225 66.3424L192.54 66.766C191.777 66.8296 191.438 67.0414 191.438 67.5497ZM207.182 70.3877H204.238V56.1975H207.415V62.5937H207.584C207.944 60.8146 209.236 59.565 211.756 59.565C214.933 59.565 216.712 61.7042 216.712 65.0929C216.712 68.4392 214.912 70.5995 211.608 70.5995C209.151 70.5995 207.754 69.5405 207.372 67.4438H207.182V70.3877ZM207.415 65.1564C207.415 66.999 208.495 67.6979 210.507 67.6979C212.561 67.6979 213.493 67.0202 213.493 65.0929C213.493 63.1444 212.561 62.4666 210.528 62.4666C208.474 62.4666 207.415 63.1444 207.415 64.987V65.1564ZM221.295 70.5995C219.008 70.5995 217.631 69.5405 217.631 67.7615C217.631 66.1942 218.796 65.2199 221.062 64.987L225.615 64.521V64.1186C225.615 62.742 225.001 62.3607 223.307 62.3607C221.697 62.3607 221.041 62.7843 221.041 63.9915V64.0762H217.843V64.0127C217.843 61.3865 220.045 59.565 223.54 59.565C227.077 59.565 228.75 61.3865 228.75 64.161V70.3877H225.785V67.9521H225.615C225.128 69.6041 223.646 70.5995 221.295 70.5995ZM220.829 67.5497C220.829 68.1215 221.274 68.3545 222.206 68.3545C224.366 68.3545 225.531 67.8462 225.615 66.3424L221.93 66.766C221.168 66.8296 220.829 67.0414 220.829 67.5497ZM233.537 70.3877H230.36V59.7768H233.304V63.0385H233.495C233.77 61.2594 235.041 59.565 237.815 59.565C240.717 59.565 242.094 61.4288 242.094 63.7797V70.3877H238.917V64.8387C238.917 63.1444 238.218 62.4243 236.269 62.4243C234.257 62.4243 233.537 63.2291 233.537 65.0293V70.3877ZM246.878 70.3877H243.701V56.1975H246.878V63.7162H249.292L252.003 59.7768H255.773L251.897 64.9022L255.71 70.3877H251.961L249.313 66.5542H246.878V70.3877ZM260.421 70.3877H256.333V66.6813H260.421V70.3877ZM268.347 70.3877H265.17V56.1975H269.469L272.794 63.1867L274.129 66.5119H274.362L275.654 63.1867L278.873 56.1975H283.193V70.3877H280.016V63.1867L280.122 60.9629H279.889L279.063 63.1867L276.098 69.5405H272.244L269.279 63.1867L268.453 60.9629H268.22L268.347 63.1867V70.3877ZM286.893 73.9882H285.156V71.1078H287.761C288.545 71.1078 288.884 70.896 289.096 70.4301L283.907 59.7768H287.507L289.752 64.6269L290.642 67.1261H290.854L291.701 64.6057L293.713 59.7768H297.25L291.997 71.1502C290.981 73.374 289.562 73.9882 286.893 73.9882ZM304.459 73.9882H301.282V59.7768H304.226V62.6784H304.438C304.819 60.6452 306.175 59.565 308.674 59.565C311.935 59.565 313.757 61.7253 313.757 65.0929C313.757 68.4604 311.978 70.5995 308.78 70.5995C306.323 70.5995 304.967 69.3923 304.607 67.5285H304.459V73.9882ZM304.459 65.2411C304.459 67.0625 305.56 67.6979 307.551 67.6979C309.585 67.6979 310.538 67.0202 310.538 65.0929C310.538 63.1444 309.585 62.4878 307.572 62.4878C305.518 62.4878 304.459 63.1867 304.459 65.0717V65.2411ZM319.462 70.5995C316.476 70.5995 315.057 68.7569 315.057 66.3848V59.7768H318.233V65.3258C318.233 67.0414 318.954 67.7615 320.966 67.7615C323.041 67.7615 323.782 66.9566 323.782 65.1564V59.7768H326.959V70.3877H323.994V67.1473H323.825C323.549 68.9263 322.258 70.5995 319.462 70.5995ZM331.761 70.3877H328.584V59.7768H331.528V62.5937H331.718C332.015 60.8782 333.137 59.565 335.276 59.565C337.648 59.565 338.623 61.1959 338.623 63.2714V65.0293H335.446V63.928C335.446 62.7631 334.98 62.2548 333.688 62.2548C332.269 62.2548 331.761 62.9114 331.761 64.2457V70.3877ZM345.132 70.5995C341.552 70.5995 339.583 69.2017 339.583 66.7448V66.6813H342.759V66.8719C342.759 67.825 343.352 68.0791 345.153 68.0791C346.847 68.0791 347.249 67.8038 347.249 67.1684C347.249 66.5754 346.932 66.406 345.682 66.2365L342.696 65.8765C340.578 65.6435 339.392 64.6905 339.392 62.9114C339.392 61.0476 340.98 59.565 344.623 59.565C348.097 59.565 350.066 60.8782 350.066 63.462V63.5256H346.889V63.3985C346.889 62.5302 346.466 62.0854 344.517 62.0854C342.929 62.0854 342.526 62.3607 342.526 63.0385C342.526 63.5891 342.823 63.8221 344.221 63.9915L346.487 64.2669C349.325 64.5846 350.384 65.5376 350.384 67.2955C350.384 69.2864 348.414 70.5995 345.132 70.5995ZM357.3 70.5995C353.763 70.5995 351.348 68.8628 351.348 65.0929C351.348 61.7042 353.741 59.565 357.236 59.565C360.709 59.565 363.018 61.3865 363.018 64.7116C363.018 65.0929 362.976 65.3682 362.933 65.7282H354.292C354.377 67.359 355.139 68.058 357.194 68.058C359.079 68.058 359.735 67.5708 359.735 66.6601V66.4483H362.912V66.6813C362.912 68.9899 360.667 70.5995 357.3 70.5995ZM357.173 62.043C355.288 62.043 354.483 62.6784 354.334 64.0551H359.968C359.883 62.6572 359.036 62.043 357.173 62.043ZM370.81 58.6967H367.633V56.1975H370.81V58.6967ZM370.81 70.3877H367.633V59.7768H370.81V70.3877ZM377.831 70.5995C374.252 70.5995 372.282 69.2017 372.282 66.7448V66.6813H375.459V66.8719C375.459 67.825 376.052 68.0791 377.852 68.0791C379.547 68.0791 379.949 67.8038 379.949 67.1684C379.949 66.5754 379.632 66.406 378.382 66.2365L375.396 65.8765C373.278 65.6435 372.092 64.6905 372.092 62.9114C372.092 61.0476 373.68 59.565 377.323 59.565C380.796 59.565 382.766 60.8782 382.766 63.462V63.5256H379.589V63.3985C379.589 62.5302 379.166 62.0854 377.217 62.0854C375.629 62.0854 375.226 62.3607 375.226 63.0385C375.226 63.5891 375.523 63.8221 376.921 63.9915L379.187 64.2669C382.025 64.5846 383.084 65.5376 383.084 67.2955C383.084 69.2864 381.114 70.5995 377.831 70.5995ZM390.895 70.5995C388.608 70.5995 387.231 69.5405 387.231 67.7615C387.231 66.1942 388.396 65.2199 390.662 64.987L395.216 64.521V64.1186C395.216 62.742 394.602 62.3607 392.907 62.3607C391.298 62.3607 390.641 62.7843 390.641 63.9915V64.0762H387.443V64.0127C387.443 61.3865 389.646 59.565 393.14 59.565C396.677 59.565 398.35 61.3865 398.35 64.161V70.3877H395.385V67.9521H395.216C394.729 69.6041 393.246 70.5995 390.895 70.5995ZM390.429 67.5497C390.429 68.1215 390.874 68.3545 391.806 68.3545C393.966 68.3545 395.131 67.8462 395.216 66.3424L391.531 66.766C390.768 66.8296 390.429 67.0414 390.429 67.5497ZM403.137 70.3877H399.961V59.7768H402.905V63.0385H403.095C403.37 61.2594 404.641 59.565 407.416 59.565C410.317 59.565 411.694 61.4288 411.694 63.7797V70.3877H408.517V64.8387C408.517 63.1444 407.818 62.4243 405.87 62.4243C403.858 62.4243 403.137 63.2291 403.137 65.0293V70.3877ZM37.9385 84.6967H34.7616V82.1975H37.9385V84.6967ZM37.9385 96.3877H34.7616V85.7768H37.9385V96.3877ZM42.7783 96.3877H39.6014V85.7768H42.5453V89.0385H42.736C43.0113 87.2594 44.2821 85.565 47.0565 85.565C49.9581 85.565 51.3348 87.4288 51.3348 89.7797V96.3877H48.1579V90.8387C48.1579 89.1444 47.459 88.4243 45.5105 88.4243C43.4984 88.4243 42.7783 89.2291 42.7783 91.0293V96.3877ZM57.6861 96.5995C54.3821 96.5995 52.5607 94.4392 52.5607 91.0929C52.5607 87.7042 54.3609 85.565 57.5167 85.565C60.037 85.565 61.3289 86.8146 61.689 88.5937H61.8796V82.1975H65.0565V96.3877H62.0914V93.4438H61.922C61.5196 95.5405 60.1217 96.5995 57.6861 96.5995ZM55.78 91.0929C55.78 93.0202 56.733 93.6979 58.7662 93.6979C60.7783 93.6979 61.8796 92.999 61.8796 91.1564V90.987C61.8796 89.1444 60.7995 88.4666 58.7662 88.4666C56.733 88.4666 55.78 89.1444 55.78 91.0929ZM72.3712 96.5995C68.8342 96.5995 66.4198 94.8628 66.4198 91.0929C66.4198 87.7042 68.813 85.565 72.3076 85.565C75.781 85.565 78.0896 87.3865 78.0896 90.7116C78.0896 91.0929 78.0472 91.3682 78.0049 91.7282H69.3637C69.4484 93.359 70.2109 94.058 72.2653 94.058C74.1502 94.058 74.8068 93.5708 74.8068 92.6601V92.4483H77.9837V92.6813C77.9837 94.9899 75.7387 96.5995 72.3712 96.5995ZM72.2441 88.043C70.3591 88.043 69.5543 88.6784 69.4061 90.0551H75.0398C74.955 88.6572 74.1079 88.043 72.2441 88.043ZM82.6137 99.9882H79.4368V85.7768H82.3807V88.6784H82.5925C82.9737 86.6452 84.3292 85.565 86.8284 85.565C90.09 85.565 91.9114 87.7253 91.9114 91.0929C91.9114 94.4604 90.1324 96.5995 86.9343 96.5995C84.4775 96.5995 83.122 95.3923 82.762 93.5285H82.6137V99.9882ZM82.6137 91.2411C82.6137 93.0625 83.715 93.6979 85.7059 93.6979C87.7391 93.6979 88.6922 93.0202 88.6922 91.0929C88.6922 89.1444 87.7391 88.4878 85.7271 88.4878C83.6727 88.4878 82.6137 89.1867 82.6137 91.0717V91.2411ZM98.866 96.5995C95.3291 96.5995 92.9146 94.8628 92.9146 91.0929C92.9146 87.7042 95.3079 85.565 98.8025 85.565C102.276 85.565 104.584 87.3865 104.584 90.7116C104.584 91.0929 104.542 91.3682 104.5 91.7282H95.8586C95.9433 93.359 96.7057 94.058 98.7601 94.058C100.645 94.058 101.302 93.5708 101.302 92.6601V92.4483H104.479V92.6813C104.479 94.9899 102.234 96.5995 98.866 96.5995ZM98.739 88.043C96.854 88.043 96.0492 88.6784 95.9009 90.0551H101.535C101.45 88.6572 100.603 88.043 98.739 88.043ZM109.109 96.3877H105.932V85.7768H108.876V89.0385H109.066C109.342 87.2594 110.612 85.565 113.387 85.565C116.288 85.565 117.665 87.4288 117.665 89.7797V96.3877H114.488V90.8387C114.488 89.1444 113.789 88.4243 111.841 88.4243C109.829 88.4243 109.109 89.2291 109.109 91.0293V96.3877ZM124.016 96.5995C120.712 96.5995 118.891 94.4392 118.891 91.0929C118.891 87.7042 120.691 85.565 123.847 85.565C126.367 85.565 127.659 86.8146 128.019 88.5937H128.21V82.1975H131.387V96.3877H128.422V93.4438H128.252C127.85 95.5405 126.452 96.5995 124.016 96.5995ZM122.11 91.0929C122.11 93.0202 123.063 93.6979 125.096 93.6979C127.109 93.6979 128.21 92.999 128.21 91.1564V90.987C128.21 89.1444 127.13 88.4666 125.096 88.4666C123.063 88.4666 122.11 89.1444 122.11 91.0929ZM138.701 96.5995C135.164 96.5995 132.75 94.8628 132.75 91.0929C132.75 87.7042 135.143 85.565 138.638 85.565C142.111 85.565 144.42 87.3865 144.42 90.7116C144.42 91.0929 144.377 91.3682 144.335 91.7282H135.694C135.779 93.359 136.541 94.058 138.596 94.058C140.48 94.058 141.137 93.5708 141.137 92.6601V92.4483H144.314V92.6813C144.314 94.9899 142.069 96.5995 138.701 96.5995ZM138.574 88.043C136.689 88.043 135.885 88.6784 135.736 90.0551H141.37C141.285 88.6572 140.438 88.043 138.574 88.043ZM148.944 96.3877H145.767V85.7768H148.711V89.0385H148.902C149.177 87.2594 150.448 85.565 153.222 85.565C156.124 85.565 157.5 87.4288 157.5 89.7797V96.3877H154.323V90.8387C154.323 89.1444 153.625 88.4243 151.676 88.4243C149.664 88.4243 148.944 89.2291 148.944 91.0293V96.3877ZM166.584 96.3877H163.958C161.48 96.3877 159.976 95.2228 159.976 92.5542V88.4031H158.303V85.7768H159.976V83.7224H163.153V85.7768H166.584V88.4031H163.153V92.1942C163.153 93.2532 163.555 93.5285 164.678 93.5285H166.584V96.3877ZM176.4 96.5995C172.821 96.5995 170.851 95.2017 170.851 92.7448V92.6813H174.028V92.8719C174.028 93.825 174.621 94.0791 176.421 94.0791C178.116 94.0791 178.518 93.8038 178.518 93.1684C178.518 92.5754 178.2 92.406 176.951 92.2365L173.964 91.8765C171.846 91.6435 170.66 90.6905 170.66 88.9114C170.66 87.0476 172.249 85.565 175.892 85.565C179.365 85.565 181.335 86.8782 181.335 89.462V89.5256H178.158V89.3985C178.158 88.5302 177.734 88.0854 175.786 88.0854C174.197 88.0854 173.795 88.3607 173.795 89.0385C173.795 89.5891 174.091 89.8221 175.489 89.9915L177.755 90.2669C180.593 90.5846 181.652 91.5376 181.652 93.2955C181.652 95.2864 179.683 96.5995 176.4 96.5995ZM188.589 96.5995C184.968 96.5995 182.532 94.4392 182.532 91.0929C182.532 87.7042 184.968 85.565 188.589 85.565C192.211 85.565 194.646 87.7042 194.646 91.0929C194.646 94.4392 192.211 96.5995 188.589 96.5995ZM188.589 93.7826C190.728 93.7826 191.491 92.9566 191.491 91.0929C191.491 89.2291 190.728 88.3607 188.589 88.3607C186.429 88.3607 185.688 89.2291 185.688 91.0929C185.688 92.9566 186.429 93.7826 188.589 93.7826ZM199.968 96.3877H196.791V88.4031H195.287V85.7768H196.855C197.193 83.6377 199.057 82.1975 202.319 82.1975H203.251V84.5061H201.811C200.413 84.5061 199.756 84.7391 199.841 85.7768H204.31V83.7224H207.487V85.7768H210.897V88.4031H207.487V92.1942C207.487 93.2532 207.889 93.5285 208.99 93.5285H210.897V96.3877H208.291C205.813 96.3877 204.31 95.2228 204.31 92.5542V88.4031H199.968V96.3877ZM218.112 96.3877H214.152L211.25 85.7768H214.533L215.782 90.6269L216.227 93.9309H216.439L217.286 90.3092L218.896 85.7768H222.983L224.572 90.3092L225.419 93.9309H225.631L226.097 90.6269L227.325 85.7768H230.566L227.558 96.3877H223.598L221.776 91.2835L220.993 88.3607H220.76L219.955 91.2835L218.112 96.3877ZM234.677 96.5995C232.389 96.5995 231.013 95.5405 231.013 93.7615C231.013 92.1942 232.178 91.2199 234.444 90.987L238.997 90.521V90.1186C238.997 88.742 238.383 88.3607 236.689 88.3607C235.079 88.3607 234.423 88.7843 234.423 89.9915V90.0762H231.225V90.0127C231.225 87.3865 233.427 85.565 236.922 85.565C240.459 85.565 242.132 87.3865 242.132 90.161V96.3877H239.167V93.9521H238.997C238.51 95.6041 237.028 96.5995 234.677 96.5995ZM234.211 93.5497C234.211 94.1215 234.656 94.3545 235.587 94.3545C237.748 94.3545 238.913 93.8462 238.997 92.3424L235.312 92.766C234.55 92.8296 234.211 93.0414 234.211 93.5497ZM246.919 96.3877H243.742V85.7768H246.686V88.5937H246.877C247.173 86.8782 248.296 85.565 250.435 85.565C252.807 85.565 253.781 87.1959 253.781 89.2714V91.0293H250.604V89.928C250.604 88.7631 250.138 88.2548 248.846 88.2548C247.427 88.2548 246.919 88.9114 246.919 90.2457V96.3877ZM260.565 96.5995C257.028 96.5995 254.614 94.8628 254.614 91.0929C254.614 87.7042 257.007 85.565 260.502 85.565C263.975 85.565 266.284 87.3865 266.284 90.7116C266.284 91.0929 266.241 91.3682 266.199 91.7282H257.558C257.643 93.359 258.405 94.058 260.459 94.058C262.344 94.058 263.001 93.5708 263.001 92.6601V92.4483H266.178V92.6813C266.178 94.9899 263.933 96.5995 260.565 96.5995ZM260.438 88.043C258.553 88.043 257.749 88.6784 257.6 90.0551H263.234C263.149 88.6572 262.302 88.043 260.438 88.043ZM276.554 96.5995C272.911 96.5995 270.581 94.4392 270.581 91.0929C270.581 87.7042 272.911 85.565 276.554 85.565C279.964 85.565 282.293 87.3865 282.293 90.1398V90.4363H279.138V90.2669C279.138 88.9114 278.142 88.4243 276.49 88.4243C274.605 88.4243 273.737 89.1232 273.737 91.0929C273.737 93.0414 274.605 93.7403 276.49 93.7403C278.142 93.7403 279.138 93.2532 279.138 91.8977V91.7282H282.293V92.0247C282.293 94.7569 279.964 96.5995 276.554 96.5995ZM289.315 96.5995C285.694 96.5995 283.258 94.4392 283.258 91.0929C283.258 87.7042 285.694 85.565 289.315 85.565C292.937 85.565 295.372 87.7042 295.372 91.0929C295.372 94.4392 292.937 96.5995 289.315 96.5995ZM289.315 93.7826C291.454 93.7826 292.217 92.9566 292.217 91.0929C292.217 89.2291 291.454 88.3607 289.315 88.3607C287.155 88.3607 286.414 89.2291 286.414 91.0929C286.414 92.9566 287.155 93.7826 289.315 93.7826ZM299.847 96.3877H296.67V85.7768H299.614V88.9961H299.783C300.037 87.217 301.096 85.565 303.765 85.565C306.222 85.565 307.471 87.0688 307.704 89.0385H307.895C308.149 87.2382 309.229 85.565 311.961 85.565C314.694 85.565 316.028 87.3653 316.028 89.7797V96.3877H312.851V90.8387C312.851 89.0808 312.237 88.4243 310.415 88.4243C308.488 88.4243 307.937 89.1867 307.937 91.0293V96.3877H304.76V90.8387C304.76 89.0808 304.146 88.4243 302.325 88.4243C300.397 88.4243 299.847 89.1867 299.847 91.0293V96.3877ZM320.819 99.9882H317.642V85.7768H320.586V88.6784H320.798C321.179 86.6452 322.535 85.565 325.034 85.565C328.296 85.565 330.117 87.7253 330.117 91.0929C330.117 94.4604 328.338 96.5995 325.14 96.5995C322.683 96.5995 321.328 95.3923 320.968 93.5285H320.819V99.9882ZM320.819 91.2411C320.819 93.0625 321.921 93.6979 323.911 93.6979C325.945 93.6979 326.898 93.0202 326.898 91.0929C326.898 89.1444 325.945 88.4878 323.933 88.4878C321.878 88.4878 320.819 89.1867 320.819 91.0717V91.2411ZM334.7 96.5995C332.412 96.5995 331.036 95.5405 331.036 93.7615C331.036 92.1942 332.2 91.2199 334.467 90.987L339.02 90.521V90.1186C339.02 88.742 338.406 88.3607 336.712 88.3607C335.102 88.3607 334.445 88.7843 334.445 89.9915V90.0762H331.247V90.0127C331.247 87.3865 333.45 85.565 336.945 85.565C340.482 85.565 342.155 87.3865 342.155 90.161V96.3877H339.19V93.9521H339.02C338.533 95.6041 337.05 96.5995 334.7 96.5995ZM334.234 93.5497C334.234 94.1215 334.678 94.3545 335.61 94.3545C337.771 94.3545 338.935 93.8462 339.02 92.3424L335.335 92.766C334.572 92.8296 334.234 93.0414 334.234 93.5497ZM346.942 96.3877H343.765V85.7768H346.709V89.0385H346.9C347.175 87.2594 348.446 85.565 351.22 85.565C354.122 85.565 355.498 87.4288 355.498 89.7797V96.3877H352.321V90.8387C352.321 89.1444 351.623 88.4243 349.674 88.4243C347.662 88.4243 346.942 89.2291 346.942 91.0293V96.3877ZM359.139 99.9882H357.402V97.1078H360.007C360.791 97.1078 361.13 96.896 361.341 96.4301L356.152 85.7768H359.753L361.998 90.6269L362.887 93.1261H363.099L363.946 90.6057L365.958 85.7768H369.495L364.243 97.1502C363.226 99.374 361.807 99.9882 359.139 99.9882ZM379.183 96.5995C375.561 96.5995 373.125 94.4392 373.125 91.0929C373.125 87.7042 375.561 85.565 379.183 85.565C382.804 85.565 385.24 87.7042 385.24 91.0929C385.24 94.4392 382.804 96.5995 379.183 96.5995ZM379.183 93.7826C381.322 93.7826 382.084 92.9566 382.084 91.0929C382.084 89.2291 381.322 88.3607 379.183 88.3607C377.022 88.3607 376.281 89.2291 376.281 91.0929C376.281 92.9566 377.022 93.7826 379.183 93.7826ZM390.561 96.3877H387.385V88.4031H385.881V85.7768H387.448C387.787 83.6377 389.651 82.1975 392.912 82.1975H393.844V84.5061H392.404C391.006 84.5061 390.35 84.7391 390.434 85.7768H393.844V88.4031H390.561V96.3877ZM398.779 96.3877H395.581V88.4031H394.077V85.7768H395.644C395.983 83.6377 397.868 82.1975 401.109 82.1975H402.041V84.5061H400.6C399.203 84.5061 398.546 84.7391 398.652 85.7768H402.041V88.4031H398.779V96.3877ZM408.738 96.5995C405.201 96.5995 402.787 94.8628 402.787 91.0929C402.787 87.7042 405.18 85.565 408.675 85.565C412.148 85.565 414.457 87.3865 414.457 90.7116C414.457 91.0929 414.414 91.3682 414.372 91.7282H405.731C405.815 93.359 406.578 94.058 408.632 94.058C410.517 94.058 411.174 93.5708 411.174 92.6601V92.4483H414.351V92.6813C414.351 94.9899 412.106 96.5995 408.738 96.5995ZM408.611 88.043C406.726 88.043 405.921 88.6784 405.773 90.0551H411.407C411.322 88.6572 410.475 88.043 408.611 88.043ZM418.981 96.3877H415.804V85.7768H418.748V88.5937H418.938C419.235 86.8782 420.357 85.565 422.496 85.565C424.868 85.565 425.843 87.1959 425.843 89.2714V91.0293H422.666V89.928C422.666 88.7631 422.2 88.2548 420.908 88.2548C419.489 88.2548 418.981 88.9114 418.981 90.2457V96.3877ZM430.17 84.6967H426.993V82.1975H430.17V84.6967ZM430.17 96.3877H426.993V85.7768H430.17V96.3877ZM435.01 96.3877H431.833V85.7768H434.777V89.0385H434.968C435.243 87.2594 436.514 85.565 439.288 85.565C442.19 85.565 443.566 87.4288 443.566 89.7797V96.3877H440.389V90.8387C440.389 89.1444 439.691 88.4243 437.742 88.4243C435.73 88.4243 435.01 89.2291 435.01 91.0293V96.3877ZM449.833 95.3075C446.677 95.3075 444.856 93.4226 444.856 90.4363C444.856 87.4712 446.783 85.565 449.96 85.565C452.12 85.565 453.666 86.4969 454.005 88.3395H454.175V85.7768H457.14V94.8416C457.14 98.548 454.895 100.2 451.104 100.2C447.673 100.2 445.512 98.6751 445.512 96.0065H448.689C448.689 97.1925 449.155 97.5526 451.316 97.5526C453.349 97.5526 453.963 97.129 453.963 95.0534V92.6601H453.794C453.455 94.2274 452.205 95.3075 449.833 95.3075ZM448.054 90.4363C448.054 92.0036 448.943 92.5754 450.934 92.5754C452.968 92.5754 453.963 92.0036 453.963 90.5422V90.3092C453.963 88.869 452.946 88.3184 450.977 88.3184C448.943 88.3184 448.054 88.869 448.054 90.4363ZM38.7857 122.388H35.6088V114.403H34.105V111.777H35.6723C36.0112 109.638 37.875 108.198 41.1366 108.198H42.0685V110.506H40.6283C39.2304 110.506 38.5739 110.739 38.6586 111.777H42.0685V114.403H38.7857V122.388ZM46.3044 110.697H43.1274V108.198H46.3044V110.697ZM46.3044 122.388H43.1274V111.777H46.3044V122.388ZM51.1549 122.388H47.978V111.777H50.9219V115.038H51.1126C51.3879 113.259 52.6587 111.565 55.4331 111.565C58.3347 111.565 59.7114 113.429 59.7114 115.78V122.388H56.5345V116.839C56.5345 115.144 55.8356 114.424 53.8871 114.424C51.875 114.424 51.1549 115.229 51.1549 117.029V122.388ZM64.5801 122.599C62.2928 122.599 60.9161 121.541 60.9161 119.761C60.9161 118.194 62.081 117.22 64.3472 116.987L68.9007 116.521V116.119C68.9007 114.742 68.2865 114.361 66.5922 114.361C64.9826 114.361 64.326 114.784 64.326 115.992V116.076H61.1279V116.013C61.1279 113.386 63.3306 111.565 66.8252 111.565C70.3621 111.565 72.0353 113.386 72.0353 116.161V122.388H69.0702V119.952H68.9007C68.4136 121.604 66.9311 122.599 64.5801 122.599ZM64.1142 119.55C64.1142 120.122 64.559 120.354 65.4909 120.354C67.6511 120.354 68.816 119.846 68.9007 118.342L65.2155 118.766C64.4531 118.83 64.1142 119.041 64.1142 119.55ZM76.8225 122.388H73.6456V111.777H76.5895V115.038H76.7801C77.0554 113.259 78.3262 111.565 81.1007 111.565C84.0023 111.565 85.3789 113.429 85.3789 115.78V122.388H82.202V116.839C82.202 115.144 81.5031 114.424 79.5546 114.424C77.5426 114.424 76.8225 115.229 76.8225 117.029V122.388ZM92.641 122.599C88.9981 122.599 86.6684 120.439 86.6684 117.093C86.6684 113.704 88.9981 111.565 92.641 111.565C96.0508 111.565 98.3806 113.386 98.3806 116.14V116.436H95.2248V116.267C95.2248 114.911 94.2294 114.424 92.5774 114.424C90.6925 114.424 89.8241 115.123 89.8241 117.093C89.8241 119.041 90.6925 119.74 92.5774 119.74C94.2294 119.74 95.2248 119.253 95.2248 117.898V117.728H98.3806V118.025C98.3806 120.757 96.0508 122.599 92.641 122.599ZM102.924 110.697H99.7475V108.198H102.924V110.697ZM102.924 122.388H99.7475V111.777H102.924V122.388ZM107.849 122.599C105.562 122.599 104.185 121.541 104.185 119.761C104.185 118.194 105.35 117.22 107.616 116.987L112.169 116.521V116.119C112.169 114.742 111.555 114.361 109.861 114.361C108.251 114.361 107.595 114.784 107.595 115.992V116.076H104.397V116.013C104.397 113.386 106.599 111.565 110.094 111.565C113.631 111.565 115.304 113.386 115.304 116.161V122.388H112.339V119.952H112.169C111.682 121.604 110.2 122.599 107.849 122.599ZM107.383 119.55C107.383 120.122 107.828 120.354 108.76 120.354C110.92 120.354 112.085 119.846 112.169 118.342L108.484 118.766C107.722 118.83 107.383 119.041 107.383 119.55ZM120.091 122.388H116.914V108.198H120.091V122.388ZM132.498 122.388H129.872C127.394 122.388 125.89 121.223 125.89 118.554V114.403H124.217V111.777H125.89V109.722H129.067V111.777H132.498V114.403H129.067V118.194C129.067 119.253 129.47 119.528 130.592 119.528H132.498V122.388ZM139.343 122.599C135.721 122.599 133.286 120.439 133.286 117.093C133.286 113.704 135.721 111.565 139.343 111.565C142.965 111.565 145.4 113.704 145.4 117.093C145.4 120.439 142.965 122.599 139.343 122.599ZM139.343 119.783C141.482 119.783 142.245 118.957 142.245 117.093C142.245 115.229 141.482 114.361 139.343 114.361C137.183 114.361 136.442 115.229 136.442 117.093C136.442 118.957 137.183 119.783 139.343 119.783ZM152.353 122.599C148.731 122.599 146.295 120.439 146.295 117.093C146.295 113.704 148.731 111.565 152.353 111.565C155.974 111.565 158.41 113.704 158.41 117.093C158.41 120.439 155.974 122.599 152.353 122.599ZM152.353 119.783C154.492 119.783 155.254 118.957 155.254 117.093C155.254 115.229 154.492 114.361 152.353 114.361C150.192 114.361 149.451 115.229 149.451 117.093C149.451 118.957 150.192 119.783 152.353 119.783ZM162.884 122.388H159.707V108.198H162.884V122.388ZM169.906 122.599C166.326 122.599 164.357 121.202 164.357 118.745V118.681H167.533V118.872C167.533 119.825 168.126 120.079 169.927 120.079C171.621 120.079 172.023 119.804 172.023 119.168C172.023 118.575 171.706 118.406 170.456 118.237L167.47 117.876C165.352 117.644 164.166 116.69 164.166 114.911C164.166 113.048 165.754 111.565 169.397 111.565C172.871 111.565 174.84 112.878 174.84 115.462V115.526H171.663V115.399C171.663 114.53 171.24 114.085 169.291 114.085C167.703 114.085 167.3 114.361 167.3 115.038C167.3 115.589 167.597 115.822 168.995 115.992L171.261 116.267C174.099 116.585 175.158 117.538 175.158 119.296C175.158 121.286 173.188 122.599 169.906 122.599ZM182.969 122.599C180.682 122.599 179.305 121.541 179.305 119.761C179.305 118.194 180.47 117.22 182.736 116.987L187.29 116.521V116.119C187.29 114.742 186.676 114.361 184.981 114.361C183.372 114.361 182.715 114.784 182.715 115.992V116.076H179.517V116.013C179.517 113.386 181.72 111.565 185.214 111.565C188.751 111.565 190.425 113.386 190.425 116.161V122.388H187.459V119.952H187.29C186.803 121.604 185.32 122.599 182.969 122.599ZM182.503 119.55C182.503 120.122 182.948 120.354 183.88 120.354C186.04 120.354 187.205 119.846 187.29 118.342L183.605 118.766C182.842 118.83 182.503 119.041 182.503 119.55ZM195.212 122.388H192.035V111.777H194.979V115.038H195.169C195.445 113.259 196.715 111.565 199.49 111.565C202.392 111.565 203.768 113.429 203.768 115.78V122.388H200.591V116.839C200.591 115.144 199.892 114.424 197.944 114.424C195.932 114.424 195.212 115.229 195.212 117.029V122.388ZM210.119 122.599C206.816 122.599 204.994 120.439 204.994 117.093C204.994 113.704 206.794 111.565 209.95 111.565C212.47 111.565 213.762 112.815 214.122 114.594H214.313V108.198H217.49V122.388H214.525V119.444H214.355C213.953 121.541 212.555 122.599 210.119 122.599ZM208.213 117.093C208.213 119.02 209.166 119.698 211.2 119.698C213.212 119.698 214.313 118.999 214.313 117.156V116.987C214.313 115.144 213.233 114.467 211.2 114.467C209.166 114.467 208.213 115.144 208.213 117.093ZM227.797 122.599C224.218 122.599 222.248 121.202 222.248 118.745V118.681H225.425V118.872C225.425 119.825 226.018 120.079 227.818 120.079C229.513 120.079 229.915 119.804 229.915 119.168C229.915 118.575 229.597 118.406 228.348 118.237L225.362 117.876C223.244 117.644 222.058 116.69 222.058 114.911C222.058 113.048 223.646 111.565 227.289 111.565C230.762 111.565 232.732 112.878 232.732 115.462V115.526H229.555V115.399C229.555 114.53 229.131 114.085 227.183 114.085C225.594 114.085 225.192 114.361 225.192 115.038C225.192 115.589 225.489 115.822 226.886 115.992L229.153 116.267C231.991 116.585 233.05 117.538 233.05 119.296C233.05 121.286 231.08 122.599 227.797 122.599ZM236.365 125.988H234.628V123.108H237.233C238.017 123.108 238.356 122.896 238.567 122.43L233.378 111.777H236.979L239.224 116.627L240.113 119.126H240.325L241.172 116.606L243.184 111.777H246.721L241.469 123.15C240.452 125.374 239.033 125.988 236.365 125.988ZM252.844 122.599C249.265 122.599 247.295 121.202 247.295 118.745V118.681H250.472V118.872C250.472 119.825 251.065 120.079 252.865 120.079C254.56 120.079 254.962 119.804 254.962 119.168C254.962 118.575 254.644 118.406 253.395 118.237L250.409 117.876C248.291 117.644 247.105 116.69 247.105 114.911C247.105 113.048 248.693 111.565 252.336 111.565C255.809 111.565 257.779 112.878 257.779 115.462V115.526H254.602V115.399C254.602 114.53 254.178 114.085 252.23 114.085C250.642 114.085 250.239 114.361 250.239 115.038C250.239 115.589 250.536 115.822 251.933 115.992L254.2 116.267C257.038 116.585 258.097 117.538 258.097 119.296C258.097 121.286 256.127 122.599 252.844 122.599ZM266.855 122.388H264.229C261.751 122.388 260.247 121.223 260.247 118.554V114.403H258.574V111.777H260.247V109.722H263.424V111.777H266.855V114.403H263.424V118.194C263.424 119.253 263.826 119.528 264.949 119.528H266.855V122.388ZM273.678 122.599C270.141 122.599 267.727 120.863 267.727 117.093C267.727 113.704 270.12 111.565 273.615 111.565C277.088 111.565 279.397 113.386 279.397 116.712C279.397 117.093 279.354 117.368 279.312 117.728H270.671C270.756 119.359 271.518 120.058 273.572 120.058C275.457 120.058 276.114 119.571 276.114 118.66V118.448H279.291V118.681C279.291 120.99 277.046 122.599 273.678 122.599ZM273.551 114.043C271.666 114.043 270.862 114.678 270.713 116.055H276.347C276.262 114.657 275.415 114.043 273.551 114.043ZM283.921 122.388H280.744V111.777H283.688V114.996H283.857C284.112 113.217 285.17 111.565 287.839 111.565C290.296 111.565 291.545 113.069 291.778 115.038H291.969C292.223 113.238 293.303 111.565 296.036 111.565C298.768 111.565 300.102 113.365 300.102 115.78V122.388H296.925V116.839C296.925 115.081 296.311 114.424 294.489 114.424C292.562 114.424 292.011 115.187 292.011 117.029V122.388H288.835V116.839C288.835 115.081 288.22 114.424 286.399 114.424C284.472 114.424 283.921 115.187 283.921 117.029V122.388ZM307.075 122.599C303.496 122.599 301.526 121.202 301.526 118.745V118.681H304.703V118.872C304.703 119.825 305.296 120.079 307.096 120.079C308.79 120.079 309.193 119.804 309.193 119.168C309.193 118.575 308.875 118.406 307.626 118.237L304.639 117.876C302.521 117.644 301.335 116.69 301.335 114.911C301.335 113.048 302.924 111.565 306.567 111.565C310.04 111.565 312.01 112.878 312.01 115.462V115.526H308.833V115.399C308.833 114.53 308.409 114.085 306.461 114.085C304.872 114.085 304.47 114.361 304.47 115.038C304.47 115.589 304.766 115.822 306.164 115.992L308.43 116.267C311.268 116.585 312.327 117.538 312.327 119.296C312.327 121.286 310.358 122.599 307.075 122.599ZM324.353 122.388H321.727C319.249 122.388 317.745 121.223 317.745 118.554V114.403H316.072V111.777H317.745V109.722H320.922V111.777H324.353V114.403H320.922V118.194C320.922 119.253 321.325 119.528 322.447 119.528H324.353V122.388ZM331.198 122.599C327.577 122.599 325.141 120.439 325.141 117.093C325.141 113.704 327.577 111.565 331.198 111.565C334.82 111.565 337.255 113.704 337.255 117.093C337.255 120.439 334.82 122.599 331.198 122.599ZM331.198 119.783C333.337 119.783 334.1 118.957 334.1 117.093C334.1 115.229 333.337 114.361 331.198 114.361C329.038 114.361 328.297 115.229 328.297 117.093C328.297 118.957 329.038 119.783 331.198 119.783ZM344.765 122.388H341.821V108.198H344.998V114.594H345.167C345.527 112.815 346.819 111.565 349.339 111.565C352.516 111.565 354.295 113.704 354.295 117.093C354.295 120.439 352.495 122.599 349.191 122.599C346.734 122.599 345.337 121.541 344.955 119.444H344.765V122.388ZM344.998 117.156C344.998 118.999 346.078 119.698 348.09 119.698C350.144 119.698 351.076 119.02 351.076 117.093C351.076 115.144 350.144 114.467 348.111 114.467C346.057 114.467 344.998 115.144 344.998 116.987V117.156ZM360 122.599C357.014 122.599 355.595 120.757 355.595 118.385V111.777H358.772V117.326C358.772 119.041 359.492 119.761 361.504 119.761C363.58 119.761 364.321 118.957 364.321 117.156V111.777H367.498V122.388H364.533V119.147H364.363C364.088 120.926 362.796 122.599 360 122.599ZM374.481 122.599C370.901 122.599 368.932 121.202 368.932 118.745V118.681H372.109V118.872C372.109 119.825 372.702 120.079 374.502 120.079C376.196 120.079 376.599 119.804 376.599 119.168C376.599 118.575 376.281 118.406 375.031 118.237L372.045 117.876C369.927 117.644 368.741 116.69 368.741 114.911C368.741 113.048 370.33 111.565 373.972 111.565C377.446 111.565 379.415 112.878 379.415 115.462V115.526H376.239V115.399C376.239 114.53 375.815 114.085 373.866 114.085C372.278 114.085 371.876 114.361 371.876 115.038C371.876 115.589 372.172 115.822 373.57 115.992L375.836 116.267C378.674 116.585 379.733 117.538 379.733 119.296C379.733 121.286 377.763 122.599 374.481 122.599ZM384.192 110.697H381.015V108.198H384.192V110.697ZM384.192 122.388H381.015V111.777H384.192V122.388ZM389.032 122.388H385.855V111.777H388.799V115.038H388.989C389.265 113.259 390.535 111.565 393.31 111.565C396.212 111.565 397.588 113.429 397.588 115.78V122.388H394.411V116.839C394.411 115.144 393.712 114.424 391.764 114.424C389.752 114.424 389.032 115.229 389.032 117.029V122.388ZM404.829 122.599C401.292 122.599 398.878 120.863 398.878 117.093C398.878 113.704 401.271 111.565 404.765 111.565C408.239 111.565 410.547 113.386 410.547 116.712C410.547 117.093 410.505 117.368 410.463 117.728H401.822C401.906 119.359 402.669 120.058 404.723 120.058C406.608 120.058 407.265 119.571 407.265 118.66V118.448H410.442V118.681C410.442 120.99 408.197 122.599 404.829 122.599ZM404.702 114.043C402.817 114.043 402.012 114.678 401.864 116.055H407.498C407.413 114.657 406.566 114.043 404.702 114.043ZM417.253 122.599C413.674 122.599 411.704 121.202 411.704 118.745V118.681H414.881V118.872C414.881 119.825 415.474 120.079 417.274 120.079C418.969 120.079 419.371 119.804 419.371 119.168C419.371 118.575 419.053 118.406 417.804 118.237L414.817 117.876C412.699 117.644 411.513 116.69 411.513 114.911C411.513 113.048 413.102 111.565 416.745 111.565C420.218 111.565 422.188 112.878 422.188 115.462V115.526H419.011V115.399C419.011 114.53 418.587 114.085 416.639 114.085C415.05 114.085 414.648 114.361 414.648 115.038C414.648 115.589 414.944 115.822 416.342 115.992L418.608 116.267C421.447 116.585 422.505 117.538 422.505 119.296C422.505 121.286 420.536 122.599 417.253 122.599ZM429.146 122.599C425.566 122.599 423.597 121.202 423.597 118.745V118.681H426.774V118.872C426.774 119.825 427.367 120.079 429.167 120.079C430.861 120.079 431.264 119.804 431.264 119.168C431.264 118.575 430.946 118.406 429.696 118.237L426.71 117.876C424.592 117.644 423.406 116.69 423.406 114.911C423.406 113.048 424.995 111.565 428.637 111.565C432.111 111.565 434.08 112.878 434.08 115.462V115.526H430.904V115.399C430.904 114.53 430.48 114.085 428.532 114.085C426.943 114.085 426.541 114.361 426.541 115.038C426.541 115.589 426.837 115.822 428.235 115.992L430.501 116.267C433.339 116.585 434.398 117.538 434.398 119.296C434.398 121.286 432.429 122.599 429.146 122.599ZM441.314 122.599C437.777 122.599 435.362 120.863 435.362 117.093C435.362 113.704 437.756 111.565 441.25 111.565C444.724 111.565 447.032 113.386 447.032 116.712C447.032 117.093 446.99 117.368 446.947 117.728H438.306C438.391 119.359 439.153 120.058 441.208 120.058C443.093 120.058 443.749 119.571 443.749 118.66V118.448H446.926V118.681C446.926 120.99 444.681 122.599 441.314 122.599ZM441.187 114.043C439.302 114.043 438.497 114.678 438.349 116.055H443.982C443.898 114.657 443.05 114.043 441.187 114.043ZM453.738 122.599C450.158 122.599 448.189 121.202 448.189 118.745V118.681H451.366V118.872C451.366 119.825 451.959 120.079 453.759 120.079C455.453 120.079 455.856 119.804 455.856 119.168C455.856 118.575 455.538 118.406 454.288 118.237L451.302 117.876C449.184 117.644 447.998 116.69 447.998 114.911C447.998 113.048 449.587 111.565 453.229 111.565C456.703 111.565 458.673 112.878 458.673 115.462V115.526H455.496V115.399C455.496 114.53 455.072 114.085 453.124 114.085C451.535 114.085 451.133 114.361 451.133 115.038C451.133 115.589 451.429 115.822 452.827 115.992L455.093 116.267C457.931 116.585 458.99 117.538 458.99 119.296C458.99 121.286 457.021 122.599 453.738 122.599ZM38.0232 148.599C35.7359 148.599 34.3592 147.541 34.3592 145.761C34.3592 144.194 35.5241 143.22 37.7903 142.987L42.3438 142.521V142.119C42.3438 140.742 41.7296 140.361 40.0353 140.361C38.4256 140.361 37.7691 140.784 37.7691 141.992V142.076H34.571V142.013C34.571 139.386 36.7736 137.565 40.2682 137.565C43.8052 137.565 45.4784 139.386 45.4784 142.161V148.388H42.5132V145.952H42.3438C41.8567 147.604 40.3741 148.599 38.0232 148.599ZM37.5573 145.55C37.5573 146.122 38.002 146.354 38.9339 146.354C41.0942 146.354 42.2591 145.846 42.3438 144.342L38.6586 144.766C37.8962 144.83 37.5573 145.041 37.5573 145.55ZM50.2656 148.388H47.0886V137.777H50.0326V141.038H50.2232C50.4985 139.259 51.7693 137.565 54.5438 137.565C57.4454 137.565 58.822 139.429 58.822 141.78V148.388H55.6451V142.839C55.6451 141.144 54.9462 140.424 52.9977 140.424C50.9856 140.424 50.2656 141.229 50.2656 143.029V148.388ZM65.1733 148.599C61.8694 148.599 60.0479 146.439 60.0479 143.093C60.0479 139.704 61.8482 137.565 65.0039 137.565C67.5242 137.565 68.8162 138.815 69.1762 140.594H69.3668V134.198H72.5437V148.388H69.5786V145.444H69.4092C69.0068 147.541 67.609 148.599 65.1733 148.599ZM63.2672 143.093C63.2672 145.02 64.2203 145.698 66.2535 145.698C68.2655 145.698 69.3668 144.999 69.3668 143.156V142.987C69.3668 141.144 68.2867 140.467 66.2535 140.467C64.2203 140.467 63.2672 141.144 63.2672 143.093ZM80.6695 136.697H77.4926V134.198H80.6695V136.697ZM80.6695 148.388H77.4926V137.777H80.6695V148.388ZM85.5093 148.388H82.3324V137.777H85.2763V141.038H85.467C85.7423 139.259 87.013 137.565 89.7875 137.565C92.6891 137.565 94.0658 139.429 94.0658 141.78V148.388H90.8889V142.839C90.8889 141.144 90.1899 140.424 88.2414 140.424C86.2294 140.424 85.5093 141.229 85.5093 143.029V148.388ZM100.417 148.599C97.1131 148.599 95.2917 146.439 95.2917 143.093C95.2917 139.704 97.0919 137.565 100.248 137.565C102.768 137.565 104.06 138.815 104.42 140.594H104.611V134.198H107.788V148.388H104.822V145.444H104.653C104.251 147.541 102.853 148.599 100.417 148.599ZM98.5109 143.093C98.5109 145.02 99.464 145.698 101.497 145.698C103.509 145.698 104.611 144.999 104.611 143.156V142.987C104.611 141.144 103.53 140.467 101.497 140.467C99.464 140.467 98.5109 141.144 98.5109 143.093ZM112.645 136.697H109.468V134.198H112.645V136.697ZM112.645 148.388H109.468V137.777H112.645V148.388ZM122.208 148.388H118.29L113.461 137.777H116.998L120.175 145.296H120.387L123.585 137.777H127.058L122.208 148.388ZM131.074 136.697H127.897V134.198H131.074V136.697ZM131.074 148.388H127.897V137.777H131.074V148.388ZM137.481 148.599C134.177 148.599 132.356 146.439 132.356 143.093C132.356 139.704 134.156 137.565 137.312 137.565C139.832 137.565 141.124 138.815 141.484 140.594H141.674V134.198H144.851V148.388H141.886V145.444H141.717C141.314 147.541 139.917 148.599 137.481 148.599ZM135.575 143.093C135.575 145.02 136.528 145.698 138.561 145.698C140.573 145.698 141.674 144.999 141.674 143.156V142.987C141.674 141.144 140.594 140.467 138.561 140.467C136.528 140.467 135.575 141.144 135.575 143.093ZM150.916 148.599C147.93 148.599 146.511 146.757 146.511 144.385V137.777H149.688V143.326C149.688 145.041 150.408 145.761 152.42 145.761C154.496 145.761 155.237 144.957 155.237 143.156V137.777H158.414V148.388H155.449V145.147H155.279C155.004 146.926 153.712 148.599 150.916 148.599ZM163.3 148.599C161.013 148.599 159.636 147.541 159.636 145.761C159.636 144.194 160.801 143.22 163.067 142.987L167.62 142.521V142.119C167.62 140.742 167.006 140.361 165.312 140.361C163.702 140.361 163.046 140.784 163.046 141.992V142.076H159.848V142.013C159.848 139.386 162.05 137.565 165.545 137.565C169.082 137.565 170.755 139.386 170.755 142.161V148.388H167.79V145.952H167.62C167.133 147.604 165.651 148.599 163.3 148.599ZM162.834 145.55C162.834 146.122 163.279 146.354 164.211 146.354C166.371 146.354 167.536 145.846 167.62 144.342L163.935 144.766C163.173 144.83 162.834 145.041 162.834 145.55ZM175.542 148.388H172.365V134.198H175.542V148.388ZM182.564 148.599C178.984 148.599 177.015 147.202 177.015 144.745V144.681H180.191V144.872C180.191 145.825 180.784 146.079 182.585 146.079C184.279 146.079 184.681 145.804 184.681 145.168C184.681 144.575 184.364 144.406 183.114 144.237L180.128 143.876C178.01 143.644 176.824 142.69 176.824 140.911C176.824 139.048 178.412 137.565 182.055 137.565C185.529 137.565 187.498 138.878 187.498 141.462V141.526H184.321V141.399C184.321 140.53 183.898 140.085 181.949 140.085C180.361 140.085 179.958 140.361 179.958 141.038C179.958 141.589 180.255 141.822 181.653 141.992L183.919 142.267C186.757 142.585 187.816 143.538 187.816 145.296C187.816 147.286 185.846 148.599 182.564 148.599ZM195.543 136.697H192.366V134.198H195.543V136.697ZM195.543 148.388H192.366V137.777H195.543V148.388ZM200.382 148.388H197.206V137.777H200.149V141.038H200.34C200.615 139.259 201.886 137.565 204.661 137.565C207.562 137.565 208.939 139.429 208.939 141.78V148.388H205.762V142.839C205.762 141.144 205.063 140.424 203.115 140.424C201.103 140.424 200.382 141.229 200.382 143.029V148.388ZM216.991 148.388H213.814V134.198H217.203L222.286 140.911L224.234 143.898H224.467L224.319 141.038V134.198H227.496V148.388H224.107L218.876 141.61L217.076 138.942H216.864L216.991 141.547V148.388ZM232.358 136.697H229.181V134.198H232.358V136.697ZM232.358 148.388H229.181V137.777H232.358V148.388ZM238.681 147.308C235.525 147.308 233.704 145.423 233.704 142.436C233.704 139.471 235.631 137.565 238.808 137.565C240.968 137.565 242.514 138.497 242.853 140.34H243.022V137.777H245.988V146.842C245.988 150.548 243.743 152.2 239.951 152.2C236.52 152.2 234.36 150.675 234.36 148.006H237.537C237.537 149.193 238.003 149.553 240.163 149.553C242.196 149.553 242.811 149.129 242.811 147.053V144.66H242.641C242.302 146.227 241.053 147.308 238.681 147.308ZM236.902 142.436C236.902 144.004 237.791 144.575 239.782 144.575C241.815 144.575 242.811 144.004 242.811 142.542V142.309C242.811 140.869 241.794 140.318 239.824 140.318C237.791 140.318 236.902 140.869 236.902 142.436ZM253.306 148.599C249.769 148.599 247.354 146.863 247.354 143.093C247.354 139.704 249.748 137.565 253.242 137.565C256.716 137.565 259.024 139.386 259.024 142.712C259.024 143.093 258.982 143.368 258.939 143.728H250.298C250.383 145.359 251.145 146.058 253.2 146.058C255.085 146.058 255.741 145.571 255.741 144.66V144.448H258.918V144.681C258.918 146.99 256.673 148.599 253.306 148.599ZM253.179 140.043C251.294 140.043 250.489 140.678 250.341 142.055H255.974C255.89 140.657 255.042 140.043 253.179 140.043ZM263.548 148.388H260.371V137.777H263.315V140.594H263.506C263.802 138.878 264.925 137.565 267.064 137.565C269.436 137.565 270.41 139.196 270.41 141.271V143.029H267.233V141.928C267.233 140.763 266.767 140.255 265.476 140.255C264.057 140.255 263.548 140.911 263.548 142.246V148.388ZM274.738 136.697H271.561V134.198H274.738V136.697ZM274.738 148.388H271.561V137.777H274.738V148.388ZM279.662 148.599C277.375 148.599 275.998 147.541 275.998 145.761C275.998 144.194 277.163 143.22 279.429 142.987L283.983 142.521V142.119C283.983 140.742 283.369 140.361 281.674 140.361C280.065 140.361 279.408 140.784 279.408 141.992V142.076H276.21V142.013C276.21 139.386 278.413 137.565 281.907 137.565C285.444 137.565 287.117 139.386 287.117 142.161V148.388H284.152V145.952H283.983C283.496 147.604 282.013 148.599 279.662 148.599ZM279.196 145.55C279.196 146.122 279.641 146.354 280.573 146.354C282.733 146.354 283.898 145.846 283.983 144.342L280.298 144.766C279.535 144.83 279.196 145.041 279.196 145.55ZM292.603 148.388H288.516V144.681H292.603V148.388ZM304.808 148.388H300.085L296.738 134.198H300.296L302.012 142.246L302.499 145.359H302.732L303.389 142.246L305.761 134.198H310.484L312.835 142.246L313.491 145.359H313.724L314.211 142.246L315.927 134.198H319.4L316.033 148.388H311.31L309.192 141.293L308.196 137.205H307.963L306.968 141.293L304.808 148.388ZM326.13 148.599C322.593 148.599 320.179 146.863 320.179 143.093C320.179 139.704 322.572 137.565 326.067 137.565C329.54 137.565 331.849 139.386 331.849 142.712C331.849 143.093 331.806 143.368 331.764 143.728H323.123C323.208 145.359 323.97 146.058 326.024 146.058C327.909 146.058 328.566 145.571 328.566 144.66V144.448H331.743V144.681C331.743 146.99 329.498 148.599 326.13 148.599ZM326.003 140.043C324.118 140.043 323.314 140.678 323.165 142.055H328.799C328.714 140.657 327.867 140.043 326.003 140.043ZM339.726 148.599C337.438 148.599 336.061 147.541 336.061 145.761C336.061 144.194 337.226 143.22 339.493 142.987L344.046 142.521V142.119C344.046 140.742 343.432 140.361 341.738 140.361C340.128 140.361 339.471 140.784 339.471 141.992V142.076H336.273V142.013C336.273 139.386 338.476 137.565 341.971 137.565C345.507 137.565 347.181 139.386 347.181 142.161V148.388H344.216V145.952H344.046C343.559 147.604 342.076 148.599 339.726 148.599ZM339.26 145.55C339.26 146.122 339.704 146.354 340.636 146.354C342.797 146.354 343.961 145.846 344.046 144.342L340.361 144.766C339.598 144.83 339.26 145.041 339.26 145.55ZM351.968 148.388H348.791V137.777H351.735V140.594H351.925C352.222 138.878 353.344 137.565 355.484 137.565C357.856 137.565 358.83 139.196 358.83 141.271V143.029H355.653V141.928C355.653 140.763 355.187 140.255 353.895 140.255C352.476 140.255 351.968 140.911 351.968 142.246V148.388ZM365.614 148.599C362.077 148.599 359.663 146.863 359.663 143.093C359.663 139.704 362.056 137.565 365.551 137.565C369.024 137.565 371.333 139.386 371.333 142.712C371.333 143.093 371.29 143.368 371.248 143.728H362.607C362.691 145.359 363.454 146.058 365.508 146.058C367.393 146.058 368.05 145.571 368.05 144.66V144.448H371.227V144.681C371.227 146.99 368.982 148.599 365.614 148.599ZM365.487 140.043C363.602 140.043 362.797 140.678 362.649 142.055H368.283C368.198 140.657 367.351 140.043 365.487 140.043ZM37.9385 174.388H34.7616V163.777H37.7055V166.594H37.8962C38.1927 164.878 39.3152 163.565 41.4543 163.565C43.8264 163.565 44.8006 165.196 44.8006 167.271V169.029H41.6237V167.928C41.6237 166.763 41.1578 166.255 39.8658 166.255C38.4468 166.255 37.9385 166.911 37.9385 168.246V174.388ZM51.5848 174.599C48.0478 174.599 45.6334 172.863 45.6334 169.093C45.6334 165.704 48.0267 163.565 51.5213 163.565C54.9947 163.565 57.3032 165.386 57.3032 168.712C57.3032 169.093 57.2609 169.368 57.2185 169.728H48.5773C48.662 171.359 49.4245 172.058 51.4789 172.058C53.3639 172.058 54.0204 171.571 54.0204 170.66V170.448H57.1973V170.681C57.1973 172.99 54.9523 174.599 51.5848 174.599ZM51.4577 166.043C49.5728 166.043 48.7679 166.678 48.6197 168.055H54.2534C54.1687 166.657 53.3215 166.043 51.4577 166.043ZM63.3099 173.308C60.1542 173.308 58.3327 171.423 58.3327 168.436C58.3327 165.471 60.2601 163.565 63.437 163.565C65.5973 163.565 67.1433 164.497 67.4822 166.34H67.6516V163.777H70.6168V172.842C70.6168 176.548 68.3717 178.2 64.5806 178.2C61.1496 178.2 58.9893 176.675 58.9893 174.006H62.1662C62.1662 175.193 62.6321 175.553 64.7924 175.553C66.8257 175.553 67.4399 175.129 67.4399 173.053V170.66H67.2704C66.9315 172.227 65.682 173.308 63.3099 173.308ZM61.5308 168.436C61.5308 170.004 62.4203 170.575 64.4112 170.575C66.4444 170.575 67.4399 170.004 67.4399 168.542V168.309C67.4399 166.869 66.4232 166.318 64.4536 166.318C62.4203 166.318 61.5308 166.869 61.5308 168.436ZM75.4781 162.697H72.3012V160.198H75.4781V162.697ZM75.4781 174.388H72.3012V163.777H75.4781V174.388ZM82.4994 174.599C78.9201 174.599 76.9504 173.202 76.9504 170.745V170.681H80.1273V170.872C80.1273 171.825 80.7203 172.079 82.5205 172.079C84.2149 172.079 84.6173 171.804 84.6173 171.168C84.6173 170.575 84.2996 170.406 83.05 170.237L80.0637 169.876C77.9458 169.644 76.7598 168.69 76.7598 166.911C76.7598 165.048 78.3482 163.565 81.9911 163.565C85.4645 163.565 87.4341 164.878 87.4341 167.462V167.526H84.2572V167.399C84.2572 166.53 83.8337 166.085 81.8852 166.085C80.2967 166.085 79.8943 166.361 79.8943 167.038C79.8943 167.589 80.1908 167.822 81.5886 167.992L83.8548 168.267C86.6929 168.585 87.7518 169.538 87.7518 171.296C87.7518 173.286 85.7822 174.599 82.4994 174.599ZM96.51 174.388H93.8838C91.4058 174.388 89.902 173.223 89.902 170.554V166.403H88.2289V163.777H89.902V161.722H93.0789V163.777H96.51V166.403H93.0789V170.194C93.0789 171.253 93.4813 171.528 94.6039 171.528H96.51V174.388ZM103.334 174.599C99.7966 174.599 97.3822 172.863 97.3822 169.093C97.3822 165.704 99.7754 163.565 103.27 163.565C106.743 163.565 109.052 165.386 109.052 168.712C109.052 169.093 109.01 169.368 108.967 169.728H100.326C100.411 171.359 101.173 172.058 103.228 172.058C105.113 172.058 105.769 171.571 105.769 170.66V170.448H108.946V170.681C108.946 172.99 106.701 174.599 103.334 174.599ZM103.206 166.043C101.322 166.043 100.517 166.678 100.368 168.055H106.002C105.917 166.657 105.07 166.043 103.206 166.043ZM113.576 174.388H110.399V163.777H113.343V166.594H113.534C113.83 164.878 114.953 163.565 117.092 163.565C119.464 163.565 120.438 165.196 120.438 167.271V169.029H117.261V167.928C117.261 166.763 116.795 166.255 115.503 166.255C114.084 166.255 113.576 166.911 113.576 168.246V174.388ZM127.222 174.599C123.685 174.599 121.271 172.863 121.271 169.093C121.271 165.704 123.664 163.565 127.159 163.565C130.632 163.565 132.941 165.386 132.941 168.712C132.941 169.093 132.898 169.368 132.856 169.728H124.215C124.3 171.359 125.062 172.058 127.116 172.058C129.001 172.058 129.658 171.571 129.658 170.66V170.448H132.835V170.681C132.835 172.99 130.59 174.599 127.222 174.599ZM127.095 166.043C125.21 166.043 124.406 166.678 124.257 168.055H129.891C129.806 166.657 128.959 166.043 127.095 166.043ZM139.032 174.599C135.728 174.599 133.907 172.439 133.907 169.093C133.907 165.704 135.707 163.565 138.863 163.565C141.383 163.565 142.675 164.815 143.035 166.594H143.226V160.198H146.403V174.388H143.437V171.444H143.268C142.866 173.541 141.468 174.599 139.032 174.599ZM137.126 169.093C137.126 171.02 138.079 171.698 140.112 171.698C142.124 171.698 143.226 170.999 143.226 169.156V168.987C143.226 167.144 142.146 166.467 140.112 166.467C138.079 166.467 137.126 167.144 137.126 169.093ZM154.613 174.599C152.326 174.599 150.949 173.541 150.949 171.761C150.949 170.194 152.114 169.22 154.38 168.987L158.934 168.521V168.119C158.934 166.742 158.319 166.361 156.625 166.361C155.015 166.361 154.359 166.784 154.359 167.992V168.076H151.161V168.013C151.161 165.386 153.363 163.565 156.858 163.565C160.395 163.565 162.068 165.386 162.068 168.161V174.388H159.103V171.952H158.934C158.447 173.604 156.964 174.599 154.613 174.599ZM154.147 171.55C154.147 172.122 154.592 172.354 155.524 172.354C157.684 172.354 158.849 171.846 158.934 170.342L155.248 170.766C154.486 170.83 154.147 171.041 154.147 171.55ZM169.037 174.599C165.458 174.599 163.488 173.202 163.488 170.745V170.681H166.665V170.872C166.665 171.825 167.258 172.079 169.058 172.079C170.752 172.079 171.155 171.804 171.155 171.168C171.155 170.575 170.837 170.406 169.588 170.237L166.601 169.876C164.483 169.644 163.297 168.69 163.297 166.911C163.297 165.048 164.886 163.565 168.529 163.565C172.002 163.565 173.972 164.878 173.972 167.462V167.526H170.795V167.399C170.795 166.53 170.371 166.085 168.423 166.085C166.834 166.085 166.432 166.361 166.432 167.038C166.432 167.589 166.728 167.822 168.126 167.992L170.392 168.267C173.23 168.585 174.289 169.538 174.289 171.296C174.289 173.286 172.32 174.599 169.037 174.599ZM182.101 174.599C179.813 174.599 178.437 173.541 178.437 171.761C178.437 170.194 179.602 169.22 181.868 168.987L186.421 168.521V168.119C186.421 166.742 185.807 166.361 184.113 166.361C182.503 166.361 181.847 166.784 181.847 167.992V168.076H178.648V168.013C178.648 165.386 180.851 163.565 184.346 163.565C187.883 163.565 189.556 165.386 189.556 168.161V174.388H186.591V171.952H186.421C185.934 173.604 184.452 174.599 182.101 174.599ZM181.635 171.55C181.635 172.122 182.08 172.354 183.011 172.354C185.172 172.354 186.337 171.846 186.421 170.342L182.736 170.766C181.974 170.83 181.635 171.041 181.635 171.55ZM197.378 174.388H194.434V160.198H197.611V166.594H197.78C198.14 164.815 199.432 163.565 201.953 163.565C205.13 163.565 206.909 165.704 206.909 169.093C206.909 172.439 205.108 174.599 201.804 174.599C199.348 174.599 197.95 173.541 197.569 171.444H197.378V174.388ZM197.611 169.156C197.611 170.999 198.691 171.698 200.703 171.698C202.758 171.698 203.689 171.02 203.689 169.093C203.689 167.144 202.758 166.467 200.724 166.467C198.67 166.467 197.611 167.144 197.611 168.987V169.156ZM212.614 174.599C209.627 174.599 208.208 172.757 208.208 170.385V163.777H211.385V169.326C211.385 171.041 212.105 171.761 214.117 171.761C216.193 171.761 216.934 170.957 216.934 169.156V163.777H220.111V174.388H217.146V171.147H216.977C216.701 172.926 215.409 174.599 212.614 174.599ZM227.094 174.599C223.515 174.599 221.545 173.202 221.545 170.745V170.681H224.722V170.872C224.722 171.825 225.315 172.079 227.115 172.079C228.809 172.079 229.212 171.804 229.212 171.168C229.212 170.575 228.894 170.406 227.645 170.237L224.658 169.876C222.54 169.644 221.354 168.69 221.354 166.911C221.354 165.048 222.943 163.565 226.586 163.565C230.059 163.565 232.029 164.878 232.029 167.462V167.526H228.852V167.399C228.852 166.53 228.428 166.085 226.48 166.085C224.891 166.085 224.489 166.361 224.489 167.038C224.489 167.589 224.785 167.822 226.183 167.992L228.449 168.267C231.287 168.585 232.346 169.538 232.346 171.296C232.346 173.286 230.377 174.599 227.094 174.599ZM236.805 162.697H233.628V160.198H236.805V162.697ZM236.805 174.388H233.628V163.777H236.805V174.388ZM241.645 174.388H238.468V163.777H241.412V167.038H241.603C241.878 165.259 243.149 163.565 245.923 163.565C248.825 163.565 250.201 165.429 250.201 167.78V174.388H247.025V168.839C247.025 167.144 246.326 166.424 244.377 166.424C242.365 166.424 241.645 167.229 241.645 169.029V174.388ZM257.442 174.599C253.905 174.599 251.491 172.863 251.491 169.093C251.491 165.704 253.884 163.565 257.379 163.565C260.852 163.565 263.161 165.386 263.161 168.712C263.161 169.093 263.118 169.368 263.076 169.728H254.435C254.52 171.359 255.282 172.058 257.336 172.058C259.221 172.058 259.878 171.571 259.878 170.66V170.448H263.055V170.681C263.055 172.99 260.81 174.599 257.442 174.599ZM257.315 166.043C255.43 166.043 254.625 166.678 254.477 168.055H260.111C260.026 166.657 259.179 166.043 257.315 166.043ZM269.866 174.599C266.287 174.599 264.317 173.202 264.317 170.745V170.681H267.494V170.872C267.494 171.825 268.087 172.079 269.887 172.079C271.582 172.079 271.984 171.804 271.984 171.168C271.984 170.575 271.667 170.406 270.417 170.237L267.431 169.876C265.313 169.644 264.127 168.69 264.127 166.911C264.127 165.048 265.715 163.565 269.358 163.565C272.831 163.565 274.801 164.878 274.801 167.462V167.526H271.624V167.399C271.624 166.53 271.201 166.085 269.252 166.085C267.664 166.085 267.261 166.361 267.261 167.038C267.261 167.589 267.558 167.822 268.956 167.992L271.222 168.267C274.06 168.585 275.119 169.538 275.119 171.296C275.119 173.286 273.149 174.599 269.866 174.599ZM281.759 174.599C278.18 174.599 276.21 173.202 276.21 170.745V170.681H279.387V170.872C279.387 171.825 279.98 172.079 281.78 172.079C283.475 172.079 283.877 171.804 283.877 171.168C283.877 170.575 283.559 170.406 282.31 170.237L279.323 169.876C277.205 169.644 276.019 168.69 276.019 166.911C276.019 165.048 277.608 163.565 281.251 163.565C284.724 163.565 286.694 164.878 286.694 167.462V167.526H283.517V167.399C283.517 166.53 283.093 166.085 281.145 166.085C279.556 166.085 279.154 166.361 279.154 167.038C279.154 167.589 279.45 167.822 280.848 167.992L283.114 168.267C285.952 168.585 287.011 169.538 287.011 171.296C287.011 173.286 285.042 174.599 281.759 174.599ZM294.738 162.697H291.561V160.198H294.738V162.697ZM294.738 174.388H291.561V163.777H294.738V174.388ZM299.578 174.388H296.401V163.777H299.345V167.038H299.536C299.811 165.259 301.082 163.565 303.856 163.565C306.758 163.565 308.134 165.429 308.134 167.78V174.388H304.957V168.839C304.957 167.144 304.259 166.424 302.31 166.424C300.298 166.424 299.578 167.229 299.578 169.029V174.388ZM316.186 174.388H313.009V160.198H316.398L321.481 166.911L323.43 169.898H323.663L323.514 167.038V160.198H326.691V174.388H323.303L318.071 167.61L316.271 164.942H316.059L316.186 167.547V174.388ZM331.554 162.697H328.377V160.198H331.554V162.697ZM331.554 174.388H328.377V163.777H331.554V174.388ZM337.876 173.308C334.72 173.308 332.899 171.423 332.899 168.436C332.899 165.471 334.826 163.565 338.003 163.565C340.164 163.565 341.71 164.497 342.048 166.34H342.218V163.777H345.183V172.842C345.183 176.548 342.938 178.2 339.147 178.2C335.716 178.2 333.556 176.675 333.556 174.006H336.732C336.732 175.193 337.198 175.553 339.359 175.553C341.392 175.553 342.006 175.129 342.006 173.053V170.66H341.837C341.498 172.227 340.248 173.308 337.876 173.308ZM336.097 168.436C336.097 170.004 336.987 170.575 338.977 170.575C341.011 170.575 342.006 170.004 342.006 168.542V168.309C342.006 166.869 340.99 166.318 339.02 166.318C336.987 166.318 336.097 166.869 336.097 168.436ZM352.501 174.599C348.964 174.599 346.55 172.863 346.55 169.093C346.55 165.704 348.943 163.565 352.438 163.565C355.911 163.565 358.22 165.386 358.22 168.712C358.22 169.093 358.177 169.368 358.135 169.728H349.494C349.578 171.359 350.341 172.058 352.395 172.058C354.28 172.058 354.937 171.571 354.937 170.66V170.448H358.114V170.681C358.114 172.99 355.869 174.599 352.501 174.599ZM352.374 166.043C350.489 166.043 349.684 166.678 349.536 168.055H355.17C355.085 166.657 354.238 166.043 352.374 166.043ZM362.744 174.388H359.567V163.777H362.511V166.594H362.701C362.998 164.878 364.12 163.565 366.259 163.565C368.632 163.565 369.606 165.196 369.606 167.271V169.029H366.429V167.928C366.429 166.763 365.963 166.255 364.671 166.255C363.252 166.255 362.744 166.911 362.744 168.246V174.388ZM373.933 162.697H370.756V160.198H373.933V162.697ZM373.933 174.388H370.756V163.777H373.933V174.388ZM378.858 174.599C376.57 174.599 375.194 173.541 375.194 171.761C375.194 170.194 376.359 169.22 378.625 168.987L383.178 168.521V168.119C383.178 166.742 382.564 166.361 380.87 166.361C379.26 166.361 378.604 166.784 378.604 167.992V168.076H375.405V168.013C375.405 165.386 377.608 163.565 381.103 163.565C384.64 163.565 386.313 165.386 386.313 168.161V174.388H383.348V171.952H383.178C382.691 173.604 381.209 174.599 378.858 174.599ZM378.392 171.55C378.392 172.122 378.836 172.354 379.768 172.354C381.929 172.354 383.094 171.846 383.178 170.342L379.493 170.766C378.731 170.83 378.392 171.041 378.392 171.55ZM391.799 174.388H387.711V170.681H391.799V174.388Z" fill="black"/>
<path d="M41.0683 541.92H35.4205V516.693H41.0683V541.92ZM53.5506 542.296C47.1874 542.296 43.6858 539.811 43.6858 535.444V535.331H49.3336V535.67C49.3336 537.364 50.3878 537.816 53.5883 537.816C56.6005 537.816 57.3158 537.326 57.3158 536.197C57.3158 535.143 56.7511 534.841 54.5296 534.54L49.2206 533.9C45.4554 533.486 43.3469 531.791 43.3469 528.629C43.3469 525.315 46.1708 522.68 52.647 522.68C58.8219 522.68 62.3236 525.014 62.3236 529.608V529.721H56.6758V529.495C56.6758 527.951 55.9227 527.16 52.4587 527.16C49.6348 527.16 48.9194 527.65 48.9194 528.855C48.9194 529.834 49.4465 530.248 51.9316 530.549L55.9604 531.038C61.0058 531.603 62.8884 533.298 62.8884 536.423C62.8884 539.962 59.3867 542.296 53.5506 542.296ZM76.6246 541.92H70.9768V523.056H76.2105V528.779H76.5117C76.9635 525.617 78.8461 522.68 83.5903 522.68C87.9579 522.68 90.1794 525.353 90.5936 528.855H90.9325C91.3843 525.654 93.3046 522.68 98.1617 522.68C103.019 522.68 105.391 525.88 105.391 530.172V541.92H99.7431V532.055C99.7431 528.93 98.6512 527.763 95.4131 527.763C91.9867 527.763 91.0078 529.118 91.0078 532.394V541.92H85.3599V532.055C85.3599 528.93 84.268 527.763 81.0299 527.763C77.6036 527.763 76.6246 529.118 76.6246 532.394V541.92ZM111.876 548.321H108.788V543.2H113.42C114.813 543.2 115.415 542.824 115.792 541.995L106.567 523.056H112.968L116.959 531.679L118.54 536.121H118.917L120.423 531.641L124 523.056H130.288L120.95 543.275C119.143 547.229 116.62 548.321 111.876 548.321ZM143.104 548.321H137.456V523.056H142.69V528.215H143.067C143.744 524.6 146.154 522.68 150.597 522.68C156.395 522.68 159.634 526.52 159.634 532.507C159.634 538.494 156.471 542.296 150.785 542.296C146.418 542.296 144.008 540.15 143.368 536.837H143.104V548.321ZM143.104 532.77C143.104 536.009 145.062 537.138 148.601 537.138C152.216 537.138 153.91 535.933 153.91 532.507C153.91 529.043 152.216 527.876 148.639 527.876C144.987 527.876 143.104 529.118 143.104 532.469V532.77ZM169.776 542.296C164.467 542.296 161.944 539.021 161.944 534.804V523.056H167.592V532.921C167.592 535.971 168.872 537.251 172.449 537.251C176.139 537.251 177.457 535.82 177.457 532.62V523.056H183.105V541.92H177.833V536.159H177.532C177.043 539.322 174.746 542.296 169.776 542.296ZM191.64 541.92H185.992V523.056H191.226V528.064H191.565C192.092 525.014 194.088 522.68 197.891 522.68C202.108 522.68 203.84 525.579 203.84 529.269V532.394H198.192V530.436C198.192 528.365 197.363 527.461 195.067 527.461C192.544 527.461 191.64 528.629 191.64 531.001V541.92ZM215.411 542.296C209.048 542.296 205.546 539.811 205.546 535.444V535.331H211.194V535.67C211.194 537.364 212.248 537.816 215.448 537.816C218.461 537.816 219.176 537.326 219.176 536.197C219.176 535.143 218.611 534.841 216.39 534.54L211.081 533.9C207.316 533.486 205.207 531.791 205.207 528.629C205.207 525.315 208.031 522.68 214.507 522.68C220.682 522.68 224.184 525.014 224.184 529.608V529.721H218.536V529.495C218.536 527.951 217.783 527.16 214.319 527.16C211.495 527.16 210.78 527.65 210.78 528.855C210.78 529.834 211.307 530.248 213.792 530.549L217.821 531.038C222.866 531.603 224.749 533.298 224.749 536.423C224.749 539.962 221.247 542.296 215.411 542.296ZM237.043 542.296C230.755 542.296 226.463 539.209 226.463 532.507C226.463 526.483 230.717 522.68 236.93 522.68C243.105 522.68 247.209 525.918 247.209 531.829C247.209 532.507 247.134 532.996 247.058 533.636H231.696C231.847 536.536 233.202 537.778 236.855 537.778C240.206 537.778 241.373 536.912 241.373 535.293V534.917H247.021V535.331C247.021 539.435 243.03 542.296 237.043 542.296ZM236.817 527.085C233.466 527.085 232.035 528.215 231.772 530.662H241.787C241.636 528.177 240.13 527.085 236.817 527.085ZM261.212 542.296C257.146 542.296 254.698 540.414 254.698 537.251C254.698 534.465 256.769 532.733 260.798 532.319L268.893 531.49V530.775C268.893 528.327 267.801 527.65 264.789 527.65C261.927 527.65 260.76 528.403 260.76 530.549V530.7H255.075V530.587C255.075 525.918 258.991 522.68 265.203 522.68C271.491 522.68 274.466 525.918 274.466 530.85V541.92H269.194V537.59H268.893C268.027 540.527 265.391 542.296 261.212 542.296ZM260.384 536.875C260.384 537.891 261.174 538.305 262.831 538.305C266.672 538.305 268.742 537.402 268.893 534.728L262.342 535.481C260.986 535.594 260.384 535.971 260.384 536.875ZM40.6542 587.92H35.4205V562.693H41.0683V574.064H41.3696C42.0096 570.901 44.3064 568.68 48.787 568.68C54.4349 568.68 57.5976 572.483 57.5976 578.507C57.5976 584.456 54.3972 588.296 48.5235 588.296C44.1558 588.296 41.6708 586.414 40.993 582.686H40.6542V587.92ZM41.0683 578.62C41.0683 581.896 42.9886 583.138 46.5656 583.138C50.2178 583.138 51.8745 581.933 51.8745 578.507C51.8745 575.043 50.2178 573.838 46.6032 573.838C42.951 573.838 41.0683 575.043 41.0683 578.319V578.62ZM65.7443 588.296C61.6779 588.296 59.2305 586.414 59.2305 583.251C59.2305 580.465 61.3014 578.733 65.3302 578.319L73.4254 577.49V576.775C73.4254 574.327 72.3335 573.65 69.3213 573.65C66.4597 573.65 65.2925 574.403 65.2925 576.549V576.7H59.607V576.587C59.607 571.918 63.5229 568.68 69.7355 568.68C76.0234 568.68 78.9979 571.918 78.9979 576.85V587.92H73.7266V583.59H73.4254C72.5594 586.527 69.9237 588.296 65.7443 588.296ZM64.916 582.875C64.916 583.891 65.7067 584.305 67.3634 584.305C71.2039 584.305 73.2748 583.402 73.4254 580.728L66.8739 581.481C65.5184 581.594 64.916 581.971 64.916 582.875ZM87.5085 587.92H81.8607V569.056H87.0943V574.855H87.4332C87.9227 571.692 90.1818 568.68 95.1142 568.68C100.273 568.68 102.72 571.993 102.72 576.172V587.92H97.0721V578.055C97.0721 575.043 95.8296 573.763 92.3656 573.763C88.7887 573.763 87.5085 575.193 87.5085 578.394V587.92ZM111.225 587.92H105.577V562.693H111.225V576.059H115.517L120.337 569.056H127.039L120.148 578.168L126.926 587.92H120.261L115.555 581.105H111.225V587.92ZM140.046 579.599H134.398V578.281C134.398 575.532 136.318 574.252 138.652 573.349L141.288 572.294C143.095 571.579 143.961 571.014 143.961 569.734C143.961 568.454 143.208 567.475 138.841 567.475C134.247 567.475 132.854 568.68 132.854 571.089V572.558H127.282V571.541C127.282 566.646 130.633 562.316 139.255 562.316C146.672 562.316 149.609 565.555 149.609 569.546C149.609 573.461 146.936 575.043 144.451 576.022L141.665 577.114C140.272 577.679 140.046 578.206 140.046 579.147V579.599ZM140.497 587.92H134.021V581.783H140.497V587.92Z" fill="white"/>
<path d="M378.06 588.165H375.942V581.331H373.514V579.877H373.909C374.954 579.877 375.66 579.637 376.126 578.705H378.06V588.165ZM383.709 588.306C380.659 588.306 378.979 586.386 378.979 583.435C378.979 580.498 380.659 578.564 383.709 578.564C386.745 578.564 388.439 580.498 388.439 583.435C388.439 586.386 386.745 588.306 383.709 588.306ZM383.709 586.245C385.502 586.245 386.166 585.468 386.166 583.435C386.166 581.402 385.502 580.625 383.709 580.625C381.902 580.625 381.252 581.402 381.252 583.435C381.252 585.468 381.902 586.245 383.709 586.245ZM390.751 588.447H388.492L393.575 578.423H395.834L390.751 588.447ZM399.824 588.165H397.382C397.382 583.915 399.81 582.037 401.589 580.766V580.611H395.617V578.705H403.792V580.413C401.166 582.898 399.824 584.607 399.824 588.165ZM405.794 588.447H403.535L408.618 578.423H410.877L405.794 588.447ZM419.245 588.165H410.844V586.81C410.844 585.143 411.564 584.282 413.555 583.619L415.983 582.828C416.83 582.531 417.141 582.249 417.141 581.628C417.141 580.908 416.746 580.498 415.193 580.498C413.456 580.498 412.933 581.021 412.933 582.065V582.249H410.858V582.065C410.858 580.23 412.114 578.564 415.263 578.564C418.115 578.564 419.273 579.863 419.273 581.656C419.273 583.336 418.172 584.169 416.492 584.635L414.43 585.2C413.512 585.482 413.075 585.751 413.075 586.499L415.546 586.259H419.245V588.165ZM424.689 588.306C421.639 588.306 419.959 586.386 419.959 583.435C419.959 580.498 421.639 578.564 424.689 578.564C427.724 578.564 429.419 580.498 429.419 583.435C429.419 586.386 427.724 588.306 424.689 588.306ZM424.689 586.245C426.482 586.245 427.146 585.468 427.146 583.435C427.146 581.402 426.482 580.625 424.689 580.625C422.881 580.625 422.232 581.402 422.232 583.435C422.232 585.468 422.881 586.245 424.689 586.245ZM438.48 588.165H430.079V586.81C430.079 585.143 430.799 584.282 432.79 583.619L435.218 582.828C436.066 582.531 436.376 582.249 436.376 581.628C436.376 580.908 435.981 580.498 434.428 580.498C432.691 580.498 432.169 581.021 432.169 582.065V582.249H430.093V582.065C430.093 580.23 431.35 578.564 434.498 578.564C437.35 578.564 438.508 579.863 438.508 581.656C438.508 583.336 437.407 584.169 435.727 584.635L433.665 585.2C432.747 585.482 432.31 585.751 432.31 586.499L434.781 586.259H438.48V588.165ZM447.171 588.165H445.053V586.358H439.053V584.918L444.715 578.705H447.171V584.452H448.612V586.358H447.171V588.165ZM442.004 584.452H445.053V581.148H444.898L442.004 584.296V584.452Z" fill="white"/>
<path d="M464.04 482.181C499.71 493.046 537.434 472.938 548.299 437.269C559.164 401.599 539.056 363.875 503.386 353.01C467.717 342.145 429.993 362.253 419.128 397.922C408.263 433.592 428.37 471.316 464.04 482.181Z" stroke="black" stroke-width="14.4573" stroke-miterlimit="10"/>
<path d="M573.135 493.172C614.375 493.266 647.906 449.911 648.028 396.335C648.151 342.759 614.818 299.251 573.578 299.156C532.339 299.062 498.808 342.417 498.685 395.993C498.563 449.569 531.895 493.078 573.135 493.172Z" stroke="black" stroke-width="14.4573" stroke-miterlimit="10"/>
<path d="M617.958 357.984C659.198 358.079 692.729 314.723 692.852 261.147C692.974 207.571 659.642 164.063 618.402 163.969C577.162 163.874 543.631 207.23 543.509 260.806C543.386 314.382 576.718 357.89 617.958 357.984Z" stroke="black" stroke-width="14.4573" stroke-miterlimit="10"/>
<path d="M37.9385 403.374L34.7616 403.374L34.7616 389.184L39.061 389.184L42.3862 396.173L43.7205 399.498L43.9534 399.498L45.2454 396.173L48.4646 389.184L52.7852 389.184L52.7852 403.374L49.6083 403.374L49.6083 396.173L49.7142 393.949L49.4813 393.949L48.6553 396.173L45.6902 402.527L41.8355 402.527L38.8704 396.173L38.0444 393.949L37.8114 393.949L37.9385 396.173L37.9385 403.374ZM56.485 406.975L54.7483 406.975L54.7483 404.094L57.3534 404.094C58.137 404.094 58.4759 403.882 58.6877 403.416L53.4987 392.763L57.0992 392.763L59.3442 397.613L60.2337 400.112L60.4455 400.112L61.2927 397.592L63.3048 392.763L66.8417 392.763L61.5892 404.136C60.5726 406.36 59.1536 406.975 56.485 406.975ZM74.051 406.975L70.874 406.975L70.874 392.763L73.818 392.763L73.818 395.665L74.0298 395.665C74.411 393.632 75.7665 392.551 78.2656 392.551C81.5273 392.551 83.3487 394.712 83.3487 398.079C83.3487 401.447 81.5696 403.586 78.3715 403.586C75.9147 403.586 74.5593 402.379 74.1992 400.515L74.051 400.515L74.051 406.975ZM74.051 398.227C74.051 400.049 75.1523 400.684 77.1431 400.684C79.1764 400.684 80.1294 400.007 80.1294 398.079C80.1294 396.131 79.1764 395.474 77.1643 395.474C75.1099 395.474 74.051 396.173 74.051 398.058L74.051 398.227ZM89.0537 403.586C86.0674 403.586 84.6484 401.743 84.6484 399.371L84.6484 392.763L87.8253 392.763L87.8253 398.312C87.8253 400.028 88.5454 400.748 90.5574 400.748C92.633 400.748 93.3743 399.943 93.3743 398.143L93.3743 392.763L96.5512 392.763L96.5512 403.374L93.5861 403.374L93.5861 400.134L93.4167 400.134C93.1413 401.913 91.8494 403.586 89.0537 403.586ZM101.352 403.374L98.1756 403.374L98.1756 392.763L101.119 392.763L101.119 395.58L101.31 395.58C101.607 393.864 102.729 392.551 104.868 392.551C107.24 392.551 108.215 394.182 108.215 396.258L108.215 398.016L105.038 398.016L105.038 396.914C105.038 395.749 104.572 395.241 103.28 395.241C101.861 395.241 101.352 395.898 101.352 397.232L101.352 403.374ZM114.723 403.586C111.144 403.586 109.174 402.188 109.174 399.731L109.174 399.668L112.351 399.668L112.351 399.858C112.351 400.811 112.944 401.065 114.745 401.065C116.439 401.065 116.841 400.79 116.841 400.155C116.841 399.562 116.524 399.392 115.274 399.223L112.288 398.863C110.17 398.63 108.984 397.677 108.984 395.898C108.984 394.034 110.572 392.551 114.215 392.551C117.689 392.551 119.658 393.864 119.658 396.448L119.658 396.512L116.481 396.512L116.481 396.385C116.481 395.516 116.058 395.072 114.109 395.072C112.521 395.072 112.118 395.347 112.118 396.025C112.118 396.575 112.415 396.808 113.813 396.978L116.079 397.253C118.917 397.571 119.976 398.524 119.976 400.282C119.976 402.273 118.006 403.586 114.723 403.586ZM126.891 403.586C123.354 403.586 120.94 401.849 120.94 398.079C120.94 394.69 123.333 392.551 126.828 392.551C130.301 392.551 132.61 394.373 132.61 397.698C132.61 398.079 132.568 398.355 132.525 398.715L123.884 398.715C123.969 400.345 124.731 401.044 126.786 401.044C128.671 401.044 129.327 400.557 129.327 399.646L129.327 399.435L132.504 399.435L132.504 399.668C132.504 401.976 130.259 403.586 126.891 403.586ZM126.764 395.029C124.879 395.029 124.075 395.665 123.926 397.041L129.56 397.041C129.475 395.644 128.628 395.029 126.764 395.029ZM140.402 403.374L137.225 403.374L137.225 389.184L140.402 389.184L140.402 394.818L147.815 394.818L147.815 389.184L150.992 389.184L150.992 403.374L147.815 403.374L147.815 397.677L140.402 397.677L140.402 403.374ZM165.7 406.36L161.57 406.36L159.367 403.565C155.026 403.31 152.378 400.494 152.378 396.279C152.378 391.852 155.301 388.972 160.003 388.972C164.81 388.972 167.712 391.852 167.712 396.279C167.712 399.731 165.954 402.252 162.883 403.183L165.7 406.36ZM160.003 400.536C163.116 400.536 164.323 399.435 164.323 396.279C164.323 393.123 163.116 392.022 160.003 392.022C156.889 392.022 155.746 393.123 155.746 396.279C155.746 399.435 156.889 400.536 160.003 400.536Z" fill="black"/>
<path d="M477.833 588.165L475.715 588.165L475.715 581.091L477.678 581.091L477.678 583.237L477.791 583.237C477.96 582.051 478.666 580.95 480.446 580.95C482.083 580.95 482.916 581.952 483.072 583.266L483.199 583.266C483.368 582.065 484.088 580.95 485.91 580.95C487.731 580.95 488.621 582.15 488.621 583.76L488.621 588.165L486.503 588.165L486.503 584.466C486.503 583.294 486.093 582.856 484.879 582.856C483.594 582.856 483.227 583.364 483.227 584.593L483.227 588.165L481.109 588.165L481.109 584.466C481.109 583.294 480.7 582.856 479.485 582.856C478.201 582.856 477.833 583.364 477.833 584.593L477.833 588.165ZM491.053 590.565L489.895 590.565L489.895 588.645L491.632 588.645C492.154 588.645 492.38 588.504 492.521 588.193L489.062 581.091L491.462 581.091L492.959 584.325L493.552 585.991L493.693 585.991L494.258 584.31L495.599 581.091L497.957 581.091L494.455 588.673C493.778 590.156 492.832 590.565 491.053 590.565ZM500.585 590.565L498.467 590.565L498.467 581.091L500.429 581.091L500.429 583.026L500.571 583.026C500.825 581.67 501.728 580.95 503.394 580.95C505.569 580.95 506.783 582.39 506.783 584.635C506.783 586.88 505.597 588.306 503.465 588.306C501.827 588.306 500.924 587.501 500.684 586.259L500.585 586.259L500.585 590.565ZM500.585 584.734C500.585 585.948 501.319 586.372 502.646 586.372C504.002 586.372 504.637 585.92 504.637 584.635C504.637 583.336 504.002 582.898 502.66 582.898C501.291 582.898 500.585 583.364 500.585 584.621L500.585 584.734ZM510.587 588.306C508.596 588.306 507.65 587.078 507.65 585.496L507.65 581.091L509.768 581.091L509.768 584.79C509.768 585.934 510.248 586.414 511.589 586.414C512.973 586.414 513.467 585.878 513.467 584.678L513.467 581.091L515.585 581.091L515.585 588.165L513.608 588.165L513.608 586.005L513.495 586.005C513.312 587.191 512.45 588.306 510.587 588.306ZM518.786 588.165L516.668 588.165L516.668 581.091L518.63 581.091L518.63 582.969L518.757 582.969C518.955 581.825 519.703 580.95 521.13 580.95C522.711 580.95 523.36 582.037 523.36 583.421L523.36 584.593L521.242 584.593L521.242 583.859C521.242 583.082 520.932 582.743 520.071 582.743C519.125 582.743 518.786 583.181 518.786 584.07L518.786 588.165ZM527.7 588.306C525.313 588.306 524 587.374 524 585.736L524 585.694L526.118 585.694L526.118 585.821C526.118 586.457 526.514 586.626 527.714 586.626C528.843 586.626 529.112 586.442 529.112 586.019C529.112 585.624 528.9 585.511 528.067 585.398L526.076 585.158C524.664 585.002 523.873 584.367 523.873 583.181C523.873 581.938 524.932 580.95 527.361 580.95C529.676 580.95 530.989 581.825 530.989 583.548L530.989 583.59L528.872 583.59L528.872 583.506C528.872 582.927 528.589 582.63 527.29 582.63C526.231 582.63 525.963 582.814 525.963 583.266C525.963 583.633 526.161 583.788 527.092 583.901L528.603 584.084C530.495 584.296 531.201 584.932 531.201 586.104C531.201 587.431 529.888 588.306 527.7 588.306ZM535.812 588.306C533.454 588.306 531.844 587.148 531.844 584.635C531.844 582.376 533.44 580.95 535.769 580.95C538.085 580.95 539.624 582.164 539.624 584.381C539.624 584.635 539.596 584.819 539.567 585.059L533.807 585.059C533.863 586.146 534.371 586.612 535.741 586.612C536.998 586.612 537.435 586.287 537.435 585.68L537.435 585.539L539.553 585.539L539.553 585.694C539.553 587.233 538.057 588.306 535.812 588.306ZM535.727 582.602C534.47 582.602 533.934 583.026 533.835 583.943L537.591 583.943C537.534 583.011 536.969 582.602 535.727 582.602ZM542.64 590.565L540.522 590.565L540.522 581.091L542.485 581.091L542.485 583.026L542.626 583.026C542.88 581.67 543.784 580.95 545.45 580.95C547.624 580.95 548.838 582.39 548.838 584.635C548.838 586.88 547.652 588.306 545.52 588.306C543.883 588.306 542.979 587.501 542.739 586.259L542.64 586.259L542.64 590.565ZM542.64 584.734C542.64 585.948 543.374 586.372 544.701 586.372C546.057 586.372 546.692 585.92 546.692 584.635C546.692 583.336 546.057 582.898 544.716 582.898C543.346 582.898 542.64 583.364 542.64 584.621L542.64 584.734ZM551.894 588.306C550.369 588.306 549.451 587.6 549.451 586.414C549.451 585.369 550.227 584.72 551.738 584.565L554.774 584.254L554.774 583.986C554.774 583.068 554.364 582.814 553.235 582.814C552.162 582.814 551.724 583.096 551.724 583.901L551.724 583.957L549.592 583.957L549.592 583.915C549.592 582.164 551.06 580.95 553.39 580.95C555.748 580.95 556.864 582.164 556.864 584.014L556.864 588.165L554.887 588.165L554.887 586.541L554.774 586.541C554.449 587.643 553.461 588.306 551.894 588.306ZM551.583 586.273C551.583 586.654 551.879 586.81 552.501 586.81C553.941 586.81 554.717 586.471 554.774 585.468L552.317 585.751C551.809 585.793 551.583 585.934 551.583 586.273ZM559.293 590.565L558.135 590.565L558.135 588.645L559.872 588.645C560.394 588.645 560.62 588.504 560.761 588.193L557.302 581.091L559.702 581.091L561.199 584.325L561.792 585.991L561.933 585.991L562.498 584.31L563.839 581.091L566.197 581.091L562.695 588.673C562.018 590.156 561.072 590.565 559.293 590.565ZM569.291 588.165L566.565 588.165L566.565 585.694L569.291 585.694L569.291 588.165ZM574.048 588.306C571.619 588.306 570.066 586.866 570.066 584.635C570.066 582.376 571.619 580.95 574.048 580.95C576.321 580.95 577.874 582.164 577.874 584L577.874 584.197L575.77 584.197L575.77 584.084C575.77 583.181 575.107 582.856 574.006 582.856C572.749 582.856 572.17 583.322 572.17 584.635C572.17 585.934 572.749 586.4 574.006 586.4C575.107 586.4 575.77 586.075 575.77 585.172L575.77 585.059L577.874 585.059L577.874 585.256C577.874 587.078 576.321 588.306 574.048 588.306ZM582.555 588.306C580.141 588.306 578.517 586.866 578.517 584.635C578.517 582.376 580.141 580.95 582.555 580.95C584.97 580.95 586.594 582.376 586.594 584.635C586.594 586.866 584.97 588.306 582.555 588.306ZM582.555 586.428C583.982 586.428 584.49 585.878 584.49 584.635C584.49 583.393 583.982 582.814 582.555 582.814C581.115 582.814 580.621 583.393 580.621 584.635C580.621 585.878 581.115 586.428 582.555 586.428ZM589.577 588.165L587.459 588.165L587.459 581.091L589.421 581.091L589.421 583.237L589.534 583.237C589.704 582.051 590.41 580.95 592.189 580.95C593.827 580.95 594.66 581.952 594.815 583.266L594.942 583.266C595.111 582.065 595.831 580.95 597.653 580.95C599.474 580.95 600.364 582.15 600.364 583.76L600.364 588.165L598.246 588.165L598.246 584.466C598.246 583.294 597.836 582.856 596.622 582.856C595.337 582.856 594.97 583.364 594.97 584.593L594.97 588.165L592.852 588.165L592.852 584.466C592.852 583.294 592.443 582.856 591.229 582.856C589.944 582.856 589.577 583.364 589.577 584.593L589.577 588.165Z" fill="white"/>
</g>
<defs>
<clipPath id="clip0_701_712">
<rect width="635.38" height="635.38" fill="white" transform="translate(0.380432 0.380859)"/>
</clipPath>
</defs>
</svg>
