<svg width="1512" height="1669" viewBox="0 0 1512 1669" fill="none" xmlns="http://www.w3.org/2000/svg">
<rect y="735" width="183.75" height="1512" transform="rotate(-90 0 735)" fill="#98F500"/>
<rect y="551.25" width="183.75" height="1512" transform="rotate(-90 0 551.25)" fill="#FF645C"/>
<rect y="367.5" width="183.75" height="1512" transform="rotate(-90 0 367.5)" fill="#5FFFC5"/>
<rect y="183.75" width="183.75" height="1512" transform="rotate(-90 0 183.75)" fill="#FF0ACB"/>
<rect y="957" width="55.5" height="1512" transform="rotate(-90 0 957)" fill="#98F500"/>
<rect y="901.5" width="55.5" height="1512" transform="rotate(-90 0 901.5)" fill="#FF645C"/>
<rect y="846" width="55.5" height="1512" transform="rotate(-90 0 846)" fill="#5FFFC5"/>
<rect y="790.5" width="55.5" height="1512" transform="rotate(-90 0 790.5)" fill="#FF0ACB"/>
<rect y="1059" width="25.5" height="1512" transform="rotate(-90 0 1059)" fill="#98F500"/>
<rect y="1033.5" width="25.5" height="1512" transform="rotate(-90 0 1033.5)" fill="#FF645C"/>
<rect y="1008" width="25.5" height="1512" transform="rotate(-90 0 1008)" fill="#5FFFC5"/>
<rect y="982.5" width="25.5" height="1512" transform="rotate(-90 0 982.5)" fill="#FF0ACB"/>
<rect y="1669" width="152.5" height="1512" transform="rotate(-90 0 1669)" fill="#98F500"/>
<rect y="1516.5" width="152.5" height="1512" transform="rotate(-90 0 1516.5)" fill="#FF645C"/>
<rect y="1364" width="152.5" height="1512" transform="rotate(-90 0 1364)" fill="#5FFFC5"/>
<rect y="1211.5" width="152.5" height="1512" transform="rotate(-90 0 1211.5)" fill="#FF0ACB"/>
</svg>
