<svg width="636" height="636" viewBox="0 0 636 636" fill="none" xmlns="http://www.w3.org/2000/svg">
<g clip-path="url(#clip0_701_701)">
<rect width="635.38" height="635.38" transform="translate(0 0.380859)" fill="#98F500"/>
<rect y="423.968" width="635.38" height="211.793" fill="black"/>
<path d="M41.688 70.5995C36.9862 70.5995 34.0634 67.7191 34.0634 63.2926C34.0634 58.8661 36.9862 55.9857 41.688 55.9857C46.4957 55.9857 49.3973 58.8661 49.3973 63.2926C49.3973 67.7191 46.4957 70.5995 41.688 70.5995ZM41.688 67.5497C44.8013 67.5497 46.0086 66.4483 46.0086 63.2926C46.0086 60.1369 44.8013 59.0356 41.688 59.0356C38.5746 59.0356 37.4309 60.1369 37.4309 63.2926C37.4309 66.4483 38.5746 67.5497 41.688 67.5497ZM58.6826 70.3877H54.7644L49.9355 59.7768H53.4725L56.6494 67.2955H56.8612L60.0592 59.7768H63.5327L58.6826 70.3877ZM70.0051 70.5995C66.4682 70.5995 64.0537 68.8628 64.0537 65.0929C64.0537 61.7042 66.447 59.565 69.9416 59.565C73.415 59.565 75.7235 61.3865 75.7235 64.7116C75.7235 65.0929 75.6812 65.3682 75.6388 65.7282H66.9976C67.0824 67.359 67.8448 68.058 69.8992 68.058C71.7842 68.058 72.4407 67.5708 72.4407 66.6601V66.4483H75.6176V66.6813C75.6176 68.9899 73.3726 70.5995 70.0051 70.5995ZM69.878 62.043C67.9931 62.043 67.1883 62.6784 67.04 64.0551H72.6737C72.589 62.6572 71.7418 62.043 69.878 62.043ZM80.2476 70.3877H77.0707V59.7768H80.0147V62.5937H80.2053C80.5018 60.8782 81.6243 59.565 83.7634 59.565C86.1355 59.565 87.1097 61.1959 87.1097 63.2714V65.0293H83.9328V63.928C83.9328 62.7631 83.4669 62.2548 82.175 62.2548C80.7559 62.2548 80.2476 62.9114 80.2476 64.2457V70.3877ZM93.0044 70.5995C89.7004 70.5995 87.879 68.4392 87.879 65.0929C87.879 61.7042 89.6792 59.565 92.835 59.565C95.3553 59.565 96.6472 60.8146 97.0073 62.5937H97.1979V56.1975H100.375V70.3877H97.4097V67.4438H97.2403C96.8379 69.5405 95.44 70.5995 93.0044 70.5995ZM91.0982 65.0929C91.0982 67.0202 92.0513 67.6979 94.0845 67.6979C96.0966 67.6979 97.1979 66.999 97.1979 65.1564V64.987C97.1979 63.1444 96.1178 62.4666 94.0845 62.4666C92.0513 62.4666 91.0982 63.1444 91.0982 65.0929ZM105.233 70.3877H102.056V59.7768H105V62.5937H105.19C105.487 60.8782 106.609 59.565 108.748 59.565C111.121 59.565 112.095 61.1959 112.095 63.2714V65.0293H108.918V63.928C108.918 62.7631 108.452 62.2548 107.16 62.2548C105.741 62.2548 105.233 62.9114 105.233 64.2457V70.3877ZM116.507 70.5995C114.219 70.5995 112.843 69.5405 112.843 67.7615C112.843 66.1942 114.008 65.2199 116.274 64.987L120.827 64.521V64.1186C120.827 62.742 120.213 62.3607 118.519 62.3607C116.909 62.3607 116.253 62.7843 116.253 63.9915V64.0762H113.055V64.0127C113.055 61.3865 115.257 59.565 118.752 59.565C122.289 59.565 123.962 61.3865 123.962 64.161V70.3877H120.997V67.9521H120.827C120.34 69.6041 118.858 70.5995 116.507 70.5995ZM116.041 67.5497C116.041 68.1215 116.486 68.3545 117.418 68.3545C119.578 68.3545 120.743 67.8462 120.827 66.3424L117.142 66.766C116.38 66.8296 116.041 67.0414 116.041 67.5497ZM129.596 70.3877H126.419V62.4031H124.916V59.7768H126.483C126.822 57.6377 128.686 56.1975 131.947 56.1975H132.879V58.5061H131.439C130.041 58.5061 129.385 58.7391 129.469 59.7768H133.938V57.7224H137.115V59.7768H140.525V62.4031H137.115V66.1942C137.115 67.2532 137.517 67.5285 138.619 67.5285H140.525V70.3877H137.92C135.442 70.3877 133.938 69.2228 133.938 66.5542V62.4031H129.596V70.3877ZM147.084 70.5995C143.505 70.5995 141.535 69.2017 141.535 66.7448V66.6813H144.712V66.8719C144.712 67.825 145.305 68.0791 147.105 68.0791C148.8 68.0791 149.202 67.8038 149.202 67.1684C149.202 66.5754 148.884 66.406 147.635 66.2365L144.648 65.8765C142.53 65.6435 141.344 64.6905 141.344 62.9114C141.344 61.0476 142.933 59.565 146.576 59.565C150.049 59.565 152.019 60.8782 152.019 63.462V63.5256H148.842V63.3985C148.842 62.5302 148.418 62.0854 146.47 62.0854C144.881 62.0854 144.479 62.3607 144.479 63.0385C144.479 63.5891 144.775 63.8221 146.173 63.9915L148.44 64.2669C151.278 64.5846 152.337 65.5376 152.337 67.2955C152.337 69.2864 150.367 70.5995 147.084 70.5995ZM160.148 70.5995C157.861 70.5995 156.484 69.5405 156.484 67.7615C156.484 66.1942 157.649 65.2199 159.915 64.987L164.468 64.521V64.1186C164.468 62.742 163.854 62.3607 162.16 62.3607C160.55 62.3607 159.894 62.7843 159.894 63.9915V64.0762H156.696V64.0127C156.696 61.3865 158.898 59.565 162.393 59.565C165.93 59.565 167.603 61.3865 167.603 64.161V70.3877H164.638V67.9521H164.468C163.981 69.6041 162.499 70.5995 160.148 70.5995ZM159.682 67.5497C159.682 68.1215 160.127 68.3545 161.059 68.3545C163.219 68.3545 164.384 67.8462 164.468 66.3424L160.783 66.766C160.021 66.8296 159.682 67.0414 159.682 67.5497ZM172.39 70.3877H169.213V59.7768H172.157V62.5937H172.348C172.644 60.8782 173.767 59.565 175.906 59.565C178.278 59.565 179.252 61.1959 179.252 63.2714V65.0293H176.075V63.928C176.075 62.7631 175.609 62.2548 174.318 62.2548C172.899 62.2548 172.39 62.9114 172.39 64.2457V70.3877ZM186.036 70.5995C182.5 70.5995 180.085 68.8628 180.085 65.0929C180.085 61.7042 182.478 59.565 185.973 59.565C189.446 59.565 191.755 61.3865 191.755 64.7116C191.755 65.0929 191.713 65.3682 191.67 65.7282H183.029C183.114 67.359 183.876 68.058 185.931 68.058C187.816 68.058 188.472 67.5708 188.472 66.6601V66.4483H191.649V66.6813C191.649 68.9899 189.404 70.5995 186.036 70.5995ZM185.909 62.043C184.024 62.043 183.22 62.6784 183.071 64.0551H188.705C188.62 62.6572 187.773 62.043 185.909 62.043ZM200.394 70.3877H197.217V62.4031H195.713V59.7768H197.281C197.62 57.6377 199.483 56.1975 202.745 56.1975H203.677V58.5061H202.237C200.839 58.5061 200.182 58.7391 200.267 59.7768H203.677V62.4031H200.394V70.3877ZM207.913 58.6967H204.736V56.1975H207.913V58.6967ZM207.913 70.3877H204.736V59.7768H207.913V70.3877ZM212.763 70.3877H209.586V59.7768H212.53V63.0385H212.721C212.996 61.2594 214.267 59.565 217.042 59.565C219.943 59.565 221.32 61.4288 221.32 63.7797V70.3877H218.143V64.8387C218.143 63.1444 217.444 62.4243 215.495 62.4243C213.483 62.4243 212.763 63.2291 212.763 65.0293V70.3877ZM226.189 70.5995C223.901 70.5995 222.525 69.5405 222.525 67.7615C222.525 66.1942 223.689 65.2199 225.956 64.987L230.509 64.521V64.1186C230.509 62.742 229.895 62.3607 228.201 62.3607C226.591 62.3607 225.934 62.7843 225.934 63.9915V64.0762H222.736V64.0127C222.736 61.3865 224.939 59.565 228.434 59.565C231.971 59.565 233.644 61.3865 233.644 64.161V70.3877H230.679V67.9521H230.509C230.022 69.6041 228.539 70.5995 226.189 70.5995ZM225.723 67.5497C225.723 68.1215 226.167 68.3545 227.099 68.3545C229.26 68.3545 230.424 67.8462 230.509 66.3424L226.824 66.766C226.061 66.8296 225.723 67.0414 225.723 67.5497ZM238.431 70.3877H235.254V59.7768H238.198V63.0385H238.389C238.664 61.2594 239.935 59.565 242.709 59.565C245.611 59.565 246.987 61.4288 246.987 63.7797V70.3877H243.81V64.8387C243.81 63.1444 243.112 62.4243 241.163 62.4243C239.151 62.4243 238.431 63.2291 238.431 65.0293V70.3877ZM254.249 70.5995C250.607 70.5995 248.277 68.4392 248.277 65.0929C248.277 61.7042 250.607 59.565 254.249 59.565C257.659 59.565 259.989 61.3865 259.989 64.1398V64.4363H256.833V64.2669C256.833 62.9114 255.838 62.4243 254.186 62.4243C252.301 62.4243 251.433 63.1232 251.433 65.0929C251.433 67.0414 252.301 67.7403 254.186 67.7403C255.838 67.7403 256.833 67.2532 256.833 65.8977V65.7282H259.989V66.0247C259.989 68.7569 257.659 70.5995 254.249 70.5995ZM264.533 58.6967H261.356V56.1975H264.533V58.6967ZM264.533 70.3877H261.356V59.7768H264.533V70.3877ZM269.457 70.5995C267.17 70.5995 265.793 69.5405 265.793 67.7615C265.793 66.1942 266.958 65.2199 269.224 64.987L273.778 64.521V64.1186C273.778 62.742 273.164 62.3607 271.469 62.3607C269.86 62.3607 269.203 62.7843 269.203 63.9915V64.0762H266.005V64.0127C266.005 61.3865 268.208 59.565 271.702 59.565C275.239 59.565 276.912 61.3865 276.912 64.161V70.3877H273.947V67.9521H273.778C273.291 69.6041 271.808 70.5995 269.457 70.5995ZM268.991 67.5497C268.991 68.1215 269.436 68.3545 270.368 68.3545C272.528 68.3545 273.693 67.8462 273.778 66.3424L270.093 66.766C269.33 66.8296 268.991 67.0414 268.991 67.5497ZM281.7 70.3877H278.523V56.1975H281.7V70.3877ZM292.285 70.5995C288.642 70.5995 286.313 68.4392 286.313 65.0929C286.313 61.7042 288.642 59.565 292.285 59.565C295.695 59.565 298.025 61.3865 298.025 64.1398V64.4363H294.869V64.2669C294.869 62.9114 293.874 62.4243 292.222 62.4243C290.337 62.4243 289.468 63.1232 289.468 65.0929C289.468 67.0414 290.337 67.7403 292.222 67.7403C293.874 67.7403 294.869 67.2532 294.869 65.8977V65.7282H298.025V66.0247C298.025 68.7569 295.695 70.5995 292.285 70.5995ZM302.569 70.3877H299.392V59.7768H302.336V62.5937H302.526C302.823 60.8782 303.945 59.565 306.085 59.565C308.457 59.565 309.431 61.1959 309.431 63.2714V65.0293H306.254V63.928C306.254 62.7631 305.788 62.2548 304.496 62.2548C303.077 62.2548 302.569 62.9114 302.569 64.2457V70.3877ZM316.215 70.5995C312.678 70.5995 310.264 68.8628 310.264 65.0929C310.264 61.7042 312.657 59.565 316.151 59.565C319.625 59.565 321.933 61.3865 321.933 64.7116C321.933 65.0929 321.891 65.3682 321.849 65.7282H313.208C313.292 67.359 314.055 68.058 316.109 68.058C317.994 68.058 318.651 67.5708 318.651 66.6601V66.4483H321.828V66.6813C321.828 68.9899 319.583 70.5995 316.215 70.5995ZM316.088 62.043C314.203 62.043 313.398 62.6784 313.25 64.0551H318.884C318.799 62.6572 317.952 62.043 316.088 62.043ZM328.025 70.5995C324.721 70.5995 322.899 68.4392 322.899 65.0929C322.899 61.7042 324.7 59.565 327.855 59.565C330.376 59.565 331.668 60.8146 332.028 62.5937H332.218V56.1975H335.395V70.3877H332.43V67.4438H332.261C331.858 69.5405 330.46 70.5995 328.025 70.5995ZM326.119 65.0929C326.119 67.0202 327.072 67.6979 329.105 67.6979C331.117 67.6979 332.218 66.999 332.218 65.1564V64.987C332.218 63.1444 331.138 62.4666 329.105 62.4666C327.072 62.4666 326.119 63.1444 326.119 65.0929ZM340.253 58.6967H337.076V56.1975H340.253V58.6967ZM340.253 70.3877H337.076V59.7768H340.253V70.3877ZM349.392 70.3877H346.766C344.288 70.3877 342.784 69.2228 342.784 66.5542V62.4031H341.111V59.7768H342.784V57.7224H345.961V59.7768H349.392V62.4031H345.961V66.1942C345.961 67.2532 346.364 67.5285 347.486 67.5285H349.392V70.3877ZM355.941 70.5995C352.361 70.5995 350.392 69.2017 350.392 66.7448V66.6813H353.568V66.8719C353.568 67.825 354.161 68.0791 355.962 68.0791C357.656 68.0791 358.058 67.8038 358.058 67.1684C358.058 66.5754 357.741 66.406 356.491 66.2365L353.505 65.8765C351.387 65.6435 350.201 64.6905 350.201 62.9114C350.201 61.0476 351.789 59.565 355.432 59.565C358.906 59.565 360.875 60.8782 360.875 63.462V63.5256H357.698V63.3985C357.698 62.5302 357.275 62.0854 355.326 62.0854C353.738 62.0854 353.335 62.3607 353.335 63.0385C353.335 63.5891 353.632 63.8221 355.03 63.9915L357.296 64.2669C360.134 64.5846 361.193 65.5376 361.193 67.2955C361.193 69.2864 359.223 70.5995 355.941 70.5995ZM370.402 69.3075C367.247 69.3075 365.425 67.4226 365.425 64.4363C365.425 61.4712 367.352 59.565 370.529 59.565C372.69 59.565 374.236 60.4969 374.575 62.3395H374.744V59.7768H377.709V68.8416C377.709 72.548 375.464 74.2 371.673 74.2C368.242 74.2 366.082 72.6751 366.082 70.0065H369.259C369.259 71.1925 369.724 71.5526 371.885 71.5526C373.918 71.5526 374.532 71.129 374.532 69.0534V66.6601H374.363C374.024 68.2274 372.774 69.3075 370.402 69.3075ZM368.623 64.4363C368.623 66.0036 369.513 66.5754 371.504 66.5754C373.537 66.5754 374.532 66.0036 374.532 64.5422V64.3092C374.532 62.869 373.516 62.3184 371.546 62.3184C369.513 62.3184 368.623 62.869 368.623 64.4363ZM382.57 58.6967H379.394V56.1975H382.57V58.6967ZM382.57 70.3877H379.394V59.7768H382.57V70.3877ZM392.133 70.3877H388.215L383.386 59.7768H386.923L390.1 67.2955H390.312L393.51 59.7768H396.983L392.133 70.3877ZM403.456 70.5995C399.919 70.5995 397.504 68.8628 397.504 65.0929C397.504 61.7042 399.898 59.565 403.392 59.565C406.866 59.565 409.174 61.3865 409.174 64.7116C409.174 65.0929 409.132 65.3682 409.089 65.7282H400.448C400.533 67.359 401.295 68.058 403.35 68.058C405.235 68.058 405.891 67.5708 405.891 66.6601V66.4483H409.068V66.6813C409.068 68.9899 406.823 70.5995 403.456 70.5995ZM403.329 62.043C401.444 62.043 400.639 62.6784 400.491 64.0551H406.124C406.04 62.6572 405.192 62.043 403.329 62.043ZM413.698 70.3877H410.521V59.7768H413.465V63.0385H413.656C413.931 61.2594 415.202 59.565 417.976 59.565C420.878 59.565 422.255 61.4288 422.255 63.7797V70.3877H419.078V64.8387C419.078 63.1444 418.379 62.4243 416.43 62.4243C414.418 62.4243 413.698 63.2291 413.698 65.0293V70.3877ZM434.606 70.3877H431.98C429.502 70.3877 427.998 69.2228 427.998 66.5542V62.4031H426.325V59.7768H427.998V57.7224H431.175V59.7768H434.606V62.4031H431.175V66.1942C431.175 67.2532 431.577 67.5285 432.7 67.5285H434.606V70.3877ZM441.451 70.5995C437.829 70.5995 435.394 68.4392 435.394 65.0929C435.394 61.7042 437.829 59.565 441.451 59.565C445.072 59.565 447.508 61.7042 447.508 65.0929C447.508 68.4392 445.072 70.5995 441.451 70.5995ZM441.451 67.7826C443.59 67.7826 444.352 66.9566 444.352 65.0929C444.352 63.2291 443.59 62.3607 441.451 62.3607C439.291 62.3607 438.549 63.2291 438.549 65.0929C438.549 66.9566 439.291 67.7826 441.451 67.7826ZM40.036 96.5995C36.3931 96.5995 34.0634 94.4392 34.0634 91.0929C34.0634 87.7042 36.3931 85.565 40.036 85.565C43.4459 85.565 45.7756 87.3865 45.7756 90.1398V90.4363H42.6199V90.2669C42.6199 88.9114 41.6244 88.4243 39.9725 88.4243C38.0875 88.4243 37.2191 89.1232 37.2191 91.0929C37.2191 93.0414 38.0875 93.7403 39.9725 93.7403C41.6244 93.7403 42.6199 93.2532 42.6199 91.8977V91.7282H45.7756V92.0247C45.7756 94.7569 43.4459 96.5995 40.036 96.5995ZM51.5266 96.5995C48.5403 96.5995 47.1213 94.7569 47.1213 92.3848V85.7768H50.2982V91.3258C50.2982 93.0414 51.0183 93.7615 53.0304 93.7615C55.1059 93.7615 55.8472 92.9566 55.8472 91.1564V85.7768H59.0241V96.3877H56.059V93.1473H55.8896C55.6142 94.9263 54.3223 96.5995 51.5266 96.5995ZM66.0068 96.5995C62.4275 96.5995 60.4579 95.2017 60.4579 92.7448V92.6813H63.6348V92.8719C63.6348 93.825 64.2278 94.0791 66.028 94.0791C67.7224 94.0791 68.1248 93.8038 68.1248 93.1684C68.1248 92.5754 67.8071 92.406 66.5575 92.2365L63.5712 91.8765C61.4533 91.6435 60.2672 90.6905 60.2672 88.9114C60.2672 87.0476 61.8557 85.565 65.4985 85.565C68.9719 85.565 70.9416 86.8782 70.9416 89.462V89.5256H67.7647V89.3985C67.7647 88.5302 67.3411 88.0854 65.3926 88.0854C63.8042 88.0854 63.4018 88.3607 63.4018 89.0385C63.4018 89.5891 63.6983 89.8221 65.0961 89.9915L67.3623 90.2669C70.2004 90.5846 71.2593 91.5376 71.2593 93.2955C71.2593 95.2864 69.2896 96.5995 66.0068 96.5995ZM80.0175 96.3877H77.3912C74.9133 96.3877 73.4095 95.2228 73.4095 92.5542V88.4031H71.7364V85.7768H73.4095V83.7224H76.5864V85.7768H80.0175V88.4031H76.5864V92.1942C76.5864 93.2532 76.9888 93.5285 78.1113 93.5285H80.0175V96.3877ZM86.8622 96.5995C83.2405 96.5995 80.8049 94.4392 80.8049 91.0929C80.8049 87.7042 83.2405 85.565 86.8622 85.565C90.4839 85.565 92.9195 87.7042 92.9195 91.0929C92.9195 94.4392 90.4839 96.5995 86.8622 96.5995ZM86.8622 93.7826C89.0013 93.7826 89.7638 92.9566 89.7638 91.0929C89.7638 89.2291 89.0013 88.3607 86.8622 88.3607C84.7019 88.3607 83.9606 89.2291 83.9606 91.0929C83.9606 92.9566 84.7019 93.7826 86.8622 93.7826ZM97.3938 96.3877H94.2169V85.7768H97.1608V88.9961H97.3303C97.5844 87.217 98.6434 85.565 101.312 85.565C103.769 85.565 105.018 87.0688 105.251 89.0385H105.442C105.696 87.2382 106.776 85.565 109.508 85.565C112.241 85.565 113.575 87.3653 113.575 89.7797V96.3877H110.398V90.8387C110.398 89.0808 109.784 88.4243 107.962 88.4243C106.035 88.4243 105.484 89.1867 105.484 91.0293V96.3877H102.307V90.8387C102.307 89.0808 101.693 88.4243 99.8718 88.4243C97.9445 88.4243 97.3938 89.1867 97.3938 91.0293V96.3877ZM120.823 96.5995C117.286 96.5995 114.872 94.8628 114.872 91.0929C114.872 87.7042 117.265 85.565 120.76 85.565C124.233 85.565 126.542 87.3865 126.542 90.7116C126.542 91.0929 126.499 91.3682 126.457 91.7282H117.816C117.9 93.359 118.663 94.058 120.717 94.058C122.602 94.058 123.259 93.5708 123.259 92.6601V92.4483H126.436V92.6813C126.436 94.9899 124.191 96.5995 120.823 96.5995ZM120.696 88.043C118.811 88.043 118.006 88.6784 117.858 90.0551H123.492C123.407 88.6572 122.56 88.043 120.696 88.043ZM131.066 96.3877H127.889V85.7768H130.833V88.5937H131.023C131.32 86.8782 132.442 85.565 134.581 85.565C136.954 85.565 137.928 87.1959 137.928 89.2714V91.0293H134.751V89.928C134.751 88.7631 134.285 88.2548 132.993 88.2548C131.574 88.2548 131.066 88.9114 131.066 90.2457V96.3877ZM144.437 96.5995C140.857 96.5995 138.888 95.2017 138.888 92.7448V92.6813H142.065V92.8719C142.065 93.825 142.658 94.0791 144.458 94.0791C146.152 94.0791 146.555 93.8038 146.555 93.1684C146.555 92.5754 146.237 92.406 144.987 92.2365L142.001 91.8765C139.883 91.6435 138.697 90.6905 138.697 88.9114C138.697 87.0476 140.285 85.565 143.928 85.565C147.402 85.565 149.371 86.8782 149.371 89.462V89.5256H146.194V89.3985C146.194 88.5302 145.771 88.0854 143.822 88.0854C142.234 88.0854 141.832 88.3607 141.832 89.0385C141.832 89.5891 142.128 89.8221 143.526 89.9915L145.792 90.2669C148.63 90.5846 149.689 91.5376 149.689 93.2955C149.689 95.2864 147.719 96.5995 144.437 96.5995ZM157.5 96.5995C155.213 96.5995 153.836 95.5405 153.836 93.7615C153.836 92.1942 155.001 91.2199 157.267 90.987L161.821 90.521V90.1186C161.821 88.742 161.207 88.3607 159.513 88.3607C157.903 88.3607 157.246 88.7843 157.246 89.9915V90.0762H154.048V90.0127C154.048 87.3865 156.251 85.565 159.745 85.565C163.282 85.565 164.956 87.3865 164.956 90.161V96.3877H161.99V93.9521H161.821C161.334 95.6041 159.851 96.5995 157.5 96.5995ZM157.035 93.5497C157.035 94.1215 157.479 94.3545 158.411 94.3545C160.571 94.3545 161.736 93.8462 161.821 92.3424L158.136 92.766C157.373 92.8296 157.035 93.0414 157.035 93.5497ZM169.743 96.3877H166.566V82.1975H169.743V96.3877ZM174.583 96.3877H171.406V82.1975H174.583V96.3877ZM181.9 96.5995C178.279 96.5995 175.843 94.4392 175.843 91.0929C175.843 87.7042 178.279 85.565 181.9 85.565C185.522 85.565 187.958 87.7042 187.958 91.0929C187.958 94.4392 185.522 96.5995 181.9 96.5995ZM181.9 93.7826C184.04 93.7826 184.802 92.9566 184.802 91.0929C184.802 89.2291 184.04 88.3607 181.9 88.3607C179.74 88.3607 178.999 89.2291 178.999 91.0929C178.999 92.9566 179.74 93.7826 181.9 93.7826ZM195.27 96.3877H191.309L188.408 85.7768H191.691L192.94 90.6269L193.385 93.9309H193.597L194.444 90.3092L196.054 85.7768H200.141L201.73 90.3092L202.577 93.9309H202.789L203.255 90.6269L204.483 85.7768H207.723L204.716 96.3877H200.755L198.934 91.2835L198.15 88.3607H197.917L197.113 91.2835L195.27 96.3877ZM211.75 84.6967H208.573V82.1975H211.75V84.6967ZM211.75 96.3877H208.573V85.7768H211.75V96.3877ZM216.59 96.3877H213.413V85.7768H216.357V89.0385H216.547C216.823 87.2594 218.093 85.565 220.868 85.565C223.769 85.565 225.146 87.4288 225.146 89.7797V96.3877H221.969V90.8387C221.969 89.1444 221.27 88.4243 219.322 88.4243C217.31 88.4243 216.59 89.2291 216.59 91.0293V96.3877ZM231.413 95.3075C228.257 95.3075 226.436 93.4226 226.436 90.4363C226.436 87.4712 228.363 85.565 231.54 85.565C233.7 85.565 235.246 86.4969 235.585 88.3395H235.755V85.7768H238.72V94.8416C238.72 98.548 236.475 100.2 232.684 100.2C229.252 100.2 227.092 98.6751 227.092 96.0065H230.269C230.269 97.1925 230.735 97.5526 232.895 97.5526C234.929 97.5526 235.543 97.129 235.543 95.0534V92.6601H235.373C235.034 94.2274 233.785 95.3075 231.413 95.3075ZM229.634 90.4363C229.634 92.0036 230.523 92.5754 232.514 92.5754C234.547 92.5754 235.543 92.0036 235.543 90.5422V90.3092C235.543 88.869 234.526 88.3184 232.556 88.3184C230.523 88.3184 229.634 88.869 229.634 90.4363ZM251.148 96.3877H248.522C246.044 96.3877 244.54 95.2228 244.54 92.5542V88.4031H242.867V85.7768H244.54V83.7224H247.717V85.7768H251.148V88.4031H247.717V92.1942C247.717 93.2532 248.12 93.5285 249.242 93.5285H251.148V96.3877ZM255.515 96.3877H252.338V82.1975H255.515V89.0173H255.684C256.023 87.217 257.273 85.565 259.984 85.565C262.843 85.565 264.241 87.4288 264.241 89.8856V96.3877H261.064V90.8387C261.064 89.0596 260.302 88.4243 258.311 88.4243C256.172 88.4243 255.515 89.2926 255.515 91.0717V96.3877ZM271.478 96.5995C267.941 96.5995 265.526 94.8628 265.526 91.0929C265.526 87.7042 267.92 85.565 271.414 85.565C274.888 85.565 277.196 87.3865 277.196 90.7116C277.196 91.0929 277.154 91.3682 277.111 91.7282H268.47C268.555 93.359 269.317 94.058 271.372 94.058C273.257 94.058 273.913 93.5708 273.913 92.6601V92.4483H277.09V92.6813C277.09 94.9899 274.845 96.5995 271.478 96.5995ZM271.351 88.043C269.466 88.043 268.661 88.6784 268.513 90.0551H274.146C274.062 88.6572 273.214 88.043 271.351 88.043ZM281.72 96.3877H278.543V85.7768H281.487V88.9961H281.657C281.911 87.217 282.97 85.565 285.638 85.565C288.095 85.565 289.345 87.0688 289.578 89.0385H289.768C290.023 87.2382 291.103 85.565 293.835 85.565C296.567 85.565 297.901 87.3653 297.901 89.7797V96.3877H294.724V90.8387C294.724 89.0808 294.11 88.4243 292.289 88.4243C290.361 88.4243 289.811 89.1867 289.811 91.0293V96.3877H286.634V90.8387C286.634 89.0808 286.02 88.4243 284.198 88.4243C282.271 88.4243 281.72 89.1867 281.72 91.0293V96.3877ZM308.142 96.5995C304.563 96.5995 302.593 95.2017 302.593 92.7448V92.6813H305.77V92.8719C305.77 93.825 306.363 94.0791 308.163 94.0791C309.858 94.0791 310.26 93.8038 310.26 93.1684C310.26 92.5754 309.942 92.406 308.693 92.2365L305.707 91.8765C303.589 91.6435 302.403 90.6905 302.403 88.9114C302.403 87.0476 303.991 85.565 307.634 85.565C311.107 85.565 313.077 86.8782 313.077 89.462V89.5256H309.9V89.3985C309.9 88.5302 309.477 88.0854 307.528 88.0854C305.94 88.0854 305.537 88.3607 305.537 89.0385C305.537 89.5891 305.834 89.8221 307.232 89.9915L309.498 90.2669C312.336 90.5846 313.395 91.5376 313.395 93.2955C313.395 95.2864 311.425 96.5995 308.142 96.5995ZM317.853 99.9882H314.677V85.7768H317.62V88.6784H317.832C318.214 86.6452 319.569 85.565 322.068 85.565C325.33 85.565 327.151 87.7253 327.151 91.0929C327.151 94.4604 325.372 96.5995 322.174 96.5995C319.717 96.5995 318.362 95.3923 318.002 93.5285H317.853V99.9882ZM317.853 91.2411C317.853 93.0625 318.955 93.6979 320.946 93.6979C322.979 93.6979 323.932 93.0202 323.932 91.0929C323.932 89.1444 322.979 88.4878 320.967 88.4878C318.912 88.4878 317.853 89.1867 317.853 91.0717V91.2411ZM334.106 96.5995C330.569 96.5995 328.154 94.8628 328.154 91.0929C328.154 87.7042 330.548 85.565 334.042 85.565C337.516 85.565 339.824 87.3865 339.824 90.7116C339.824 91.0929 339.782 91.3682 339.739 91.7282H331.098C331.183 93.359 331.945 94.058 334 94.058C335.885 94.058 336.541 93.5708 336.541 92.6601V92.4483H339.718V92.6813C339.718 94.9899 337.473 96.5995 334.106 96.5995ZM333.979 88.043C332.094 88.043 331.289 88.6784 331.141 90.0551H336.774C336.69 88.6572 335.842 88.043 333.979 88.043ZM344.348 96.3877H341.171V85.7768H344.115V89.0385H344.306C344.581 87.2594 345.852 85.565 348.627 85.565C351.528 85.565 352.905 87.4288 352.905 89.7797V96.3877H349.728V90.8387C349.728 89.1444 349.029 88.4243 347.08 88.4243C345.068 88.4243 344.348 89.2291 344.348 91.0293V96.3877ZM359.256 96.5995C355.952 96.5995 354.131 94.4392 354.131 91.0929C354.131 87.7042 355.931 85.565 359.087 85.565C361.607 85.565 362.899 86.8146 363.259 88.5937H363.45V82.1975H366.626V96.3877H363.661V93.4438H363.492C363.09 95.5405 361.692 96.5995 359.256 96.5995ZM357.35 91.0929C357.35 93.0202 358.303 93.6979 360.336 93.6979C362.348 93.6979 363.45 92.999 363.45 91.1564V90.987C363.45 89.1444 362.369 88.4666 360.336 88.4666C358.303 88.4666 357.35 89.1444 357.35 91.0929ZM374.752 96.3877H371.575V85.7768H374.519V88.9961H374.689C374.943 87.217 376.002 85.565 378.67 85.565C381.127 85.565 382.377 87.0688 382.61 89.0385H382.8C383.055 87.2382 384.135 85.565 386.867 85.565C389.599 85.565 390.933 87.3653 390.933 89.7797V96.3877H387.756V90.8387C387.756 89.0808 387.142 88.4243 385.321 88.4243C383.393 88.4243 382.843 89.1867 382.843 91.0293V96.3877H379.666V90.8387C379.666 89.0808 379.052 88.4243 377.23 88.4243C375.303 88.4243 374.752 89.1867 374.752 91.0293V96.3877ZM398.203 96.5995C394.581 96.5995 392.145 94.4392 392.145 91.0929C392.145 87.7042 394.581 85.565 398.203 85.565C401.824 85.565 404.26 87.7042 404.26 91.0929C404.26 94.4392 401.824 96.5995 398.203 96.5995ZM398.203 93.7826C400.342 93.7826 401.104 92.9566 401.104 91.0929C401.104 89.2291 400.342 88.3607 398.203 88.3607C396.042 88.3607 395.301 89.2291 395.301 91.0929C395.301 92.9566 396.042 93.7826 398.203 93.7826ZM408.734 96.3877H405.557V85.7768H408.501V89.0385H408.692C408.967 87.2594 410.238 85.565 413.013 85.565C415.914 85.565 417.291 87.4288 417.291 89.7797V96.3877H414.114V90.8387C414.114 89.1444 413.415 88.4243 411.467 88.4243C409.454 88.4243 408.734 89.2291 408.734 91.0293V96.3877ZM424.532 96.5995C420.995 96.5995 418.58 94.8628 418.58 91.0929C418.58 87.7042 420.974 85.565 424.468 85.565C427.942 85.565 430.25 87.3865 430.25 90.7116C430.25 91.0929 430.208 91.3682 430.165 91.7282H421.524C421.609 93.359 422.371 94.058 424.426 94.058C426.311 94.058 426.967 93.5708 426.967 92.6601V92.4483H430.144V92.6813C430.144 94.9899 427.899 96.5995 424.532 96.5995ZM424.405 88.043C422.52 88.043 421.715 88.6784 421.567 90.0551H427.2C427.116 88.6572 426.268 88.043 424.405 88.043ZM433.631 99.9882H431.894V97.1078H434.499C435.283 97.1078 435.621 96.896 435.833 96.4301L430.644 85.7768H434.245L436.49 90.6269L437.379 93.1261H437.591L438.438 90.6057L440.45 85.7768H443.987L438.735 97.1502C437.718 99.374 436.299 99.9882 433.631 99.9882ZM41.8574 122.388H39.2312C36.7532 122.388 35.2495 121.223 35.2495 118.554V114.403H33.5763V111.777H35.2495V109.722H38.4264V111.777H41.8574V114.403H38.4264V118.194C38.4264 119.253 38.8288 119.528 39.9513 119.528H41.8574V122.388ZM46.2242 122.388H43.0473V108.198H46.2242V115.017H46.3936C46.7325 113.217 47.9821 111.565 50.693 111.565C53.5522 111.565 54.9501 113.429 54.9501 115.886V122.388H51.7732V116.839C51.7732 115.06 51.0107 114.424 49.0198 114.424C46.8807 114.424 46.2242 115.293 46.2242 117.072V122.388ZM62.1869 122.599C58.65 122.599 56.2355 120.863 56.2355 117.093C56.2355 113.704 58.6288 111.565 62.1234 111.565C65.5968 111.565 67.9054 113.386 67.9054 116.712C67.9054 117.093 67.863 117.368 67.8207 117.728H59.1795C59.2642 119.359 60.0267 120.058 62.0811 120.058C63.966 120.058 64.6226 119.571 64.6226 118.66V118.448H67.7995V118.681C67.7995 120.99 65.5545 122.599 62.1869 122.599ZM62.0599 114.043C60.1749 114.043 59.3701 114.678 59.2218 116.055H64.8555C64.7708 114.657 63.9237 114.043 62.0599 114.043ZM71.2858 125.988H69.5491V123.108H72.1541C72.9378 123.108 73.2767 122.896 73.4884 122.43L68.2995 111.777H71.9L74.145 116.627L75.0345 119.126H75.2463L76.0935 116.606L78.1055 111.777H81.6425L76.39 123.15C75.3734 125.374 73.9544 125.988 71.2858 125.988ZM90.419 122.599C87.115 122.599 85.2936 120.439 85.2936 117.093C85.2936 113.704 87.0939 111.565 90.2496 111.565C92.7699 111.565 94.0619 112.815 94.4219 114.594H94.6125V108.198H97.7894V122.388H94.8243V119.444H94.6549C94.2525 121.541 92.8546 122.599 90.419 122.599ZM88.5129 117.093C88.5129 119.02 89.4659 119.698 91.4992 119.698C93.5112 119.698 94.6125 118.999 94.6125 117.156V116.987C94.6125 115.144 93.5324 114.467 91.4992 114.467C89.4659 114.467 88.5129 115.144 88.5129 117.093ZM105.125 122.599C101.504 122.599 99.068 120.439 99.068 117.093C99.068 113.704 101.504 111.565 105.125 111.565C108.747 111.565 111.183 113.704 111.183 117.093C111.183 120.439 108.747 122.599 105.125 122.599ZM105.125 119.783C107.264 119.783 108.027 118.957 108.027 117.093C108.027 115.229 107.264 114.361 105.125 114.361C102.965 114.361 102.224 115.229 102.224 117.093C102.224 118.957 102.965 119.783 105.125 119.783ZM118.925 122.388H115.748V111.777H118.692V115.038H118.882C119.158 113.259 120.428 111.565 123.203 111.565C126.105 111.565 127.481 113.429 127.481 115.78V122.388H124.304V116.839C124.304 115.144 123.605 114.424 121.657 114.424C119.645 114.424 118.925 115.229 118.925 117.029V122.388ZM134.743 122.599C131.122 122.599 128.686 120.439 128.686 117.093C128.686 113.704 131.122 111.565 134.743 111.565C138.365 111.565 140.801 113.704 140.801 117.093C140.801 120.439 138.365 122.599 134.743 122.599ZM134.743 119.783C136.882 119.783 137.645 118.957 137.645 117.093C137.645 115.229 136.882 114.361 134.743 114.361C132.583 114.361 131.842 115.229 131.842 117.093C131.842 118.957 132.583 119.783 134.743 119.783ZM149.574 122.388H146.948C144.47 122.388 142.966 121.223 142.966 118.554V114.403H141.293V111.777H142.966V109.722H146.143V111.777H149.574V114.403H146.143V118.194C146.143 119.253 146.546 119.528 147.668 119.528H149.574V122.388ZM157.209 122.388H154.032V108.198H157.209V115.017H157.378C157.717 113.217 158.967 111.565 161.678 111.565C164.537 111.565 165.935 113.429 165.935 115.886V122.388H162.758V116.839C162.758 115.06 161.995 114.424 160.005 114.424C157.865 114.424 157.209 115.293 157.209 117.072V122.388ZM170.8 122.599C168.512 122.599 167.136 121.541 167.136 119.761C167.136 118.194 168.3 117.22 170.567 116.987L175.12 116.521V116.119C175.12 114.742 174.506 114.361 172.812 114.361C171.202 114.361 170.545 114.784 170.545 115.992V116.076H167.347V116.013C167.347 113.386 169.55 111.565 173.045 111.565C176.582 111.565 178.255 113.386 178.255 116.161V122.388H175.29V119.952H175.12C174.633 121.604 173.151 122.599 170.8 122.599ZM170.334 119.55C170.334 120.122 170.778 120.354 171.71 120.354C173.871 120.354 175.035 119.846 175.12 118.342L171.435 118.766C170.673 118.83 170.334 119.041 170.334 119.55ZM187.765 122.388H183.847L179.018 111.777H182.555L185.732 119.296H185.944L189.142 111.777H192.615L187.765 122.388ZM199.087 122.599C195.55 122.599 193.136 120.863 193.136 117.093C193.136 113.704 195.529 111.565 199.024 111.565C202.497 111.565 204.806 113.386 204.806 116.712C204.806 117.093 204.763 117.368 204.721 117.728H196.08C196.165 119.359 196.927 120.058 198.982 120.058C200.866 120.058 201.523 119.571 201.523 118.66V118.448H204.7V118.681C204.7 120.99 202.455 122.599 199.087 122.599ZM198.96 114.043C197.075 114.043 196.271 114.678 196.122 116.055H201.756C201.671 114.657 200.824 114.043 198.96 114.043ZM207.191 125.374H206.068V123.404H207.106C207.53 123.404 207.742 123.298 207.742 122.748V122.388H205.941V118.681H210.029V122.727C210.029 124.506 208.991 125.374 207.191 125.374ZM218.039 122.599C215.752 122.599 214.375 121.541 214.375 119.761C214.375 118.194 215.54 117.22 217.807 116.987L222.36 116.521V116.119C222.36 114.742 221.746 114.361 220.052 114.361C218.442 114.361 217.785 114.784 217.785 115.992V116.076H214.587V116.013C214.587 113.386 216.79 111.565 220.284 111.565C223.821 111.565 225.495 113.386 225.495 116.161V122.388H222.53V119.952H222.36C221.873 121.604 220.39 122.599 218.039 122.599ZM217.574 119.55C217.574 120.122 218.018 120.354 218.95 120.354C221.11 120.354 222.275 119.846 222.36 118.342L218.675 118.766C217.912 118.83 217.574 119.041 217.574 119.55ZM230.282 122.388H227.105V108.198H230.282V122.388ZM235.122 122.388H231.945V108.198H235.122V122.388ZM242.439 122.599C238.818 122.599 236.382 120.439 236.382 117.093C236.382 113.704 238.818 111.565 242.439 111.565C246.061 111.565 248.497 113.704 248.497 117.093C248.497 120.439 246.061 122.599 242.439 122.599ZM242.439 119.783C244.579 119.783 245.341 118.957 245.341 117.093C245.341 115.229 244.579 114.361 242.439 114.361C240.279 114.361 239.538 115.229 239.538 117.093C239.538 118.957 240.279 119.783 242.439 119.783ZM255.809 122.388H251.849L248.947 111.777H252.23L253.479 116.627L253.924 119.931H254.136L254.983 116.309L256.593 111.777H260.68L262.269 116.309L263.116 119.931H263.328L263.794 116.627L265.022 111.777H268.262L265.255 122.388H261.294L259.473 117.283L258.689 114.361H258.456L257.652 117.283L255.809 122.388ZM272.289 110.697H269.112V108.198H272.289V110.697ZM272.289 122.388H269.112V111.777H272.289V122.388ZM277.129 122.388H273.952V111.777H276.896V115.038H277.086C277.362 113.259 278.632 111.565 281.407 111.565C284.309 111.565 285.685 113.429 285.685 115.78V122.388H282.508V116.839C282.508 115.144 281.809 114.424 279.861 114.424C277.849 114.424 277.129 115.229 277.129 117.029V122.388ZM291.952 121.308C288.796 121.308 286.975 119.423 286.975 116.436C286.975 113.471 288.902 111.565 292.079 111.565C294.239 111.565 295.785 112.497 296.124 114.34H296.294V111.777H299.259V120.842C299.259 124.548 297.014 126.2 293.223 126.2C289.791 126.2 287.631 124.675 287.631 122.006H290.808C290.808 123.193 291.274 123.553 293.434 123.553C295.468 123.553 296.082 123.129 296.082 121.053V118.66H295.912C295.573 120.227 294.324 121.308 291.952 121.308ZM290.173 116.436C290.173 118.004 291.062 118.575 293.053 118.575C295.086 118.575 296.082 118.004 296.082 116.542V116.309C296.082 114.869 295.065 114.318 293.095 114.318C291.062 114.318 290.173 114.869 290.173 116.436ZM311.687 122.388H309.061C306.583 122.388 305.079 121.223 305.079 118.554V114.403H303.406V111.777H305.079V109.722H308.256V111.777H311.687V114.403H308.256V118.194C308.256 119.253 308.659 119.528 309.781 119.528H311.687V122.388ZM316.054 122.388H312.877V108.198H316.054V115.017H316.223C316.562 113.217 317.812 111.565 320.523 111.565C323.382 111.565 324.78 113.429 324.78 115.886V122.388H321.603V116.839C321.603 115.06 320.841 114.424 318.85 114.424C316.711 114.424 316.054 115.293 316.054 117.072V122.388ZM332.017 122.599C328.48 122.599 326.065 120.863 326.065 117.093C326.065 113.704 328.459 111.565 331.953 111.565C335.427 111.565 337.735 113.386 337.735 116.712C337.735 117.093 337.693 117.368 337.651 117.728H329.009C329.094 119.359 329.857 120.058 331.911 120.058C333.796 120.058 334.452 119.571 334.452 118.66V118.448H337.629V118.681C337.629 120.99 335.384 122.599 332.017 122.599ZM331.89 114.043C330.005 114.043 329.2 114.678 329.052 116.055H334.685C334.601 114.657 333.754 114.043 331.89 114.043ZM342.259 122.388H339.082V111.777H342.026V114.996H342.196C342.45 113.217 343.509 111.565 346.178 111.565C348.634 111.565 349.884 113.069 350.117 115.038H350.307C350.562 113.238 351.642 111.565 354.374 111.565C357.106 111.565 358.44 113.365 358.44 115.78V122.388H355.263V116.839C355.263 115.081 354.649 114.424 352.828 114.424C350.901 114.424 350.35 115.187 350.35 117.029V122.388H347.173V116.839C347.173 115.081 346.559 114.424 344.737 114.424C342.81 114.424 342.259 115.187 342.259 117.029V122.388ZM366.584 122.599C364.297 122.599 362.92 121.541 362.92 119.761C362.92 118.194 364.085 117.22 366.351 116.987L370.905 116.521V116.119C370.905 114.742 370.291 114.361 368.597 114.361C366.987 114.361 366.33 114.784 366.33 115.992V116.076H363.132V116.013C363.132 113.386 365.335 111.565 368.829 111.565C372.366 111.565 374.04 113.386 374.04 116.161V122.388H371.074V119.952H370.905C370.418 121.604 368.935 122.599 366.584 122.599ZM366.119 119.55C366.119 120.122 366.563 120.354 367.495 120.354C369.655 120.354 370.82 119.846 370.905 118.342L367.22 118.766C366.457 118.83 366.119 119.041 366.119 119.55ZM381.305 122.599C377.662 122.599 375.332 120.439 375.332 117.093C375.332 113.704 377.662 111.565 381.305 111.565C384.715 111.565 387.044 113.386 387.044 116.14V116.436H383.889V116.267C383.889 114.911 382.893 114.424 381.241 114.424C379.356 114.424 378.488 115.123 378.488 117.093C378.488 119.041 379.356 119.74 381.241 119.74C382.893 119.74 383.889 119.253 383.889 117.898V117.728H387.044V118.025C387.044 120.757 384.715 122.599 381.305 122.599ZM394.066 122.599C390.423 122.599 388.094 120.439 388.094 117.093C388.094 113.704 390.423 111.565 394.066 111.565C397.476 111.565 399.806 113.386 399.806 116.14V116.436H396.65V116.267C396.65 114.911 395.655 114.424 394.003 114.424C392.118 114.424 391.249 115.123 391.249 117.093C391.249 119.041 392.118 119.74 394.003 119.74C395.655 119.74 396.65 119.253 396.65 117.898V117.728H399.806V118.025C399.806 120.757 397.476 122.599 394.066 122.599ZM406.806 122.599C403.269 122.599 400.855 120.863 400.855 117.093C400.855 113.704 403.248 111.565 406.743 111.565C410.216 111.565 412.525 113.386 412.525 116.712C412.525 117.093 412.482 117.368 412.44 117.728H403.799C403.884 119.359 404.646 120.058 406.7 120.058C408.585 120.058 409.242 119.571 409.242 118.66V118.448H412.419V118.681C412.419 120.99 410.174 122.599 406.806 122.599ZM406.679 114.043C404.794 114.043 403.99 114.678 403.841 116.055H409.475C409.39 114.657 408.543 114.043 406.679 114.043ZM419.23 122.599C415.651 122.599 413.681 121.202 413.681 118.745V118.681H416.858V118.872C416.858 119.825 417.451 120.079 419.252 120.079C420.946 120.079 421.348 119.804 421.348 119.168C421.348 118.575 421.031 118.406 419.781 118.237L416.795 117.876C414.677 117.644 413.491 116.69 413.491 114.911C413.491 113.048 415.079 111.565 418.722 111.565C422.195 111.565 424.165 112.878 424.165 115.462V115.526H420.988V115.399C420.988 114.53 420.565 114.085 418.616 114.085C417.028 114.085 416.625 114.361 416.625 115.038C416.625 115.589 416.922 115.822 418.32 115.992L420.586 116.267C423.424 116.585 424.483 117.538 424.483 119.296C424.483 121.286 422.513 122.599 419.23 122.599ZM431.123 122.599C427.544 122.599 425.574 121.202 425.574 118.745V118.681H428.751V118.872C428.751 119.825 429.344 120.079 431.144 120.079C432.839 120.079 433.241 119.804 433.241 119.168C433.241 118.575 432.923 118.406 431.674 118.237L428.687 117.876C426.57 117.644 425.383 116.69 425.383 114.911C425.383 113.048 426.972 111.565 430.615 111.565C434.088 111.565 436.058 112.878 436.058 115.462V115.526H432.881V115.399C432.881 114.53 432.457 114.085 430.509 114.085C428.92 114.085 428.518 114.361 428.518 115.038C428.518 115.589 428.815 115.822 430.212 115.992L432.479 116.267C435.317 116.585 436.376 117.538 436.376 119.296C436.376 121.286 434.406 122.599 431.123 122.599ZM38.4052 148.388H35.2283V140.403H33.7245V137.777H35.2918C35.6307 135.638 37.4945 134.198 40.7561 134.198H41.688V136.506H40.2478C38.85 136.506 38.1934 136.739 38.2781 137.777H41.688V140.403H38.4052V148.388ZM47.1211 148.599C44.1349 148.599 42.7158 146.757 42.7158 144.385V137.777H45.8927V143.326C45.8927 145.041 46.6128 145.761 48.6249 145.761C50.7005 145.761 51.4417 144.957 51.4417 143.156V137.777H54.6186V148.388H51.6535V145.147H51.4841C51.2088 146.926 49.9168 148.599 47.1211 148.599ZM59.4199 148.388H56.243V137.777H59.1869V141.038H59.3775C59.6529 139.259 60.9236 137.565 63.6981 137.565C66.5997 137.565 67.9764 139.429 67.9764 141.78V148.388H64.7995V142.839C64.7995 141.144 64.1005 140.424 62.152 140.424C60.14 140.424 59.4199 141.229 59.4199 143.029V148.388ZM74.3277 148.599C71.0237 148.599 69.2023 146.439 69.2023 143.093C69.2023 139.704 71.0025 137.565 74.1582 137.565C76.6786 137.565 77.9705 138.815 78.3306 140.594H78.5212V134.198H81.6981V148.388H78.733V145.444H78.5635C78.1611 147.541 76.7633 148.599 74.3277 148.599ZM72.4215 143.093C72.4215 145.02 73.3746 145.698 75.4078 145.698C77.4199 145.698 78.5212 144.999 78.5212 143.156V142.987C78.5212 141.144 77.441 140.467 75.4078 140.467C73.3746 140.467 72.4215 141.144 72.4215 143.093ZM88.7374 148.599C85.1581 148.599 83.1884 147.202 83.1884 144.745V144.681H86.3653V144.872C86.3653 145.825 86.9583 146.079 88.7586 146.079C90.4529 146.079 90.8553 145.804 90.8553 145.168C90.8553 144.575 90.5377 144.406 89.2881 144.237L86.3018 143.876C84.1838 143.644 82.9978 142.69 82.9978 140.911C82.9978 139.048 84.5863 137.565 88.2291 137.565C91.7025 137.565 93.6722 138.878 93.6722 141.462V141.526H90.4953V141.399C90.4953 140.53 90.0717 140.085 88.1232 140.085C86.5348 140.085 86.1323 140.361 86.1323 141.038C86.1323 141.589 86.4289 141.822 87.8267 141.992L90.0929 142.267C92.9309 142.585 93.9899 143.538 93.9899 145.296C93.9899 147.286 92.0202 148.599 88.7374 148.599ZM102.564 148.388H99.3868V140.403H97.8831V137.777H99.4504C99.7892 135.638 101.653 134.198 104.915 134.198H105.847V136.506H104.406C103.008 136.506 102.352 136.739 102.437 137.777H105.847V140.403H102.564V148.388ZM112.55 148.599C108.929 148.599 106.493 146.439 106.493 143.093C106.493 139.704 108.929 137.565 112.55 137.565C116.172 137.565 118.608 139.704 118.608 143.093C118.608 146.439 116.172 148.599 112.55 148.599ZM112.55 145.783C114.69 145.783 115.452 144.957 115.452 143.093C115.452 141.229 114.69 140.361 112.55 140.361C110.39 140.361 109.649 141.229 109.649 143.093C109.649 144.957 110.39 145.783 112.55 145.783ZM123.082 148.388H119.905V137.777H122.849V140.594H123.04C123.336 138.878 124.459 137.565 126.598 137.565C128.97 137.565 129.944 139.196 129.944 141.271V143.029H126.767V141.928C126.767 140.763 126.301 140.255 125.009 140.255C123.59 140.255 123.082 140.911 123.082 142.246V148.388ZM139.996 148.599C136.459 148.599 134.045 146.863 134.045 143.093C134.045 139.704 136.438 137.565 139.933 137.565C143.406 137.565 145.715 139.386 145.715 142.712C145.715 143.093 145.672 143.368 145.63 143.728H136.989C137.073 145.359 137.836 146.058 139.89 146.058C141.775 146.058 142.432 145.571 142.432 144.66V144.448H145.609V144.681C145.609 146.99 143.364 148.599 139.996 148.599ZM139.869 140.043C137.984 140.043 137.179 140.678 137.031 142.055H142.665C142.58 140.657 141.733 140.043 139.869 140.043ZM150.239 148.388H147.062V137.777H150.006V140.996H150.175C150.429 139.217 151.488 137.565 154.157 137.565C156.614 137.565 157.863 139.069 158.096 141.038H158.287C158.541 139.238 159.621 137.565 162.353 137.565C165.085 137.565 166.42 139.365 166.42 141.78V148.388H163.243V142.839C163.243 141.081 162.629 140.424 160.807 140.424C158.88 140.424 158.329 141.187 158.329 143.029V148.388H155.152V142.839C155.152 141.081 154.538 140.424 152.717 140.424C150.789 140.424 150.239 141.187 150.239 143.029V148.388ZM173.668 148.599C170.131 148.599 167.717 146.863 167.717 143.093C167.717 139.704 170.11 137.565 173.605 137.565C177.078 137.565 179.387 139.386 179.387 142.712C179.387 143.093 179.344 143.368 179.302 143.728H170.661C170.745 145.359 171.508 146.058 173.562 146.058C175.447 146.058 176.104 145.571 176.104 144.66V144.448H179.281V144.681C179.281 146.99 177.036 148.599 173.668 148.599ZM173.541 140.043C171.656 140.043 170.851 140.678 170.703 142.055H176.337C176.252 140.657 175.405 140.043 173.541 140.043ZM183.911 148.388H180.734V137.777H183.678V140.594H183.868C184.165 138.878 185.287 137.565 187.426 137.565C189.798 137.565 190.773 139.196 190.773 141.271V143.029H187.596V141.928C187.596 140.763 187.13 140.255 185.838 140.255C184.419 140.255 183.911 140.911 183.911 142.246V148.388ZM196.583 147.308C193.427 147.308 191.606 145.423 191.606 142.436C191.606 139.471 193.533 137.565 196.71 137.565C198.87 137.565 200.416 138.497 200.755 140.34H200.924V137.777H203.89V146.842C203.89 150.548 201.645 152.2 197.853 152.2C194.422 152.2 192.262 150.675 192.262 148.006H195.439C195.439 149.193 195.905 149.553 198.065 149.553C200.098 149.553 200.713 149.129 200.713 147.053V144.66H200.543C200.204 146.227 198.955 147.308 196.583 147.308ZM194.804 142.436C194.804 144.004 195.693 144.575 197.684 144.575C199.717 144.575 200.713 144.004 200.713 142.542V142.309C200.713 140.869 199.696 140.318 197.726 140.318C195.693 140.318 194.804 140.869 194.804 142.436ZM211.208 148.599C207.671 148.599 205.256 146.863 205.256 143.093C205.256 139.704 207.65 137.565 211.144 137.565C214.618 137.565 216.926 139.386 216.926 142.712C216.926 143.093 216.884 143.368 216.841 143.728H208.2C208.285 145.359 209.047 146.058 211.102 146.058C212.987 146.058 213.643 145.571 213.643 144.66V144.448H216.82V144.681C216.82 146.99 214.575 148.599 211.208 148.599ZM211.081 140.043C209.196 140.043 208.391 140.678 208.243 142.055H213.876C213.792 140.657 212.944 140.043 211.081 140.043ZM221.45 148.388H218.273V137.777H221.217V141.038H221.408C221.683 139.259 222.954 137.565 225.728 137.565C228.63 137.565 230.007 139.429 230.007 141.78V148.388H226.83V142.839C226.83 141.144 226.131 140.424 224.182 140.424C222.17 140.424 221.45 141.229 221.45 143.029V148.388ZM237.269 148.599C233.626 148.599 231.296 146.439 231.296 143.093C231.296 139.704 233.626 137.565 237.269 137.565C240.679 137.565 243.008 139.386 243.008 142.14V142.436H239.853V142.267C239.853 140.911 238.857 140.424 237.205 140.424C235.32 140.424 234.452 141.123 234.452 143.093C234.452 145.041 235.32 145.74 237.205 145.74C238.857 145.74 239.853 145.253 239.853 143.898V143.728H243.008V144.025C243.008 146.757 240.679 148.599 237.269 148.599ZM247.552 136.697H244.375V134.198H247.552V136.697ZM247.552 148.388H244.375V137.777H247.552V148.388ZM254.849 148.599C251.312 148.599 248.897 146.863 248.897 143.093C248.897 139.704 251.291 137.565 254.785 137.565C258.259 137.565 260.567 139.386 260.567 142.712C260.567 143.093 260.525 143.368 260.482 143.728H251.841C251.926 145.359 252.688 146.058 254.743 146.058C256.628 146.058 257.284 145.571 257.284 144.66V144.448H260.461V144.681C260.461 146.99 258.216 148.599 254.849 148.599ZM254.722 140.043C252.837 140.043 252.032 140.678 251.884 142.055H257.517C257.433 140.657 256.585 140.043 254.722 140.043ZM267.273 148.599C263.693 148.599 261.724 147.202 261.724 144.745V144.681H264.901V144.872C264.901 145.825 265.494 146.079 267.294 146.079C268.988 146.079 269.391 145.804 269.391 145.168C269.391 144.575 269.073 144.406 267.823 144.237L264.837 143.876C262.719 143.644 261.533 142.69 261.533 140.911C261.533 139.048 263.122 137.565 266.764 137.565C270.238 137.565 272.207 138.878 272.207 141.462V141.526H269.031V141.399C269.031 140.53 268.607 140.085 266.659 140.085C265.07 140.085 264.668 140.361 264.668 141.038C264.668 141.589 264.964 141.822 266.362 141.992L268.628 142.267C271.466 142.585 272.525 143.538 272.525 145.296C272.525 147.286 270.556 148.599 267.273 148.599ZM277.683 148.388H273.595V144.681H277.683V148.388ZM285.037 148.388H281.479L287.684 134.198H292.217L298.465 148.388H294.822L293.487 145.253H286.392L285.037 148.388ZM288.955 139.302L287.621 142.394H292.259L290.925 139.302L290.056 137.099H289.823L288.955 139.302ZM306.682 148.388H304.056C301.578 148.388 300.074 147.223 300.074 144.554V140.403H298.401V137.777H300.074V135.722H303.251V137.777H306.682V140.403H303.251V144.194C303.251 145.253 303.653 145.528 304.776 145.528H306.682V148.388ZM314.317 148.388H311.14V137.777H314.084V140.996H314.253C314.507 139.217 315.566 137.565 318.235 137.565C320.692 137.565 321.941 139.069 322.174 141.038H322.365C322.619 139.238 323.699 137.565 326.431 137.565C329.163 137.565 330.498 139.365 330.498 141.78V148.388H327.321V142.839C327.321 141.081 326.707 140.424 324.885 140.424C322.958 140.424 322.407 141.187 322.407 143.029V148.388H319.23V142.839C319.23 141.081 318.616 140.424 316.795 140.424C314.867 140.424 314.317 141.187 314.317 143.029V148.388ZM334.145 151.988H332.409V149.108H335.014C335.797 149.108 336.136 148.896 336.348 148.43L331.159 137.777H334.76L337.005 142.627L337.894 145.126H338.106L338.953 142.606L340.965 137.777H344.502L339.25 149.15C338.233 151.374 336.814 151.988 334.145 151.988ZM351.711 151.988H348.535V137.777H351.478V140.678H351.69C352.072 138.645 353.427 137.565 355.926 137.565C359.188 137.565 361.009 139.725 361.009 143.093C361.009 146.46 359.23 148.599 356.032 148.599C353.575 148.599 352.22 147.392 351.86 145.528H351.711V151.988ZM351.711 143.241C351.711 145.063 352.813 145.698 354.804 145.698C356.837 145.698 357.79 145.02 357.79 143.093C357.79 141.144 356.837 140.488 354.825 140.488C352.77 140.488 351.711 141.187 351.711 143.072V143.241ZM366.714 148.599C363.728 148.599 362.309 146.757 362.309 144.385V137.777H365.486V143.326C365.486 145.041 366.206 145.761 368.218 145.761C370.294 145.761 371.035 144.957 371.035 143.156V137.777H374.212V148.388H371.247V145.147H371.077C370.802 146.926 369.51 148.599 366.714 148.599ZM379.013 148.388H375.836V137.777H378.78V140.594H378.971C379.267 138.878 380.39 137.565 382.529 137.565C384.901 137.565 385.875 139.196 385.875 141.271V143.029H382.698V141.928C382.698 140.763 382.232 140.255 380.94 140.255C379.521 140.255 379.013 140.911 379.013 142.246V148.388ZM392.384 148.599C388.805 148.599 386.835 147.202 386.835 144.745V144.681H390.012V144.872C390.012 145.825 390.605 146.079 392.405 146.079C394.099 146.079 394.502 145.804 394.502 145.168C394.502 144.575 394.184 144.406 392.935 144.237L389.948 143.876C387.83 143.644 386.644 142.69 386.644 140.911C386.644 139.048 388.233 137.565 391.876 137.565C395.349 137.565 397.319 138.878 397.319 141.462V141.526H394.142V141.399C394.142 140.53 393.718 140.085 391.77 140.085C390.181 140.085 389.779 140.361 389.779 141.038C389.779 141.589 390.075 141.822 391.473 141.992L393.739 142.267C396.577 142.585 397.636 143.538 397.636 145.296C397.636 147.286 395.667 148.599 392.384 148.599ZM404.552 148.599C401.015 148.599 398.601 146.863 398.601 143.093C398.601 139.704 400.994 137.565 404.488 137.565C407.962 137.565 410.27 139.386 410.27 142.712C410.27 143.093 410.228 143.368 410.186 143.728H401.544C401.629 145.359 402.392 146.058 404.446 146.058C406.331 146.058 406.988 145.571 406.988 144.66V144.448H410.164V144.681C410.164 146.99 407.919 148.599 404.552 148.599ZM404.425 140.043C402.54 140.043 401.735 140.678 401.587 142.055H407.221C407.136 140.657 406.289 140.043 404.425 140.043ZM40.036 174.599C36.4143 174.599 33.9787 172.439 33.9787 169.093C33.9787 165.704 36.4143 163.565 40.036 163.565C43.6577 163.565 46.0933 165.704 46.0933 169.093C46.0933 172.439 43.6577 174.599 40.036 174.599ZM40.036 171.783C42.1751 171.783 42.9376 170.957 42.9376 169.093C42.9376 167.229 42.1751 166.361 40.036 166.361C37.8757 166.361 37.1344 167.229 37.1344 169.093C37.1344 170.957 37.8757 171.783 40.036 171.783ZM55.2906 174.388H51.3724L46.5435 163.777H50.0805L53.2574 171.296H53.4692L56.6672 163.777H60.1407L55.2906 174.388ZM66.6131 174.599C63.0761 174.599 60.6617 172.863 60.6617 169.093C60.6617 165.704 63.055 163.565 66.5496 163.565C70.023 163.565 72.3315 165.386 72.3315 168.712C72.3315 169.093 72.2892 169.368 72.2468 169.728H63.6056C63.6903 171.359 64.4528 172.058 66.5072 172.058C68.3922 172.058 69.0487 171.571 69.0487 170.66V170.448H72.2256V170.681C72.2256 172.99 69.9806 174.599 66.6131 174.599ZM66.486 166.043C64.6011 166.043 63.7962 166.678 63.648 168.055H69.2817C69.197 166.657 68.3498 166.043 66.486 166.043ZM76.8556 174.388H73.6787V163.777H76.6227V166.594H76.8133C77.1098 164.878 78.2323 163.565 80.3714 163.565C82.7435 163.565 83.7177 165.196 83.7177 167.271V169.029H80.5408V167.928C80.5408 166.763 80.0749 166.255 78.783 166.255C77.3639 166.255 76.8556 166.911 76.8556 168.246V174.388ZM89.6124 174.599C86.3084 174.599 84.487 172.439 84.487 169.093C84.487 165.704 86.2872 163.565 89.4429 163.565C91.9633 163.565 93.2552 164.815 93.6153 166.594H93.8059V160.198H96.9828V174.388H94.0177V171.444H93.8483C93.4458 173.541 92.048 174.599 89.6124 174.599ZM87.7062 169.093C87.7062 171.02 88.6593 171.698 90.6925 171.698C92.7046 171.698 93.8059 170.999 93.8059 169.156V168.987C93.8059 167.144 92.7257 166.467 90.6925 166.467C88.6593 166.467 87.7062 167.144 87.7062 169.093ZM101.841 174.388H98.6637V163.777H101.608V166.594H101.798C102.095 164.878 103.217 163.565 105.356 163.565C107.729 163.565 108.703 165.196 108.703 167.271V169.029H105.526V167.928C105.526 166.763 105.06 166.255 103.768 166.255C102.349 166.255 101.841 166.911 101.841 168.246V174.388ZM113.115 174.599C110.827 174.599 109.451 173.541 109.451 171.761C109.451 170.194 110.616 169.22 112.882 168.987L117.435 168.521V168.119C117.435 166.742 116.821 166.361 115.127 166.361C113.517 166.361 112.861 166.784 112.861 167.992V168.076H109.663V168.013C109.663 165.386 111.865 163.565 115.36 163.565C118.897 163.565 120.57 165.386 120.57 168.161V174.388H117.605V171.952H117.435C116.948 173.604 115.466 174.599 113.115 174.599ZM112.649 171.55C112.649 172.122 113.094 172.354 114.026 172.354C116.186 172.354 117.351 171.846 117.435 170.342L113.75 170.766C112.988 170.83 112.649 171.041 112.649 171.55ZM126.204 174.388H123.027V166.403H121.524V163.777H123.091C123.43 161.638 125.294 160.198 128.555 160.198H129.487V162.506H128.047C126.649 162.506 125.993 162.739 126.077 163.777H130.546V161.722H133.723V163.777H137.133V166.403H133.723V170.194C133.723 171.253 134.125 171.528 135.227 171.528H137.133V174.388H134.528C132.05 174.388 130.546 173.223 130.546 170.554V166.403H126.204V174.388ZM143.692 174.599C140.113 174.599 138.143 173.202 138.143 170.745V170.681H141.32V170.872C141.32 171.825 141.913 172.079 143.713 172.079C145.408 172.079 145.81 171.804 145.81 171.168C145.81 170.575 145.492 170.406 144.243 170.237L141.256 169.876C139.138 169.644 137.952 168.69 137.952 166.911C137.952 165.048 139.541 163.565 143.184 163.565C146.657 163.565 148.627 164.878 148.627 167.462V167.526H145.45V167.399C145.45 166.53 145.026 166.085 143.078 166.085C141.489 166.085 141.087 166.361 141.087 167.038C141.087 167.589 141.383 167.822 142.781 167.992L145.048 168.267C147.886 168.585 148.945 169.538 148.945 171.296C148.945 173.286 146.975 174.599 143.692 174.599ZM156.756 174.599C154.469 174.599 153.092 173.541 153.092 171.761C153.092 170.194 154.257 169.22 156.523 168.987L161.076 168.521V168.119C161.076 166.742 160.462 166.361 158.768 166.361C157.158 166.361 156.502 166.784 156.502 167.992V168.076H153.304V168.013C153.304 165.386 155.506 163.565 159.001 163.565C162.538 163.565 164.211 165.386 164.211 168.161V174.388H161.246V171.952H161.076C160.589 173.604 159.107 174.599 156.756 174.599ZM156.29 171.55C156.29 172.122 156.735 172.354 157.667 172.354C159.827 172.354 160.992 171.846 161.076 170.342L157.391 170.766C156.629 170.83 156.29 171.041 156.29 171.55ZM168.998 174.388H165.821V163.777H168.765V166.594H168.956C169.252 164.878 170.375 163.565 172.514 163.565C174.886 163.565 175.86 165.196 175.86 167.271V169.029H172.683V167.928C172.683 166.763 172.217 166.255 170.926 166.255C169.507 166.255 168.998 166.911 168.998 168.246V174.388ZM182.644 174.599C179.108 174.599 176.693 172.863 176.693 169.093C176.693 165.704 179.086 163.565 182.581 163.565C186.054 163.565 188.363 165.386 188.363 168.712C188.363 169.093 188.321 169.368 188.278 169.728H179.637C179.722 171.359 180.484 172.058 182.539 172.058C184.424 172.058 185.08 171.571 185.08 170.66V170.448H188.257V170.681C188.257 172.99 186.012 174.599 182.644 174.599ZM182.517 166.043C180.632 166.043 179.828 166.678 179.679 168.055H185.313C185.228 166.657 184.381 166.043 182.517 166.043ZM198.633 174.599C195.011 174.599 192.576 172.439 192.576 169.093C192.576 165.704 195.011 163.565 198.633 163.565C202.255 163.565 204.69 165.704 204.69 169.093C204.69 172.439 202.255 174.599 198.633 174.599ZM198.633 171.783C200.772 171.783 201.534 170.957 201.534 169.093C201.534 167.229 200.772 166.361 198.633 166.361C196.473 166.361 195.731 167.229 195.731 169.093C195.731 170.957 196.473 171.783 198.633 171.783ZM210.012 174.388H206.835V166.403H205.331V163.777H206.898C207.237 161.638 209.101 160.198 212.363 160.198H213.294V162.506H211.854C210.456 162.506 209.8 162.739 209.885 163.777H213.294V166.403H210.012V174.388ZM218.229 174.388H215.031V166.403H213.527V163.777H215.095C215.434 161.638 217.319 160.198 220.559 160.198H221.491V162.506H220.051C218.653 162.506 217.996 162.739 218.102 163.777H221.491V166.403H218.229V174.388ZM228.188 174.599C224.651 174.599 222.237 172.863 222.237 169.093C222.237 165.704 224.63 163.565 228.125 163.565C231.598 163.565 233.907 165.386 233.907 168.712C233.907 169.093 233.864 169.368 233.822 169.728H225.181C225.266 171.359 226.028 172.058 228.082 172.058C229.967 172.058 230.624 171.571 230.624 170.66V170.448H233.801V170.681C233.801 172.99 231.556 174.599 228.188 174.599ZM228.061 166.043C226.176 166.043 225.372 166.678 225.223 168.055H230.857C230.772 166.657 229.925 166.043 228.061 166.043ZM238.431 174.388H235.254V163.777H238.198V166.594H238.389C238.685 164.878 239.808 163.565 241.947 163.565C244.319 163.565 245.293 165.196 245.293 167.271V169.029H242.116V167.928C242.116 166.763 241.65 166.255 240.358 166.255C238.939 166.255 238.431 166.911 238.431 168.246V174.388ZM252.077 174.599C248.54 174.599 246.126 172.863 246.126 169.093C246.126 165.704 248.519 163.565 252.014 163.565C255.487 163.565 257.796 165.386 257.796 168.712C257.796 169.093 257.753 169.368 257.711 169.728H249.07C249.154 171.359 249.917 172.058 251.971 172.058C253.856 172.058 254.513 171.571 254.513 170.66V170.448H257.69V170.681C257.69 172.99 255.445 174.599 252.077 174.599ZM251.95 166.043C250.065 166.043 249.26 166.678 249.112 168.055H254.746C254.661 166.657 253.814 166.043 251.95 166.043ZM263.887 174.599C260.583 174.599 258.762 172.439 258.762 169.093C258.762 165.704 260.562 163.565 263.718 163.565C266.238 163.565 267.53 164.815 267.89 166.594H268.08V160.198H271.257V174.388H268.292V171.444H268.123C267.72 173.541 266.323 174.599 263.887 174.599ZM261.981 169.093C261.981 171.02 262.934 171.698 264.967 171.698C266.979 171.698 268.08 170.999 268.08 169.156V168.987C268.08 167.144 267 166.467 264.967 166.467C262.934 166.467 261.981 167.144 261.981 169.093ZM279.468 174.599C277.18 174.599 275.804 173.541 275.804 171.761C275.804 170.194 276.969 169.22 279.235 168.987L283.788 168.521V168.119C283.788 166.742 283.174 166.361 281.48 166.361C279.87 166.361 279.214 166.784 279.214 167.992V168.076H276.016V168.013C276.016 165.386 278.218 163.565 281.713 163.565C285.25 163.565 286.923 165.386 286.923 168.161V174.388H283.958V171.952H283.788C283.301 173.604 281.819 174.599 279.468 174.599ZM279.002 171.55C279.002 172.122 279.447 172.354 280.379 172.354C282.539 172.354 283.704 171.846 283.788 170.342L280.103 170.766C279.341 170.83 279.002 171.041 279.002 171.55ZM296.01 174.388H293.383C290.905 174.388 289.402 173.223 289.402 170.554V166.403H287.728V163.777H289.402V161.722H292.579V163.777H296.01V166.403H292.579V170.194C292.579 171.253 292.981 171.528 294.103 171.528H296.01V174.388ZM307.245 174.599C302.67 174.599 300.15 171.719 300.15 167.293C300.15 162.887 302.67 159.986 307.245 159.986C311.798 159.986 314.34 162.887 314.34 167.293C314.34 171.719 311.798 174.599 307.245 174.599ZM307.245 171.507C309.935 171.507 310.93 170.342 310.93 167.293C310.93 164.243 309.935 163.078 307.245 163.078C304.534 163.078 303.56 164.243 303.56 167.293C303.56 170.342 304.534 171.507 307.245 171.507ZM322.135 162.697H318.958V160.198H322.135V162.697ZM322.135 174.388H318.958V163.777H322.135V174.388ZM326.975 174.388H323.798V163.777H326.742V167.038H326.932C327.208 165.259 328.478 163.565 331.253 163.565C334.154 163.565 335.531 165.429 335.531 167.78V174.388H332.354V168.839C332.354 167.144 331.655 166.424 329.707 166.424C327.695 166.424 326.975 167.229 326.975 169.029V174.388ZM344.615 174.388H341.988C339.51 174.388 338.007 173.223 338.007 170.554V166.403H336.333V163.777H338.007V161.722H341.184V163.777H344.615V166.403H341.184V170.194C341.184 171.253 341.586 171.528 342.708 171.528H344.615V174.388ZM351.438 174.599C347.901 174.599 345.487 172.863 345.487 169.093C345.487 165.704 347.88 163.565 351.375 163.565C354.848 163.565 357.157 165.386 357.157 168.712C357.157 169.093 357.114 169.368 357.072 169.728H348.431C348.515 171.359 349.278 172.058 351.332 172.058C353.217 172.058 353.874 171.571 353.874 170.66V170.448H357.051V170.681C357.051 172.99 354.806 174.599 351.438 174.599ZM351.311 166.043C349.426 166.043 348.621 166.678 348.473 168.055H354.107C354.022 166.657 353.175 166.043 351.311 166.043ZM361.681 174.388H358.504V163.777H361.448V166.594H361.638C361.935 164.878 363.057 163.565 365.196 163.565C367.568 163.565 368.543 165.196 368.543 167.271V169.029H365.366V167.928C365.366 166.763 364.9 166.255 363.608 166.255C362.189 166.255 361.681 166.911 361.681 168.246V174.388ZM375.327 174.599C371.79 174.599 369.376 172.863 369.376 169.093C369.376 165.704 371.769 163.565 375.263 163.565C378.737 163.565 381.045 165.386 381.045 168.712C381.045 169.093 381.003 169.368 380.961 169.728H372.319C372.404 171.359 373.167 172.058 375.221 172.058C377.106 172.058 377.763 171.571 377.763 170.66V170.448H380.939V170.681C380.939 172.99 378.694 174.599 375.327 174.599ZM375.2 166.043C373.315 166.043 372.51 166.678 372.362 168.055H377.996C377.911 166.657 377.064 166.043 375.2 166.043ZM387.751 174.599C384.172 174.599 382.202 173.202 382.202 170.745V170.681H385.379V170.872C385.379 171.825 385.972 172.079 387.772 172.079C389.466 172.079 389.869 171.804 389.869 171.168C389.869 170.575 389.551 170.406 388.302 170.237L385.315 169.876C383.197 169.644 382.011 168.69 382.011 166.911C382.011 165.048 383.6 163.565 387.243 163.565C390.716 163.565 392.686 164.878 392.686 167.462V167.526H389.509V167.399C389.509 166.53 389.085 166.085 387.137 166.085C385.548 166.085 385.146 166.361 385.146 167.038C385.146 167.589 385.442 167.822 386.84 167.992L389.106 168.267C391.944 168.585 393.003 169.538 393.003 171.296C393.003 173.286 391.034 174.599 387.751 174.599ZM401.762 174.388H399.135C396.657 174.388 395.154 173.223 395.154 170.554V166.403H393.48V163.777H395.154V161.722H398.331V163.777H401.762V166.403H398.331V170.194C398.331 171.253 398.733 171.528 399.855 171.528H401.762V174.388ZM408.31 174.599C404.73 174.599 402.761 173.202 402.761 170.745V170.681H405.938V170.872C405.938 171.825 406.531 172.079 408.331 172.079C410.025 172.079 410.428 171.804 410.428 171.168C410.428 170.575 410.11 170.406 408.86 170.237L405.874 169.876C403.756 169.644 402.57 168.69 402.57 166.911C402.57 165.048 404.159 163.565 407.801 163.565C411.275 163.565 413.245 164.878 413.245 167.462V167.526H410.068V167.399C410.068 166.53 409.644 166.085 407.696 166.085C406.107 166.085 405.705 166.361 405.705 167.038C405.705 167.589 406.001 167.822 407.399 167.992L409.665 168.267C412.503 168.585 413.562 169.538 413.562 171.296C413.562 173.286 411.593 174.599 408.31 174.599ZM418.72 174.388H414.632V170.681H418.72V174.388Z" fill="black"/>
<path d="M48.2936 541.92H39.8972L33.9481 516.693H40.2737L43.3235 531.001L44.1895 536.536H44.6037L45.7709 531.001L49.9879 516.693H58.3844L62.5638 531.001L63.731 536.536H64.1452L65.0112 531.001L68.061 516.693H74.2359L68.2492 541.92H59.8528L56.0876 529.306L54.3179 522.04H53.9038L52.1341 529.306L48.2936 541.92ZM81.8331 541.92H76.1853V516.693H81.8331V528.817H82.1344C82.7368 525.617 84.9583 522.68 89.7778 522.68C94.8608 522.68 97.3458 525.993 97.3458 530.361V541.92H91.698V532.055C91.698 528.892 90.3425 527.763 86.8032 527.763C83.0004 527.763 81.8331 529.306 81.8331 532.469V541.92ZM105.994 542.296C101.928 542.296 99.4805 540.414 99.4805 537.251C99.4805 534.465 101.551 532.733 105.58 532.319L113.675 531.49V530.775C113.675 528.327 112.583 527.65 109.571 527.65C106.71 527.65 105.543 528.403 105.543 530.549V530.7H99.8571V530.587C99.8571 525.918 103.773 522.68 109.985 522.68C116.273 522.68 119.248 525.918 119.248 530.85V541.92H113.977V537.59H113.675C112.809 540.527 110.174 542.296 105.994 542.296ZM105.166 536.875C105.166 537.891 105.957 538.305 107.613 538.305C111.454 538.305 113.525 537.402 113.675 534.728L107.124 535.481C105.768 535.594 105.166 535.971 105.166 536.875ZM135.402 541.92H130.733C126.328 541.92 123.654 539.849 123.654 535.105V527.725H120.68V523.056H123.654V519.404H129.302V523.056H135.402V527.725H129.302V534.465C129.302 536.347 130.018 536.837 132.013 536.837H135.402V541.92ZM149.125 542.296C145.059 542.296 142.611 540.414 142.611 537.251C142.611 534.465 144.682 532.733 148.711 532.319L156.806 531.49V530.775C156.806 528.327 155.714 527.65 152.702 527.65C149.841 527.65 148.673 528.403 148.673 530.549V530.7H142.988V530.587C142.988 525.918 146.904 522.68 153.116 522.68C159.404 522.68 162.379 525.918 162.379 530.85V541.92H157.107V537.59H156.806C155.94 540.527 153.305 542.296 149.125 542.296ZM148.297 536.875C148.297 537.891 149.088 538.305 150.744 538.305C154.585 538.305 156.656 537.402 156.806 534.728L150.255 535.481C148.899 535.594 148.297 535.971 148.297 536.875ZM170.889 541.92H165.242V523.056H170.475V528.064H170.814C171.341 525.014 173.337 522.68 177.14 522.68C181.357 522.68 183.089 525.579 183.089 529.269V532.394H177.441V530.436C177.441 528.365 176.612 527.461 174.316 527.461C171.793 527.461 170.889 528.629 170.889 531.001V541.92ZM195.149 542.296C188.862 542.296 184.569 539.209 184.569 532.507C184.569 526.483 188.824 522.68 195.036 522.68C201.211 522.68 205.316 525.918 205.316 531.829C205.316 532.507 205.24 532.996 205.165 533.636H189.803C189.953 536.536 191.309 537.778 194.961 537.778C198.312 537.778 199.479 536.912 199.479 535.293V534.917H205.127V535.331C205.127 539.435 201.136 542.296 195.149 542.296ZM194.924 527.085C191.572 527.085 190.142 528.215 189.878 530.662H199.894C199.743 528.177 198.237 527.085 194.924 527.085ZM45.0932 588.296C38.6546 588.296 34.3246 584.456 34.3246 578.507C34.3246 572.483 38.6546 568.68 45.0932 568.68C51.5317 568.68 55.8617 572.483 55.8617 578.507C55.8617 584.456 51.5317 588.296 45.0932 588.296ZM45.0932 583.289C48.896 583.289 50.2515 581.82 50.2515 578.507C50.2515 575.193 48.896 573.65 45.0932 573.65C41.2526 573.65 39.9348 575.193 39.9348 578.507C39.9348 581.82 41.2526 583.289 45.0932 583.289ZM72.2124 587.92H65.2468L56.6621 569.056H62.95L68.5978 582.423H68.9743L74.6598 569.056H80.8348L72.2124 587.92ZM92.3413 588.296C86.0534 588.296 81.7611 585.209 81.7611 578.507C81.7611 572.483 86.0158 568.68 92.2284 568.68C98.4033 568.68 102.507 571.918 102.507 577.829C102.507 578.507 102.432 578.996 102.357 579.636H86.9947C87.1453 582.536 88.5008 583.778 92.1531 583.778C95.5041 583.778 96.6713 582.912 96.6713 581.293V580.917H102.319V581.331C102.319 585.435 98.328 588.296 92.3413 588.296ZM92.1154 573.085C88.7644 573.085 87.3336 574.215 87.07 576.662H97.0855C96.9349 574.177 95.4288 573.085 92.1154 573.085ZM110.55 587.92H104.902V569.056H110.136V574.064H110.475C111.002 571.014 112.998 568.68 116.801 568.68C121.018 568.68 122.75 571.579 122.75 575.269V578.394H117.102V576.436C117.102 574.365 116.273 573.461 113.977 573.461C111.454 573.461 110.55 574.629 110.55 577.001V587.92ZM133.229 588.296C127.355 588.296 124.117 584.456 124.117 578.507C124.117 572.483 127.318 568.68 132.928 568.68C137.408 568.68 139.705 570.901 140.345 574.064H140.684V562.693H146.332V587.92H141.061V582.686H140.759C140.044 586.414 137.559 588.296 133.229 588.296ZM129.84 578.507C129.84 581.933 131.535 583.138 135.149 583.138C138.726 583.138 140.684 581.896 140.684 578.62V578.319C140.684 575.043 138.764 573.838 135.149 573.838C131.535 573.838 129.84 575.043 129.84 578.507ZM154.968 587.92H149.32V569.056H154.554V574.064H154.893C155.42 571.014 157.415 568.68 161.218 568.68C165.435 568.68 167.167 571.579 167.167 575.269V578.394H161.52V576.436C161.52 574.365 160.691 573.461 158.394 573.461C155.872 573.461 154.968 574.629 154.968 577.001V587.92ZM175.011 588.296C170.945 588.296 168.497 586.414 168.497 583.251C168.497 580.465 170.568 578.733 174.597 578.319L182.692 577.49V576.775C182.692 574.327 181.6 573.65 178.588 573.65C175.726 573.65 174.559 574.403 174.559 576.549V576.7H168.874V576.587C168.874 571.918 172.79 568.68 179.002 568.68C185.29 568.68 188.265 571.918 188.265 576.85V587.92H182.993V583.59H182.692C181.826 586.527 179.19 588.296 175.011 588.296ZM174.183 582.875C174.183 583.891 174.973 584.305 176.63 584.305C180.471 584.305 182.542 583.402 182.692 580.728L176.141 581.481C174.785 581.594 174.183 581.971 174.183 582.875ZM198.281 587.92H192.633V573.725H189.96V569.056H192.746C193.349 565.253 196.662 562.693 202.461 562.693H204.117V566.797H201.557C199.072 566.797 197.905 567.211 198.055 569.056H206V565.404H211.648V569.056H217.71V573.725H211.648V580.465C211.648 582.347 212.363 582.837 214.321 582.837H217.71V587.92H213.079C208.673 587.92 206 585.849 206 581.105V573.725H198.281V587.92ZM229.371 588.296C223.007 588.296 219.506 585.811 219.506 581.444V581.331H225.153V581.67C225.153 583.364 226.208 583.816 229.408 583.816C232.42 583.816 233.136 583.326 233.136 582.197C233.136 581.143 232.571 580.841 230.349 580.54L225.041 579.9C221.275 579.486 219.167 577.791 219.167 574.629C219.167 571.315 221.991 568.68 228.467 568.68C234.642 568.68 238.143 571.014 238.143 575.608V575.721H232.496V575.495C232.496 573.951 231.743 573.16 228.279 573.16C225.455 573.16 224.739 573.65 224.739 574.855C224.739 575.834 225.266 576.248 227.751 576.549L231.78 577.038C236.826 577.603 238.708 579.298 238.708 582.423C238.708 585.962 235.207 588.296 229.371 588.296ZM252.622 579.599H246.974V578.281C246.974 575.532 248.894 574.252 251.228 573.349L253.864 572.294C255.671 571.579 256.537 571.014 256.537 569.734C256.537 568.454 255.784 567.475 251.417 567.475C246.823 567.475 245.43 568.68 245.43 571.089V572.558H239.858V571.541C239.858 566.646 243.209 562.316 251.831 562.316C259.248 562.316 262.185 565.555 262.185 569.546C262.185 573.461 259.512 575.043 257.027 576.022L254.241 577.114C252.848 577.679 252.622 578.206 252.622 579.147V579.599ZM253.073 587.92H246.597V581.783H253.073V587.92Z" fill="white"/>
<path d="M377.68 588.165H375.562V581.331H373.133V579.877H373.528C374.573 579.877 375.279 579.637 375.745 578.705H377.68V588.165ZM383.328 588.306C380.279 588.306 378.598 586.386 378.598 583.435C378.598 580.498 380.279 578.564 383.328 578.564C386.364 578.564 388.058 580.498 388.058 583.435C388.058 586.386 386.364 588.306 383.328 588.306ZM383.328 586.245C385.122 586.245 385.785 585.468 385.785 583.435C385.785 581.402 385.122 580.625 383.328 580.625C381.521 580.625 380.872 581.402 380.872 583.435C380.872 585.468 381.521 586.245 383.328 586.245ZM390.37 588.447H388.111L393.194 578.423H395.454L390.37 588.447ZM399.444 588.165H397.001C397.001 583.915 399.43 582.037 401.209 580.766V580.611H395.236V578.705H403.411V580.413C400.785 582.898 399.444 584.607 399.444 588.165ZM405.414 588.447H403.155L408.238 578.423H410.497L405.414 588.447ZM418.864 588.165H410.463V586.81C410.463 585.143 411.183 584.282 413.174 583.619L415.603 582.828C416.45 582.531 416.76 582.249 416.76 581.628C416.76 580.908 416.365 580.498 414.812 580.498C413.075 580.498 412.553 581.021 412.553 582.065V582.249H410.477V582.065C410.477 580.23 411.734 578.564 414.883 578.564C417.735 578.564 418.893 579.863 418.893 581.656C418.893 583.336 417.791 584.169 416.111 584.635L414.05 585.2C413.132 585.482 412.694 585.751 412.694 586.499L415.165 586.259H418.864V588.165ZM424.308 588.306C421.258 588.306 419.578 586.386 419.578 583.435C419.578 580.498 421.258 578.564 424.308 578.564C427.344 578.564 429.038 580.498 429.038 583.435C429.038 586.386 427.344 588.306 424.308 588.306ZM424.308 586.245C426.101 586.245 426.765 585.468 426.765 583.435C426.765 581.402 426.101 580.625 424.308 580.625C422.501 580.625 421.851 581.402 421.851 583.435C421.851 585.468 422.501 586.245 424.308 586.245ZM438.099 588.165H429.698V586.81C429.698 585.143 430.418 584.282 432.409 583.619L434.838 582.828C435.685 582.531 435.996 582.249 435.996 581.628C435.996 580.908 435.6 580.498 434.047 580.498C432.31 580.498 431.788 581.021 431.788 582.065V582.249H429.712V582.065C429.712 580.23 430.969 578.564 434.118 578.564C436.97 578.564 438.128 579.863 438.128 581.656C438.128 583.336 437.026 584.169 435.346 584.635L433.285 585.2C432.367 585.482 431.929 585.751 431.929 586.499L434.4 586.259H438.099V588.165ZM446.791 588.165H444.673V586.358H438.672V584.918L444.334 578.705H446.791V584.452H448.231V586.358H446.791V588.165ZM441.623 584.452H444.673V581.148H444.518L441.623 584.296V584.452Z" fill="white"/>
<path d="M463.659 482.181C499.329 493.046 537.053 472.938 547.918 437.269C558.783 401.599 538.675 363.875 503.006 353.01C467.336 342.145 429.612 362.253 418.747 397.922C407.882 433.592 427.99 471.316 463.659 482.181Z" stroke="black" stroke-width="14.4573" stroke-miterlimit="10"/>
<path d="M572.754 493.172C613.994 493.266 647.525 449.911 647.648 396.335C647.77 342.759 614.438 299.251 573.198 299.156C531.958 299.062 498.427 342.417 498.305 395.993C498.182 449.569 531.514 493.078 572.754 493.172Z" stroke="black" stroke-width="14.4573" stroke-miterlimit="10"/>
<path d="M617.578 357.984C658.818 358.079 692.349 314.723 692.471 261.147C692.594 207.571 659.262 164.063 618.022 163.969C576.782 163.874 543.251 207.23 543.128 260.806C543.006 314.382 576.338 357.89 617.578 357.984Z" stroke="black" stroke-width="14.4573" stroke-miterlimit="10"/>
<path d="M37.558 403.374L34.3811 403.374L34.3811 389.184L38.6805 389.184L42.0057 396.173L43.34 399.498L43.5729 399.498L44.8649 396.173L48.0841 389.184L52.4047 389.184L52.4047 403.374L49.2278 403.374L49.2278 396.173L49.3337 393.949L49.1008 393.949L48.2748 396.173L45.3097 402.527L41.455 402.527L38.4899 396.173L37.6639 393.949L37.4309 393.949L37.558 396.173L37.558 403.374ZM56.1045 406.975L54.3678 406.975L54.3678 404.094L56.9729 404.094C57.7565 404.094 58.0954 403.882 58.3072 403.416L53.1182 392.763L56.7187 392.763L58.9637 397.613L59.8532 400.112L60.065 400.112L60.9122 397.592L62.9243 392.763L66.4612 392.763L61.2087 404.136C60.1921 406.36 58.7731 406.975 56.1045 406.975ZM73.6705 406.975L70.4936 406.975L70.4936 392.763L73.4375 392.763L73.4375 395.665L73.6493 395.665C74.0305 393.632 75.386 392.551 77.8851 392.551C81.1468 392.551 82.9682 394.712 82.9682 398.079C82.9682 401.447 81.1891 403.586 77.991 403.586C75.5342 403.586 74.1788 402.379 73.8187 400.515L73.6705 400.515L73.6705 406.975ZM73.6705 398.227C73.6705 400.049 74.7718 400.684 76.7626 400.684C78.7959 400.684 79.7489 400.007 79.7489 398.079C79.7489 396.131 78.7959 395.474 76.7838 395.474C74.7294 395.474 73.6705 396.173 73.6705 398.058L73.6705 398.227ZM88.6732 403.586C85.6869 403.586 84.2679 401.743 84.2679 399.371L84.2679 392.763L87.4448 392.763L87.4448 398.312C87.4448 400.028 88.1649 400.748 90.1769 400.748C92.2525 400.748 92.9938 399.943 92.9938 398.143L92.9938 392.763L96.1707 392.763L96.1707 403.374L93.2056 403.374L93.2056 400.134L93.0362 400.134C92.7608 401.913 91.4689 403.586 88.6732 403.586ZM100.972 403.374L97.7951 403.374L97.7951 392.763L100.739 392.763L100.739 395.58L100.93 395.58C101.226 393.864 102.349 392.551 104.488 392.551C106.86 392.551 107.834 394.182 107.834 396.258L107.834 398.016L104.657 398.016L104.657 396.914C104.657 395.749 104.191 395.241 102.899 395.241C101.48 395.241 100.972 395.898 100.972 397.232L100.972 403.374ZM114.343 403.586C110.764 403.586 108.794 402.188 108.794 399.731L108.794 399.668L111.971 399.668L111.971 399.858C111.971 400.811 112.564 401.065 114.364 401.065C116.058 401.065 116.461 400.79 116.461 400.155C116.461 399.562 116.143 399.392 114.894 399.223L111.907 398.863C109.789 398.63 108.603 397.677 108.603 395.898C108.603 394.034 110.192 392.551 113.835 392.551C117.308 392.551 119.278 393.864 119.278 396.448L119.278 396.512L116.101 396.512L116.101 396.385C116.101 395.516 115.677 395.072 113.729 395.072C112.14 395.072 111.738 395.347 111.738 396.025C111.738 396.575 112.034 396.808 113.432 396.978L115.698 397.253C118.536 397.571 119.595 398.524 119.595 400.282C119.595 402.273 117.626 403.586 114.343 403.586ZM126.511 403.586C122.974 403.586 120.56 401.849 120.56 398.079C120.56 394.69 122.953 392.551 126.447 392.551C129.921 392.551 132.229 394.373 132.229 397.698C132.229 398.079 132.187 398.355 132.145 398.715L123.503 398.715C123.588 400.345 124.351 401.044 126.405 401.044C128.29 401.044 128.947 400.557 128.947 399.646L128.947 399.435L132.123 399.435L132.123 399.668C132.123 401.976 129.878 403.586 126.511 403.586ZM126.384 395.029C124.499 395.029 123.694 395.665 123.546 397.041L129.18 397.041C129.095 395.644 128.248 395.029 126.384 395.029ZM140.021 403.374L136.844 403.374L136.844 389.184L140.021 389.184L140.021 394.818L147.434 394.818L147.434 389.184L150.611 389.184L150.611 403.374L147.434 403.374L147.434 397.677L140.021 397.677L140.021 403.374ZM165.319 406.36L161.189 406.36L158.987 403.565C154.645 403.31 151.998 400.494 151.998 396.279C151.998 391.852 154.92 388.972 159.622 388.972C164.43 388.972 167.331 391.852 167.331 396.279C167.331 399.731 165.574 402.252 162.503 403.183L165.319 406.36ZM159.622 400.536C162.736 400.536 163.943 399.435 163.943 396.279C163.943 393.123 162.736 392.022 159.622 392.022C156.509 392.022 155.365 393.123 155.365 396.279C155.365 399.435 156.509 400.536 159.622 400.536Z" fill="black"/>
<path d="M479.806 588.165L477.688 588.165L477.688 581.091L479.651 581.091L479.651 583.237L479.764 583.237C479.933 582.051 480.639 580.95 482.418 580.95C484.056 580.95 484.889 581.952 485.045 583.266L485.172 583.266C485.341 582.065 486.061 580.95 487.883 580.95C489.704 580.95 490.594 582.15 490.594 583.76L490.594 588.165L488.476 588.165L488.476 584.466C488.476 583.294 488.066 582.856 486.852 582.856C485.567 582.856 485.2 583.364 485.2 584.593L485.2 588.165L483.082 588.165L483.082 584.466C483.082 583.294 482.673 582.856 481.458 582.856C480.173 582.856 479.806 583.364 479.806 584.593L479.806 588.165ZM493.026 590.565L491.868 590.565L491.868 588.645L493.604 588.645C494.127 588.645 494.353 588.504 494.494 588.193L491.035 581.091L493.435 581.091L494.932 584.325L495.525 585.991L495.666 585.991L496.231 584.31L497.572 581.091L499.93 581.091L496.428 588.673C495.751 590.156 494.805 590.565 493.026 590.565ZM502.558 590.565L500.44 590.565L500.44 581.091L502.402 581.091L502.402 583.026L502.543 583.026C502.798 581.67 503.701 580.95 505.367 580.95C507.542 580.95 508.756 582.39 508.756 584.635C508.756 586.88 507.57 588.306 505.438 588.306C503.8 588.306 502.896 587.501 502.656 586.259L502.558 586.259L502.558 590.565ZM502.558 584.734C502.558 585.948 503.292 586.372 504.619 586.372C505.975 586.372 506.61 585.92 506.61 584.635C506.61 583.336 505.975 582.898 504.633 582.898C503.264 582.898 502.558 583.364 502.558 584.621L502.558 584.734ZM512.559 588.306C510.569 588.306 509.623 587.078 509.623 585.496L509.623 581.091L511.74 581.091L511.74 584.79C511.74 585.934 512.221 586.414 513.562 586.414C514.946 586.414 515.44 585.878 515.44 584.678L515.44 581.091L517.558 581.091L517.558 588.165L515.581 588.165L515.581 586.005L515.468 586.005C515.285 587.191 514.423 588.306 512.559 588.306ZM520.759 588.165L518.641 588.165L518.641 581.091L520.603 581.091L520.603 582.969L520.73 582.969C520.928 581.825 521.676 580.95 523.102 580.95C524.684 580.95 525.333 582.037 525.333 583.421L525.333 584.593L523.215 584.593L523.215 583.859C523.215 583.082 522.905 582.743 522.043 582.743C521.097 582.743 520.759 583.181 520.759 584.07L520.759 588.165ZM529.673 588.306C527.286 588.306 525.973 587.374 525.973 585.736L525.973 585.694L528.091 585.694L528.091 585.821C528.091 586.457 528.487 586.626 529.687 586.626C530.816 586.626 531.085 586.442 531.085 586.019C531.085 585.624 530.873 585.511 530.04 585.398L528.049 585.158C526.637 585.002 525.846 584.367 525.846 583.181C525.846 581.938 526.905 580.95 529.334 580.95C531.649 580.95 532.962 581.825 532.962 583.548L532.962 583.59L530.844 583.59L530.844 583.506C530.844 582.927 530.562 582.63 529.263 582.63C528.204 582.63 527.936 582.814 527.936 583.266C527.936 583.633 528.134 583.788 529.065 583.901L530.576 584.084C532.468 584.296 533.174 584.932 533.174 586.104C533.174 587.431 531.861 588.306 529.673 588.306ZM537.785 588.306C535.427 588.306 533.817 587.148 533.817 584.635C533.817 582.376 535.412 580.95 537.742 580.95C540.058 580.95 541.597 582.164 541.597 584.381C541.597 584.635 541.569 584.819 541.54 585.059L535.78 585.059C535.836 586.146 536.344 586.612 537.714 586.612C538.971 586.612 539.408 586.287 539.408 585.68L539.408 585.539L541.526 585.539L541.526 585.694C541.526 587.233 540.03 588.306 537.785 588.306ZM537.7 582.602C536.443 582.602 535.907 583.026 535.808 583.943L539.564 583.943C539.507 583.011 538.942 582.602 537.7 582.602ZM544.613 590.565L542.495 590.565L542.495 581.091L544.458 581.091L544.458 583.026L544.599 583.026C544.853 581.67 545.757 580.95 547.423 580.95C549.597 580.95 550.811 582.39 550.811 584.635C550.811 586.88 549.625 588.306 547.493 588.306C545.855 588.306 544.952 587.501 544.712 586.259L544.613 586.259L544.613 590.565ZM544.613 584.734C544.613 585.948 545.347 586.372 546.674 586.372C548.03 586.372 548.665 585.92 548.665 584.635C548.665 583.336 548.03 582.898 546.689 582.898C545.319 582.898 544.613 583.364 544.613 584.621L544.613 584.734ZM553.866 588.306C552.342 588.306 551.424 587.6 551.424 586.414C551.424 585.369 552.2 584.72 553.711 584.565L556.747 584.254L556.747 583.986C556.747 583.068 556.337 582.814 555.208 582.814C554.135 582.814 553.697 583.096 553.697 583.901L553.697 583.957L551.565 583.957L551.565 583.915C551.565 582.164 553.033 580.95 555.363 580.95C557.721 580.95 558.837 582.164 558.837 584.014L558.837 588.165L556.86 588.165L556.86 586.541L556.747 586.541C556.422 587.643 555.434 588.306 553.866 588.306ZM553.556 586.273C553.556 586.654 553.852 586.81 554.474 586.81C555.914 586.81 556.69 586.471 556.747 585.468L554.29 585.751C553.782 585.793 553.556 585.934 553.556 586.273ZM561.266 590.565L560.108 590.565L560.108 588.645L561.844 588.645C562.367 588.645 562.593 588.504 562.734 588.193L559.275 581.091L561.675 581.091L563.172 584.325L563.765 585.991L563.906 585.991L564.471 584.31L565.812 581.091L568.17 581.091L564.668 588.673C563.991 590.156 563.045 590.565 561.266 590.565ZM571.264 588.165L568.538 588.165L568.538 585.694L571.264 585.694L571.264 588.165ZM576.021 588.306C573.592 588.306 572.039 586.866 572.039 584.635C572.039 582.376 573.592 580.95 576.021 580.95C578.294 580.95 579.847 582.164 579.847 584L579.847 584.197L577.743 584.197L577.743 584.084C577.743 583.181 577.08 582.856 575.978 582.856C574.722 582.856 574.143 583.322 574.143 584.635C574.143 585.934 574.722 586.4 575.978 586.4C577.08 586.4 577.743 586.075 577.743 585.172L577.743 585.059L579.847 585.059L579.847 585.256C579.847 587.078 578.294 588.306 576.021 588.306ZM584.528 588.306C582.114 588.306 580.49 586.866 580.49 584.635C580.49 582.376 582.114 580.95 584.528 580.95C586.943 580.95 588.567 582.376 588.567 584.635C588.567 586.866 586.943 588.306 584.528 588.306ZM584.528 586.428C585.954 586.428 586.463 585.878 586.463 584.635C586.463 583.393 585.954 582.814 584.528 582.814C583.088 582.814 582.594 583.393 582.594 584.635C582.594 585.878 583.088 586.428 584.528 586.428ZM591.549 588.165L589.432 588.165L589.432 581.091L591.394 581.091L591.394 583.237L591.507 583.237C591.677 582.051 592.383 580.95 594.162 580.95C595.799 580.95 596.632 581.952 596.788 583.266L596.915 583.266C597.084 582.065 597.804 580.95 599.626 580.95C601.447 580.95 602.337 582.15 602.337 583.76L602.337 588.165L600.219 588.165L600.219 584.466C600.219 583.294 599.809 582.856 598.595 582.856C597.31 582.856 596.943 583.364 596.943 584.593L596.943 588.165L594.825 588.165L594.825 584.466C594.825 583.294 594.416 582.856 593.201 582.856C591.917 582.856 591.549 583.364 591.549 584.593L591.549 588.165Z" fill="white"/>
</g>
<defs>
<clipPath id="clip0_701_701">
<rect width="635.38" height="635.38" fill="white" transform="translate(0 0.380859)"/>
</clipPath>
</defs>
</svg>
