<svg width="636" height="636" viewBox="0 0 636 636" fill="none" xmlns="http://www.w3.org/2000/svg">
<g clip-path="url(#clip0_701_679)">
<rect width="635.38" height="635.38" fill="#FF0ACB"/>
<rect y="423.587" width="635.38" height="211.793" fill="black"/>
<path d="M41.8362 70.0068H37.1132L33.7669 55.8167H37.325L39.0406 63.8648L39.5277 66.9782H39.7607L40.4172 63.8648L42.7893 55.8167H47.5123L49.8632 63.8648L50.5198 66.9782H50.7527L51.2399 63.8648L52.9554 55.8167H56.4288L53.0613 70.0068H48.3383L46.2204 62.9118L45.2249 58.8241H44.992L43.9965 62.9118L41.8362 70.0068ZM63.159 70.2186C59.6221 70.2186 57.2076 68.4819 57.2076 64.712C57.2076 61.3233 59.6009 59.1842 63.0955 59.1842C66.5689 59.1842 68.8775 61.0056 68.8775 64.3308C68.8775 64.712 68.8351 64.9873 68.7928 65.3474H60.1516C60.2363 66.9782 60.9988 67.6771 63.0531 67.6771C64.9381 67.6771 65.5947 67.19 65.5947 66.2793V66.0675H68.7716V66.3004C68.7716 68.609 66.5266 70.2186 63.159 70.2186ZM63.032 61.6622C61.147 61.6622 60.3422 62.2976 60.1939 63.6742H65.8276C65.7429 62.2764 64.8958 61.6622 63.032 61.6622ZM76.6695 70.0068H73.4926V55.8167H76.6695V70.0068ZM83.9873 70.2186C80.3656 70.2186 77.93 68.0583 77.93 64.712C77.93 61.3233 80.3656 59.1842 83.9873 59.1842C87.6089 59.1842 90.0446 61.3233 90.0446 64.712C90.0446 68.0583 87.6089 70.2186 83.9873 70.2186ZM83.9873 67.4018C86.1264 67.4018 86.8888 66.5758 86.8888 64.712C86.8888 62.8482 86.1264 61.9799 83.9873 61.9799C81.827 61.9799 81.0857 62.8482 81.0857 64.712C81.0857 66.5758 81.827 67.4018 83.9873 67.4018ZM99.2419 70.0068H95.3237L90.4948 59.396H94.0317L97.2087 66.9147H97.4204L100.619 59.396H104.092L99.2419 70.0068ZM110.564 70.2186C107.027 70.2186 104.613 68.4819 104.613 64.712C104.613 61.3233 107.006 59.1842 110.501 59.1842C113.974 59.1842 116.283 61.0056 116.283 64.3308C116.283 64.712 116.24 64.9873 116.198 65.3474H107.557C107.642 66.9782 108.404 67.6771 110.458 67.6771C112.343 67.6771 113 67.19 113 66.2793V66.0675H116.177V66.3004C116.177 68.609 113.932 70.2186 110.564 70.2186ZM110.437 61.6622C108.552 61.6622 107.748 62.2976 107.599 63.6742H113.233C113.148 62.2764 112.301 61.6622 110.437 61.6622ZM125.642 70.2186C122.338 70.2186 120.517 68.0583 120.517 64.712C120.517 61.3233 122.317 59.1842 125.473 59.1842C127.993 59.1842 129.285 60.4338 129.645 62.2128H129.836V55.8167H133.013V70.0068H130.047V67.0629H129.878C129.476 69.1597 128.078 70.2186 125.642 70.2186ZM123.736 64.712C123.736 66.6393 124.689 67.3171 126.722 67.3171C128.734 67.3171 129.836 66.6181 129.836 64.7755V64.6061C129.836 62.7635 128.755 62.0858 126.722 62.0858C124.689 62.0858 123.736 62.7635 123.736 64.712ZM137.955 70.2186C135.668 70.2186 134.291 69.1597 134.291 67.3806C134.291 65.8133 135.456 64.8391 137.722 64.6061L142.276 64.1402V63.7377C142.276 62.3611 141.661 61.9799 139.967 61.9799C138.357 61.9799 137.701 62.4034 137.701 63.6107V63.6954H134.503V63.6319C134.503 61.0056 136.705 59.1842 140.2 59.1842C143.737 59.1842 145.41 61.0056 145.41 63.7801V70.0068H142.445V67.5712H142.276C141.789 69.2232 140.306 70.2186 137.955 70.2186ZM137.489 67.1688C137.489 67.7406 137.934 67.9736 138.866 67.9736C141.026 67.9736 142.191 67.4653 142.276 65.9616L138.59 66.3852C137.828 66.4487 137.489 66.6605 137.489 67.1688ZM154.497 70.0068H151.871C149.393 70.0068 147.889 68.842 147.889 66.1734V62.0222H146.216V59.396H147.889V57.3416H151.066V59.396H154.497V62.0222H151.066V65.8133C151.066 66.8723 151.468 67.1476 152.591 67.1476H154.497V70.0068ZM158.948 70.2186C156.661 70.2186 155.284 69.1597 155.284 67.3806C155.284 65.8133 156.449 64.8391 158.715 64.6061L163.269 64.1402V63.7377C163.269 62.3611 162.655 61.9799 160.96 61.9799C159.351 61.9799 158.694 62.4034 158.694 63.6107V63.6954H155.496V63.6319C155.496 61.0056 157.699 59.1842 161.193 59.1842C164.73 59.1842 166.403 61.0056 166.403 63.7801V70.0068H163.438V67.5712H163.269C162.782 69.2232 161.299 70.2186 158.948 70.2186ZM158.482 67.1688C158.482 67.7406 158.927 67.9736 159.859 67.9736C162.019 67.9736 163.184 67.4653 163.269 65.9616L159.584 66.3852C158.821 66.4487 158.482 66.6605 158.482 67.1688ZM169.051 72.9931H167.929V71.0234H168.967C169.39 71.0234 169.602 70.9175 169.602 70.3669V70.0068H167.802V66.3004H171.89V70.3457C171.89 72.1248 170.852 72.9931 169.051 72.9931ZM179.9 70.2186C177.613 70.2186 176.236 69.1597 176.236 67.3806C176.236 65.8133 177.401 64.8391 179.667 64.6061L184.221 64.1402V63.7377C184.221 62.3611 183.607 61.9799 181.912 61.9799C180.303 61.9799 179.646 62.4034 179.646 63.6107V63.6954H176.448V63.6319C176.448 61.0056 178.651 59.1842 182.145 59.1842C185.682 59.1842 187.355 61.0056 187.355 63.7801V70.0068H184.39V67.5712H184.221C183.734 69.2232 182.251 70.2186 179.9 70.2186ZM179.434 67.1688C179.434 67.7406 179.879 67.9736 180.811 67.9736C182.971 67.9736 184.136 67.4653 184.221 65.9616L180.535 66.3852C179.773 66.4487 179.434 66.6605 179.434 67.1688ZM192.142 70.0068H188.966V59.396H191.909V62.6576H192.1C192.375 60.8785 193.646 59.1842 196.421 59.1842C199.322 59.1842 200.699 61.048 200.699 63.3989V70.0068H197.522V64.4578C197.522 62.7635 196.823 62.0434 194.875 62.0434C192.863 62.0434 192.142 62.8482 192.142 64.6485V70.0068ZM207.05 70.2186C203.746 70.2186 201.925 68.0583 201.925 64.712C201.925 61.3233 203.725 59.1842 206.881 59.1842C209.401 59.1842 210.693 60.4338 211.053 62.2128H211.244V55.8167H214.421V70.0068H211.456V67.0629H211.286C210.884 69.1597 209.486 70.2186 207.05 70.2186ZM205.144 64.712C205.144 66.6393 206.097 67.3171 208.13 67.3171C210.142 67.3171 211.244 66.6181 211.244 64.7755V64.6061C211.244 62.7635 210.164 62.0858 208.13 62.0858C206.097 62.0858 205.144 62.7635 205.144 64.712ZM225.384 70.0068H221.424L218.522 59.396H221.805L223.055 64.2461L223.499 67.55H223.711L224.558 63.9284L226.168 59.396H230.256L231.844 63.9284L232.691 67.55H232.903L233.369 64.2461L234.597 59.396H237.838L234.83 70.0068H230.87L229.048 64.9026L228.265 61.9799H228.032L227.227 64.9026L225.384 70.0068ZM244.321 70.2186C240.784 70.2186 238.37 68.4819 238.37 64.712C238.37 61.3233 240.763 59.1842 244.258 59.1842C247.731 59.1842 250.039 61.0056 250.039 64.3308C250.039 64.712 249.997 64.9873 249.955 65.3474H241.314C241.398 66.9782 242.161 67.6771 244.215 67.6771C246.1 67.6771 246.757 67.19 246.757 66.2793V66.0675H249.934V66.3004C249.934 68.609 247.689 70.2186 244.321 70.2186ZM244.194 61.6622C242.309 61.6622 241.504 62.2976 241.356 63.6742H246.99C246.905 62.2764 246.058 61.6622 244.194 61.6622ZM257.832 70.0068H254.655V55.8167H257.832V70.0068ZM265.149 70.2186C261.528 70.2186 259.092 68.0583 259.092 64.712C259.092 61.3233 261.528 59.1842 265.149 59.1842C268.771 59.1842 271.207 61.3233 271.207 64.712C271.207 68.0583 268.771 70.2186 265.149 70.2186ZM265.149 67.4018C267.288 67.4018 268.051 66.5758 268.051 64.712C268.051 62.8482 267.288 61.9799 265.149 61.9799C262.989 61.9799 262.248 62.8482 262.248 64.712C262.248 66.5758 262.989 67.4018 265.149 67.4018ZM280.404 70.0068H276.486L271.657 59.396H275.194L278.371 66.9147H278.582L281.781 59.396H285.254L280.404 70.0068ZM291.726 70.2186C288.189 70.2186 285.775 68.4819 285.775 64.712C285.775 61.3233 288.168 59.1842 291.663 59.1842C295.136 59.1842 297.445 61.0056 297.445 64.3308C297.445 64.712 297.402 64.9873 297.36 65.3474H288.719C288.804 66.9782 289.566 67.6771 291.621 67.6771C293.505 67.6771 294.162 67.19 294.162 66.2793V66.0675H297.339V66.3004C297.339 68.609 295.094 70.2186 291.726 70.2186ZM291.599 61.6622C289.714 61.6622 288.91 62.2976 288.761 63.6742H294.395C294.31 62.2764 293.463 61.6622 291.599 61.6622ZM305.237 70.0068H302.06V55.8167H305.237V70.0068ZM312.533 70.2186C308.997 70.2186 306.582 68.4819 306.582 64.712C306.582 61.3233 308.975 59.1842 312.47 59.1842C315.943 59.1842 318.252 61.0056 318.252 64.3308C318.252 64.712 318.21 64.9873 318.167 65.3474H309.526C309.611 66.9782 310.373 67.6771 312.428 67.6771C314.313 67.6771 314.969 67.19 314.969 66.2793V66.0675H318.146V66.3004C318.146 68.609 315.901 70.2186 312.533 70.2186ZM312.406 61.6622C310.521 61.6622 309.717 62.2976 309.568 63.6742H315.202C315.117 62.2764 314.27 61.6622 312.406 61.6622ZM322.861 70.2186C320.573 70.2186 319.197 69.1597 319.197 67.3806C319.197 65.8133 320.362 64.8391 322.628 64.6061L327.181 64.1402V63.7377C327.181 62.3611 326.567 61.9799 324.873 61.9799C323.263 61.9799 322.607 62.4034 322.607 63.6107V63.6954H319.408V63.6319C319.408 61.0056 321.611 59.1842 325.106 59.1842C328.643 59.1842 330.316 61.0056 330.316 63.7801V70.0068H327.351V67.5712H327.181C326.694 69.2232 325.212 70.2186 322.861 70.2186ZM322.395 67.1688C322.395 67.7406 322.84 67.9736 323.771 67.9736C325.932 67.9736 327.097 67.4653 327.181 65.9616L323.496 66.3852C322.734 66.4487 322.395 66.6605 322.395 67.1688ZM335.103 70.0068H331.926V59.396H334.87V62.2128H335.061C335.357 60.4973 336.48 59.1842 338.619 59.1842C340.991 59.1842 341.965 60.815 341.965 62.8906V64.6485H338.788V63.5471C338.788 62.3823 338.322 61.874 337.03 61.874C335.611 61.874 335.103 62.5305 335.103 63.8648V70.0068ZM346.293 70.0068H343.116V59.396H346.06V62.6576H346.25C346.525 60.8785 347.796 59.1842 350.571 59.1842C353.472 59.1842 354.849 61.048 354.849 63.3989V70.0068H351.672V64.4578C351.672 62.7635 350.973 62.0434 349.025 62.0434C347.013 62.0434 346.293 62.8482 346.293 64.6485V70.0068ZM359.633 58.3158H356.456V55.8167H359.633V58.3158ZM359.633 70.0068H356.456V59.396H359.633V70.0068ZM364.473 70.0068H361.296V59.396H364.24V62.6576H364.43C364.706 60.8785 365.977 59.1842 368.751 59.1842C371.653 59.1842 373.029 61.048 373.029 63.3989V70.0068H369.852V64.4578C369.852 62.7635 369.153 62.0434 367.205 62.0434C365.193 62.0434 364.473 62.8482 364.473 64.6485V70.0068ZM379.296 68.9267C376.14 68.9267 374.319 67.0417 374.319 64.0554C374.319 61.0903 376.246 59.1842 379.423 59.1842C381.583 59.1842 383.129 60.1161 383.468 61.9587H383.638V59.396H386.603V68.4607C386.603 72.1671 384.358 73.8191 380.567 73.8191C377.136 73.8191 374.975 72.2942 374.975 69.6256H378.152C378.152 70.8117 378.618 71.1717 380.778 71.1717C382.812 71.1717 383.426 70.7481 383.426 68.6725V66.2793H383.256C382.918 67.8465 381.668 68.9267 379.296 68.9267ZM377.517 64.0554C377.517 65.6227 378.406 66.1946 380.397 66.1946C382.43 66.1946 383.426 65.6227 383.426 64.1613V63.9284C383.426 62.4882 382.409 61.9375 380.44 61.9375C378.406 61.9375 377.517 62.4882 377.517 64.0554ZM394.732 70.0068H391.555V55.8167H394.732V62.6364H394.901C395.24 60.8362 396.49 59.1842 399.201 59.1842C402.06 59.1842 403.458 61.048 403.458 63.5048V70.0068H400.281V64.4578C400.281 62.6788 399.519 62.0434 397.528 62.0434C395.389 62.0434 394.732 62.9118 394.732 64.6908V70.0068ZM410.716 70.2186C407.094 70.2186 404.659 68.0583 404.659 64.712C404.659 61.3233 407.094 59.1842 410.716 59.1842C414.338 59.1842 416.773 61.3233 416.773 64.712C416.773 68.0583 414.338 70.2186 410.716 70.2186ZM410.716 67.4018C412.855 67.4018 413.618 66.5758 413.618 64.712C413.618 62.8482 412.855 61.9799 410.716 61.9799C408.556 61.9799 407.814 62.8482 407.814 64.712C407.814 66.5758 408.556 67.4018 410.716 67.4018ZM424.086 70.0068H420.125L417.223 59.396H420.506L421.756 64.2461L422.201 67.55H422.412L423.26 63.9284L424.869 59.396H428.957L430.545 63.9284L431.392 67.55H431.604L432.07 64.2461L433.299 59.396H436.539L433.532 70.0068H429.571L427.75 64.9026L426.966 61.9799H426.733L425.928 64.9026L424.086 70.0068ZM443.833 58.3158H440.656V55.8167H443.833V58.3158ZM443.833 70.0068H440.656V59.396H443.833V70.0068ZM452.973 70.0068H450.346C447.868 70.0068 446.365 68.842 446.365 66.1734V62.0222H444.691V59.396H446.365V57.3416H449.542V59.396H452.973V62.0222H449.542V65.8133C449.542 66.8723 449.944 67.1476 451.066 67.1476H452.973V70.0068ZM37.558 96.0068H34.3811V81.8167H37.558V88.6364H37.7274C38.0663 86.8362 39.3159 85.1842 42.0269 85.1842C44.8861 85.1842 46.2839 87.048 46.2839 89.5048V96.0068H43.107V90.4578C43.107 88.6788 42.3445 88.0434 40.3537 88.0434C38.2146 88.0434 37.558 88.9118 37.558 90.6908V96.0068ZM53.5208 96.2186C49.9838 96.2186 47.5694 94.4819 47.5694 90.712C47.5694 87.3233 49.9627 85.1842 53.4572 85.1842C56.9307 85.1842 59.2392 87.0056 59.2392 90.3308C59.2392 90.712 59.1969 90.9873 59.1545 91.3474H50.5133C50.598 92.9782 51.3605 93.6771 53.4149 93.6771C55.2999 93.6771 55.9564 93.19 55.9564 92.2793V92.0675H59.1333V92.3004C59.1333 94.609 56.8883 96.2186 53.5208 96.2186ZM53.3937 87.6622C51.5087 87.6622 50.7039 88.2976 50.5557 89.6742H56.1894C56.1047 88.2764 55.2575 87.6622 53.3937 87.6622ZM63.7633 96.0068H60.5864V81.8167H63.7633V96.0068ZM68.6031 99.6073H65.4262V85.396H68.3702V88.2976H68.582C68.9632 86.2643 70.3187 85.1842 72.8178 85.1842C76.0794 85.1842 77.9009 87.3445 77.9009 90.712C77.9009 94.0795 76.1218 96.2186 72.9237 96.2186C70.4669 96.2186 69.1114 95.0114 68.7514 93.1476H68.6031V99.6073ZM68.6031 90.8603C68.6031 92.6817 69.7045 93.3171 71.6953 93.3171C73.7285 93.3171 74.6816 92.6393 74.6816 90.712C74.6816 88.7635 73.7285 88.1069 71.7165 88.1069C69.6621 88.1069 68.6031 88.8059 68.6031 90.6908V90.8603ZM84.5801 96.2186C81.0008 96.2186 79.0311 94.8208 79.0311 92.364V92.3004H82.2081V92.4911C82.2081 93.4441 82.8011 93.6983 84.6013 93.6983C86.2957 93.6983 86.6981 93.423 86.6981 92.7876C86.6981 92.1946 86.3804 92.0251 85.1308 91.8557L82.1445 91.4956C80.0266 91.2627 78.8405 90.3096 78.8405 88.5305C78.8405 86.6667 80.429 85.1842 84.0718 85.1842C87.5452 85.1842 89.5149 86.4973 89.5149 89.0812V89.1447H86.338V89.0177C86.338 88.1493 85.9144 87.7045 83.9659 87.7045C82.3775 87.7045 81.9751 87.9799 81.9751 88.6576C81.9751 89.2083 82.2716 89.4412 83.6694 89.6107L85.9356 89.886C88.7736 90.2037 89.8326 91.1568 89.8326 92.9147C89.8326 94.9055 87.8629 96.2186 84.5801 96.2186ZM98.7665 96.2186C95.7802 96.2186 94.3612 94.376 94.3612 92.0039V85.396H97.5381V90.945C97.5381 92.6605 98.2582 93.3806 100.27 93.3806C102.346 93.3806 103.087 92.5758 103.087 90.7755V85.396H106.264V96.0068H103.299V92.7664H103.129C102.854 94.5455 101.562 96.2186 98.7665 96.2186ZM113.247 96.2186C109.667 96.2186 107.698 94.8208 107.698 92.364V92.3004H110.875V92.4911C110.875 93.4441 111.468 93.6983 113.268 93.6983C114.962 93.6983 115.365 93.423 115.365 92.7876C115.365 92.1946 115.047 92.0251 113.797 91.8557L110.811 91.4956C108.693 91.2627 107.507 90.3096 107.507 88.5305C107.507 86.6667 109.096 85.1842 112.738 85.1842C116.212 85.1842 118.182 86.4973 118.182 89.0812V89.1447H115.005V89.0177C115.005 88.1493 114.581 87.7045 112.633 87.7045C111.044 87.7045 110.642 87.9799 110.642 88.6576C110.642 89.2083 110.938 89.4412 112.336 89.6107L114.602 89.886C117.44 90.2037 118.499 91.1568 118.499 92.9147C118.499 94.9055 116.53 96.2186 113.247 96.2186ZM128.407 96.2186C124.828 96.2186 122.858 94.8208 122.858 92.364V92.3004H126.035V92.4911C126.035 93.4441 126.628 93.6983 128.429 93.6983C130.123 93.6983 130.525 93.423 130.525 92.7876C130.525 92.1946 130.208 92.0251 128.958 91.8557L125.972 91.4956C123.854 91.2627 122.668 90.3096 122.668 88.5305C122.668 86.6667 124.256 85.1842 127.899 85.1842C131.372 85.1842 133.342 86.4973 133.342 89.0812V89.1447H130.165V89.0177C130.165 88.1493 129.742 87.7045 127.793 87.7045C126.205 87.7045 125.802 87.9799 125.802 88.6576C125.802 89.2083 126.099 89.4412 127.497 89.6107L129.763 89.886C132.601 90.2037 133.66 91.1568 133.66 92.9147C133.66 94.9055 131.69 96.2186 128.407 96.2186ZM139.326 96.2186C136.339 96.2186 134.92 94.376 134.92 92.0039V85.396H138.097V90.945C138.097 92.6605 138.817 93.3806 140.83 93.3806C142.905 93.3806 143.646 92.5758 143.646 90.7755V85.396H146.823V96.0068H143.858V92.7664H143.689C143.413 94.5455 142.121 96.2186 139.326 96.2186ZM153.806 96.2186C150.227 96.2186 148.257 94.8208 148.257 92.364V92.3004H151.434V92.4911C151.434 93.4441 152.027 93.6983 153.827 93.6983C155.522 93.6983 155.924 93.423 155.924 92.7876C155.924 92.1946 155.606 92.0251 154.357 91.8557L151.37 91.4956C149.252 91.2627 148.066 90.3096 148.066 88.5305C148.066 86.6667 149.655 85.1842 153.298 85.1842C156.771 85.1842 158.741 86.4973 158.741 89.0812V89.1447H155.564V89.0177C155.564 88.1493 155.14 87.7045 153.192 87.7045C151.603 87.7045 151.201 87.9799 151.201 88.6576C151.201 89.2083 151.497 89.4412 152.895 89.6107L155.161 89.886C158 90.2037 159.058 91.1568 159.058 92.9147C159.058 94.9055 157.089 96.2186 153.806 96.2186ZM167.817 96.0068H165.19C162.712 96.0068 161.209 94.842 161.209 92.1734V88.0222H159.535V85.396H161.209V83.3416H164.386V85.396H167.817V88.0222H164.386V91.8133C164.386 92.8723 164.788 93.1476 165.91 93.1476H167.817V96.0068ZM172.268 96.2186C169.981 96.2186 168.604 95.1597 168.604 93.3806C168.604 91.8133 169.769 90.8391 172.035 90.6061L176.589 90.1402V89.7377C176.589 88.3611 175.974 87.9799 174.28 87.9799C172.671 87.9799 172.014 88.4034 172.014 89.6107V89.6954H168.816V89.6319C168.816 87.0056 171.019 85.1842 174.513 85.1842C178.05 85.1842 179.723 87.0056 179.723 89.7801V96.0068H176.758V93.5712H176.589C176.102 95.2232 174.619 96.2186 172.268 96.2186ZM171.802 93.1688C171.802 93.7406 172.247 93.9736 173.179 93.9736C175.339 93.9736 176.504 93.4653 176.589 91.9616L172.903 92.3852C172.141 92.4487 171.802 92.6605 171.802 93.1688ZM184.51 84.3158H181.334V81.8167H184.51V84.3158ZM184.51 96.0068H181.334V85.396H184.51V96.0068ZM189.35 96.0068H186.173V85.396H189.117V88.6576H189.308C189.583 86.8785 190.854 85.1842 193.628 85.1842C196.53 85.1842 197.907 87.048 197.907 89.3989V96.0068H194.73V90.4578C194.73 88.7635 194.031 88.0434 192.082 88.0434C190.07 88.0434 189.35 88.8482 189.35 90.6485V96.0068ZM205.959 96.0068H202.782V85.396H205.726V88.2128H205.916C206.213 86.4973 207.335 85.1842 209.474 85.1842C211.847 85.1842 212.821 86.815 212.821 88.8906V90.6485H209.644V89.5471C209.644 88.3823 209.178 87.874 207.886 87.874C206.467 87.874 205.959 88.5305 205.959 89.8648V96.0068ZM219.605 96.2186C216.068 96.2186 213.654 94.4819 213.654 90.712C213.654 87.3233 216.047 85.1842 219.541 85.1842C223.015 85.1842 225.323 87.0056 225.323 90.3308C225.323 90.712 225.281 90.9873 225.239 91.3474H216.597C216.682 92.9782 217.445 93.6771 219.499 93.6771C221.384 93.6771 222.041 93.19 222.041 92.2793V92.0675H225.217V92.3004C225.217 94.609 222.972 96.2186 219.605 96.2186ZM219.478 87.6622C217.593 87.6622 216.788 88.2976 216.64 89.6742H222.274C222.189 88.2764 221.342 87.6622 219.478 87.6622ZM234.57 96.0068H230.652L225.823 85.396H229.36L232.537 92.9147H232.749L235.947 85.396H239.421L234.57 96.0068ZM245.914 96.2186C242.292 96.2186 239.857 94.0583 239.857 90.712C239.857 87.3233 242.292 85.1842 245.914 85.1842C249.536 85.1842 251.971 87.3233 251.971 90.712C251.971 94.0583 249.536 96.2186 245.914 96.2186ZM245.914 93.4018C248.053 93.4018 248.816 92.5758 248.816 90.712C248.816 88.8482 248.053 87.9799 245.914 87.9799C243.754 87.9799 243.013 88.8482 243.013 90.712C243.013 92.5758 243.754 93.4018 245.914 93.4018ZM256.446 96.0068H253.269V81.8167H256.446V96.0068ZM262.493 96.2186C259.506 96.2186 258.087 94.376 258.087 92.0039V85.396H261.264V90.945C261.264 92.6605 261.984 93.3806 263.997 93.3806C266.072 93.3806 266.813 92.5758 266.813 90.7755V85.396H269.99V96.0068H267.025V92.7664H266.856C266.58 94.5455 265.288 96.2186 262.493 96.2186ZM279.091 96.0068H276.465C273.987 96.0068 272.483 94.842 272.483 92.1734V88.0222H270.81V85.396H272.483V83.3416H275.66V85.396H279.091V88.0222H275.66V91.8133C275.66 92.8723 276.062 93.1476 277.185 93.1476H279.091V96.0068ZM283.458 84.3158H280.281V81.8167H283.458V84.3158ZM283.458 96.0068H280.281V85.396H283.458V96.0068ZM290.775 96.2186C287.154 96.2186 284.718 94.0583 284.718 90.712C284.718 87.3233 287.154 85.1842 290.775 85.1842C294.397 85.1842 296.833 87.3233 296.833 90.712C296.833 94.0583 294.397 96.2186 290.775 96.2186ZM290.775 93.4018C292.915 93.4018 293.677 92.5758 293.677 90.712C293.677 88.8482 292.915 87.9799 290.775 87.9799C288.615 87.9799 287.874 88.8482 287.874 90.712C287.874 92.5758 288.615 93.4018 290.775 93.4018ZM301.307 96.0068H298.13V85.396H301.074V88.6576H301.265C301.54 86.8785 302.811 85.1842 305.585 85.1842C308.487 85.1842 309.864 87.048 309.864 89.3989V96.0068H306.687V90.4578C306.687 88.7635 305.988 88.0434 304.039 88.0434C302.027 88.0434 301.307 88.8482 301.307 90.6485V96.0068ZM314.732 96.2186C312.445 96.2186 311.068 95.1597 311.068 93.3806C311.068 91.8133 312.233 90.8391 314.499 90.6061L319.053 90.1402V89.7377C319.053 88.3611 318.439 87.9799 316.744 87.9799C315.135 87.9799 314.478 88.4034 314.478 89.6107V89.6954H311.28V89.6319C311.28 87.0056 313.483 85.1842 316.977 85.1842C320.514 85.1842 322.187 87.0056 322.187 89.7801V96.0068H319.222V93.5712H319.053C318.566 95.2232 317.083 96.2186 314.732 96.2186ZM314.266 93.1688C314.266 93.7406 314.711 93.9736 315.643 93.9736C317.803 93.9736 318.968 93.4653 319.053 91.9616L315.368 92.3852C314.605 92.4487 314.266 92.6605 314.266 93.1688ZM326.975 96.0068H323.798V85.396H326.742V88.2128H326.932C327.229 86.4973 328.351 85.1842 330.49 85.1842C332.862 85.1842 333.837 86.815 333.837 88.8906V90.6485H330.66V89.5471C330.66 88.3823 330.194 87.874 328.902 87.874C327.483 87.874 326.975 88.5305 326.975 89.8648V96.0068ZM337.02 99.6073H335.284V96.7269H337.889C338.672 96.7269 339.011 96.5151 339.223 96.0492L334.034 85.396H337.635L339.88 90.2461L340.769 92.7452H340.981L341.828 90.2249L343.84 85.396H347.377L342.125 96.7693C341.108 98.9931 339.689 99.6073 337.02 99.6073ZM355.434 96.0068H352.257V88.0222H350.753V85.396H352.32C352.659 83.2569 354.523 81.8167 357.784 81.8167H358.716V84.1252H357.276C355.878 84.1252 355.222 84.3582 355.306 85.396H358.716V88.0222H355.434V96.0068ZM362.952 84.3158H359.775V81.8167H362.952V84.3158ZM362.952 96.0068H359.775V85.396H362.952V96.0068ZM367.803 96.0068H364.626V85.396H367.57V88.6576H367.76C368.036 86.8785 369.307 85.1842 372.081 85.1842C374.983 85.1842 376.359 87.048 376.359 89.3989V96.0068H373.182V90.4578C373.182 88.7635 372.483 88.0434 370.535 88.0434C368.523 88.0434 367.803 88.8482 367.803 90.6485V96.0068ZM381.228 96.2186C378.941 96.2186 377.564 95.1597 377.564 93.3806C377.564 91.8133 378.729 90.8391 380.995 90.6061L385.549 90.1402V89.7377C385.549 88.3611 384.934 87.9799 383.24 87.9799C381.63 87.9799 380.974 88.4034 380.974 89.6107V89.6954H377.776V89.6319C377.776 87.0056 379.978 85.1842 383.473 85.1842C387.01 85.1842 388.683 87.0056 388.683 89.7801V96.0068H385.718V93.5712H385.549C385.061 95.2232 383.579 96.2186 381.228 96.2186ZM380.762 93.1688C380.762 93.7406 381.207 93.9736 382.139 93.9736C384.299 93.9736 385.464 93.4653 385.549 91.9616L381.863 92.3852C381.101 92.4487 380.762 92.6605 380.762 93.1688ZM393.47 96.0068H390.293V85.396H393.237V88.6576H393.428C393.703 86.8785 394.974 85.1842 397.749 85.1842C400.65 85.1842 402.027 87.048 402.027 89.3989V96.0068H398.85V90.4578C398.85 88.7635 398.151 88.0434 396.202 88.0434C394.19 88.0434 393.47 88.8482 393.47 90.6485V96.0068ZM409.289 96.2186C405.646 96.2186 403.316 94.0583 403.316 90.712C403.316 87.3233 405.646 85.1842 409.289 85.1842C412.699 85.1842 415.028 87.0056 415.028 89.7589V90.0554H411.873V89.886C411.873 88.5305 410.877 88.0434 409.225 88.0434C407.34 88.0434 406.472 88.7423 406.472 90.712C406.472 92.6605 407.34 93.3594 409.225 93.3594C410.877 93.3594 411.873 92.8723 411.873 91.5168V91.3474H415.028V91.6439C415.028 94.376 412.699 96.2186 409.289 96.2186ZM419.572 84.3158H416.395V81.8167H419.572V84.3158ZM419.572 96.0068H416.395V85.396H419.572V96.0068ZM424.497 96.2186C422.209 96.2186 420.833 95.1597 420.833 93.3806C420.833 91.8133 421.998 90.8391 424.264 90.6061L428.817 90.1402V89.7377C428.817 88.3611 428.203 87.9799 426.509 87.9799C424.899 87.9799 424.243 88.4034 424.243 89.6107V89.6954H421.045V89.6319C421.045 87.0056 423.247 85.1842 426.742 85.1842C430.279 85.1842 431.952 87.0056 431.952 89.7801V96.0068H428.987V93.5712H428.817C428.33 95.2232 426.848 96.2186 424.497 96.2186ZM424.031 93.1688C424.031 93.7406 424.476 93.9736 425.407 93.9736C427.568 93.9736 428.733 93.4653 428.817 91.9616L425.132 92.3852C424.37 92.4487 424.031 92.6605 424.031 93.1688ZM436.739 96.0068H433.562V81.8167H436.739V96.0068ZM37.558 125.607H34.3811V111.396H37.325V114.298H37.5368C37.9181 112.264 39.2735 111.184 41.7727 111.184C45.0343 111.184 46.8557 113.344 46.8557 116.712C46.8557 120.08 45.0767 122.219 41.8786 122.219C39.4218 122.219 38.0663 121.011 37.7063 119.148H37.558V125.607ZM37.558 116.86C37.558 118.682 38.6593 119.317 40.6502 119.317C42.6834 119.317 43.6365 118.639 43.6365 116.712C43.6365 114.763 42.6834 114.107 40.6714 114.107C38.617 114.107 37.558 114.806 37.558 116.691V116.86ZM51.3535 122.007H48.1766V111.396H51.1206V114.213H51.3112C51.6077 112.497 52.7302 111.184 54.8693 111.184C57.2414 111.184 58.2157 112.815 58.2157 114.891V116.648H55.0388V115.547C55.0388 114.382 54.5728 113.874 53.2809 113.874C51.8618 113.874 51.3535 114.531 51.3535 115.865V122.007ZM65.021 122.219C61.3993 122.219 58.9637 120.058 58.9637 116.712C58.9637 113.323 61.3993 111.184 65.021 111.184C68.6427 111.184 71.0783 113.323 71.0783 116.712C71.0783 120.058 68.6427 122.219 65.021 122.219ZM65.021 119.402C67.1601 119.402 67.9226 118.576 67.9226 116.712C67.9226 114.848 67.1601 113.98 65.021 113.98C62.8607 113.98 62.1194 114.848 62.1194 116.712C62.1194 118.576 62.8607 119.402 65.021 119.402ZM77.1199 122.219C73.8159 122.219 71.9945 120.058 71.9945 116.712C71.9945 113.323 73.7947 111.184 76.9504 111.184C79.4708 111.184 80.7627 112.434 81.1228 114.213H81.3134V107.817H84.4903V122.007H81.5252V119.063H81.3557C80.9533 121.16 79.5555 122.219 77.1199 122.219ZM75.2137 116.712C75.2137 118.639 76.1668 119.317 78.2 119.317C80.2121 119.317 81.3134 118.618 81.3134 116.776V116.606C81.3134 114.763 80.2332 114.086 78.2 114.086C76.1668 114.086 75.2137 114.763 75.2137 116.712ZM90.5554 122.219C87.5691 122.219 86.1501 120.376 86.1501 118.004V111.396H89.327V116.945C89.327 118.66 90.0471 119.381 92.0591 119.381C94.1347 119.381 94.8759 118.576 94.8759 116.776V111.396H98.0528V122.007H95.0877V118.766H94.9183C94.643 120.545 93.351 122.219 90.5554 122.219ZM105.332 122.219C101.689 122.219 99.3595 120.058 99.3595 116.712C99.3595 113.323 101.689 111.184 105.332 111.184C108.742 111.184 111.072 113.006 111.072 115.759V116.055H107.916V115.886C107.916 114.531 106.921 114.043 105.269 114.043C103.384 114.043 102.515 114.742 102.515 116.712C102.515 118.66 103.384 119.359 105.269 119.359C106.921 119.359 107.916 118.872 107.916 117.517V117.347H111.072V117.644C111.072 120.376 108.742 122.219 105.332 122.219ZM119.915 122.007H117.289C114.811 122.007 113.307 120.842 113.307 118.173V114.022H111.634V111.396H113.307V109.342H116.484V111.396H119.915V114.022H116.484V117.813C116.484 118.872 116.886 119.148 118.009 119.148H119.915V122.007ZM126.463 122.219C122.884 122.219 120.914 120.821 120.914 118.364V118.3H124.091V118.491C124.091 119.444 124.684 119.698 126.484 119.698C128.179 119.698 128.581 119.423 128.581 118.788C128.581 118.195 128.263 118.025 127.014 117.856L124.027 117.496C121.91 117.263 120.724 116.31 120.724 114.531C120.724 112.667 122.312 111.184 125.955 111.184C129.428 111.184 131.398 112.497 131.398 115.081V115.145H128.221V115.018C128.221 114.149 127.797 113.705 125.849 113.705C124.26 113.705 123.858 113.98 123.858 114.658C123.858 115.208 124.155 115.441 125.552 115.611L127.819 115.886C130.657 116.204 131.716 117.157 131.716 118.915C131.716 120.906 129.746 122.219 126.463 122.219ZM136.873 122.007H132.786V118.3H136.873V122.007ZM144.227 122.007H140.669L146.875 107.817H151.407L157.655 122.007H154.012L152.678 118.872H145.583L144.227 122.007ZM148.145 112.921L146.811 116.013H151.449L150.115 112.921L149.247 110.718H149.014L148.145 112.921ZM161.573 122.007H158.396V111.396H161.34V114.658H161.531C161.806 112.879 163.077 111.184 165.851 111.184C168.753 111.184 170.129 113.048 170.129 115.399V122.007H166.953V116.458C166.953 114.763 166.254 114.043 164.305 114.043C162.293 114.043 161.573 114.848 161.573 116.648V122.007ZM180.638 122.219C177.101 122.219 174.687 120.482 174.687 116.712C174.687 113.323 177.08 111.184 180.575 111.184C184.048 111.184 186.357 113.006 186.357 116.331C186.357 116.712 186.314 116.987 186.272 117.347H177.631C177.715 118.978 178.478 119.677 180.532 119.677C182.417 119.677 183.074 119.19 183.074 118.279V118.067H186.251V118.3C186.251 120.609 184.006 122.219 180.638 122.219ZM180.511 113.662C178.626 113.662 177.821 114.298 177.673 115.674H183.307C183.222 114.276 182.375 113.662 180.511 113.662ZM193.359 122.219C189.716 122.219 187.386 120.058 187.386 116.712C187.386 113.323 189.716 111.184 193.359 111.184C196.769 111.184 199.098 113.006 199.098 115.759V116.055H195.943V115.886C195.943 114.531 194.947 114.043 193.295 114.043C191.41 114.043 190.542 114.742 190.542 116.712C190.542 118.66 191.41 119.359 193.295 119.359C194.947 119.359 195.943 118.872 195.943 117.517V117.347H199.098V117.644C199.098 120.376 196.769 122.219 193.359 122.219ZM206.12 122.219C202.498 122.219 200.063 120.058 200.063 116.712C200.063 113.323 202.498 111.184 206.12 111.184C209.742 111.184 212.177 113.323 212.177 116.712C212.177 120.058 209.742 122.219 206.12 122.219ZM206.12 119.402C208.259 119.402 209.022 118.576 209.022 116.712C209.022 114.848 208.259 113.98 206.12 113.98C203.96 113.98 203.219 114.848 203.219 116.712C203.219 118.576 203.96 119.402 206.12 119.402ZM216.652 122.007H213.475V111.396H216.419V114.658H216.609C216.885 112.879 218.155 111.184 220.93 111.184C223.832 111.184 225.208 113.048 225.208 115.399V122.007H222.031V116.458C222.031 114.763 221.332 114.043 219.384 114.043C217.372 114.043 216.652 114.848 216.652 116.648V122.007ZM232.47 122.219C228.849 122.219 226.413 120.058 226.413 116.712C226.413 113.323 228.849 111.184 232.47 111.184C236.092 111.184 238.528 113.323 238.528 116.712C238.528 120.058 236.092 122.219 232.47 122.219ZM232.47 119.402C234.609 119.402 235.372 118.576 235.372 116.712C235.372 114.848 234.609 113.98 232.47 113.98C230.31 113.98 229.569 114.848 229.569 116.712C229.569 118.576 230.31 119.402 232.47 119.402ZM243.002 122.007H239.825V111.396H242.769V114.615H242.938C243.192 112.836 244.251 111.184 246.92 111.184C249.377 111.184 250.626 112.688 250.859 114.658H251.05C251.304 112.857 252.384 111.184 255.116 111.184C257.849 111.184 259.183 112.984 259.183 115.399V122.007H256.006V116.458C256.006 114.7 255.392 114.043 253.57 114.043C251.643 114.043 251.092 114.806 251.092 116.648V122.007H247.915V116.458C247.915 114.7 247.301 114.043 245.48 114.043C243.552 114.043 243.002 114.806 243.002 116.648V122.007ZM262.831 125.607H261.094V122.727H263.699C264.483 122.727 264.822 122.515 265.033 122.049L259.844 111.396H263.445L265.69 116.246L266.579 118.745H266.791L267.638 116.225L269.65 111.396H273.187L267.935 122.769C266.918 124.993 265.499 125.607 262.831 125.607ZM280.397 122.007H277.22V107.817H280.397V122.007ZM285.236 110.316H282.06V107.817H285.236V110.316ZM285.236 122.007H282.06V111.396H285.236V122.007ZM290.076 122.007H286.899V107.817H290.076V115.335H292.491L295.202 111.396H298.972L295.096 116.521L298.908 122.007H295.159L292.512 118.173H290.076V122.007ZM305.377 122.219C301.84 122.219 299.426 120.482 299.426 116.712C299.426 113.323 301.819 111.184 305.314 111.184C308.787 111.184 311.096 113.006 311.096 116.331C311.096 116.712 311.053 116.987 311.011 117.347H302.37C302.454 118.978 303.217 119.677 305.271 119.677C307.156 119.677 307.813 119.19 307.813 118.279V118.067H310.99V118.3C310.99 120.609 308.745 122.219 305.377 122.219ZM305.25 113.662C303.365 113.662 302.56 114.298 302.412 115.674H308.046C307.961 114.276 307.114 113.662 305.25 113.662ZM318.888 122.007H315.711V107.817H319.099L324.182 114.531L326.131 117.517H326.364L326.216 114.658V107.817H329.393V122.007H326.004L320.773 115.229L318.972 112.561H318.761L318.888 115.166V122.007ZM334.255 110.316H331.078V107.817H334.255V110.316ZM334.255 122.007H331.078V111.396H334.255V122.007ZM340.577 120.927C337.422 120.927 335.6 119.042 335.6 116.055C335.6 113.09 337.528 111.184 340.704 111.184C342.865 111.184 344.411 112.116 344.75 113.959H344.919V111.396H347.884V120.461C347.884 124.167 345.639 125.819 341.848 125.819C338.417 125.819 336.257 124.294 336.257 121.626H339.434C339.434 122.812 339.9 123.172 342.06 123.172C344.093 123.172 344.707 122.748 344.707 120.673V118.279H344.538C344.199 119.847 342.949 120.927 340.577 120.927ZM338.798 116.055C338.798 117.623 339.688 118.195 341.679 118.195C343.712 118.195 344.707 117.623 344.707 116.161V115.928C344.707 114.488 343.691 113.938 341.721 113.938C339.688 113.938 338.798 114.488 338.798 116.055ZM355.202 122.219C351.665 122.219 349.251 120.482 349.251 116.712C349.251 113.323 351.644 111.184 355.139 111.184C358.612 111.184 360.921 113.006 360.921 116.331C360.921 116.712 360.878 116.987 360.836 117.347H352.195C352.28 118.978 353.042 119.677 355.097 119.677C356.981 119.677 357.638 119.19 357.638 118.279V118.067H360.815V118.3C360.815 120.609 358.57 122.219 355.202 122.219ZM355.075 113.662C353.19 113.662 352.386 114.298 352.237 115.674H357.871C357.786 114.276 356.939 113.662 355.075 113.662ZM365.445 122.007H362.268V111.396H365.212V114.213H365.403C365.699 112.497 366.822 111.184 368.961 111.184C371.333 111.184 372.307 112.815 372.307 114.891V116.648H369.13V115.547C369.13 114.382 368.664 113.874 367.372 113.874C365.953 113.874 365.445 114.531 365.445 115.865V122.007ZM376.634 110.316H373.457V107.817H376.634V110.316ZM376.634 122.007H373.457V111.396H376.634V122.007ZM381.559 122.219C379.272 122.219 377.895 121.16 377.895 119.381C377.895 117.813 379.06 116.839 381.326 116.606L385.88 116.14V115.738C385.88 114.361 385.265 113.98 383.571 113.98C381.961 113.98 381.305 114.403 381.305 115.611V115.695H378.107V115.632C378.107 113.006 380.309 111.184 383.804 111.184C387.341 111.184 389.014 113.006 389.014 115.78V122.007H386.049V119.571H385.88C385.392 121.223 383.91 122.219 381.559 122.219ZM381.093 119.169C381.093 119.741 381.538 119.974 382.47 119.974C384.63 119.974 385.795 119.465 385.88 117.962L382.194 118.385C381.432 118.449 381.093 118.66 381.093 119.169ZM392.891 113.938H390.921L390.243 110.888V107.817H393.547V110.888L392.891 113.938ZM400.223 122.219C396.643 122.219 394.674 120.821 394.674 118.364V118.3H397.851V118.491C397.851 119.444 398.444 119.698 400.244 119.698C401.938 119.698 402.341 119.423 402.341 118.788C402.341 118.195 402.023 118.025 400.773 117.856L397.787 117.496C395.669 117.263 394.483 116.31 394.483 114.531C394.483 112.667 396.072 111.184 399.714 111.184C403.188 111.184 405.158 112.497 405.158 115.081V115.145H401.981V115.018C401.981 114.149 401.557 113.705 399.609 113.705C398.02 113.705 397.618 113.98 397.618 114.658C397.618 115.208 397.914 115.441 399.312 115.611L401.578 115.886C404.416 116.204 405.475 117.157 405.475 118.915C405.475 120.906 403.506 122.219 400.223 122.219ZM37.558 148.007H34.3811V137.396H37.325V140.213H37.5157C37.8122 138.497 38.9347 137.184 41.0738 137.184C43.4459 137.184 44.4201 138.815 44.4201 140.891V142.648H41.2432V141.547C41.2432 140.382 40.7773 139.874 39.4853 139.874C38.0663 139.874 37.558 140.531 37.558 141.865V148.007ZM51.2043 148.219C47.6673 148.219 45.2529 146.482 45.2529 142.712C45.2529 139.323 47.6462 137.184 51.1408 137.184C54.6142 137.184 56.9227 139.006 56.9227 142.331C56.9227 142.712 56.8804 142.987 56.838 143.347H48.1968C48.2815 144.978 49.044 145.677 51.0984 145.677C52.9834 145.677 53.6399 145.19 53.6399 144.279V144.067H56.8168V144.3C56.8168 146.609 54.5718 148.219 51.2043 148.219ZM51.0772 139.662C49.1923 139.662 48.3874 140.298 48.2392 141.674H53.8729C53.7882 140.276 52.941 139.662 51.0772 139.662ZM62.8658 148.219C59.6889 148.219 57.8887 146.08 57.8887 142.712C57.8887 139.344 59.7101 137.184 62.9717 137.184C65.4709 137.184 66.8264 138.264 67.2076 140.298H67.4194V137.396H70.3845V151.607H67.2076V145.148H67.0382C66.6781 147.011 65.3226 148.219 62.8658 148.219ZM61.108 142.712C61.108 144.639 62.061 145.317 64.0942 145.317C66.1063 145.317 67.2076 144.682 67.2076 142.86V142.691C67.2076 140.806 66.1275 140.107 64.0942 140.107C62.061 140.107 61.108 140.763 61.108 142.712ZM76.4496 148.219C73.4633 148.219 72.0443 146.376 72.0443 144.004V137.396H75.2212V142.945C75.2212 144.66 75.9413 145.381 77.9533 145.381C80.0289 145.381 80.7702 144.576 80.7702 142.776V137.396H83.9471V148.007H80.982V144.766H80.8125C80.5372 146.545 79.2453 148.219 76.4496 148.219ZM88.7483 136.316H85.5714V133.817H88.7483V136.316ZM88.7483 148.007H85.5714V137.396H88.7483V148.007ZM93.5881 148.007H90.4112V137.396H93.3552V140.213H93.5458C93.8423 138.497 94.9648 137.184 97.1039 137.184C99.476 137.184 100.45 138.815 100.45 140.891V142.648H97.2734V141.547C97.2734 140.382 96.8074 139.874 95.5155 139.874C94.0964 139.874 93.5881 140.531 93.5881 141.865V148.007ZM107.234 148.219C103.697 148.219 101.283 146.482 101.283 142.712C101.283 139.323 103.676 137.184 107.171 137.184C110.644 137.184 112.953 139.006 112.953 142.331C112.953 142.712 112.91 142.987 112.868 143.347H104.227C104.312 144.978 105.074 145.677 107.129 145.677C109.013 145.677 109.67 145.19 109.67 144.279V144.067H112.847V144.3C112.847 146.609 110.602 148.219 107.234 148.219ZM107.107 139.662C105.222 139.662 104.418 140.298 104.269 141.674H109.903C109.818 140.276 108.971 139.662 107.107 139.662ZM119.658 148.219C116.079 148.219 114.109 146.821 114.109 144.364V144.3H117.286V144.491C117.286 145.444 117.879 145.698 119.68 145.698C121.374 145.698 121.776 145.423 121.776 144.788C121.776 144.195 121.459 144.025 120.209 143.856L117.223 143.496C115.105 143.263 113.919 142.31 113.919 140.531C113.919 138.667 115.507 137.184 119.15 137.184C122.624 137.184 124.593 138.497 124.593 141.081V141.145H121.416V141.018C121.416 140.149 120.993 139.705 119.044 139.705C117.456 139.705 117.053 139.98 117.053 140.658C117.053 141.208 117.35 141.441 118.748 141.611L121.014 141.886C123.852 142.204 124.911 143.157 124.911 144.915C124.911 146.906 122.941 148.219 119.658 148.219ZM132.638 148.007H129.461V137.396H132.405V140.658H132.595C132.871 138.879 134.141 137.184 136.916 137.184C139.817 137.184 141.194 139.048 141.194 141.399V148.007H138.017V142.458C138.017 140.763 137.318 140.043 135.37 140.043C133.358 140.043 132.638 140.848 132.638 142.648V148.007ZM148.456 148.219C144.834 148.219 142.399 146.058 142.399 142.712C142.399 139.323 144.834 137.184 148.456 137.184C152.078 137.184 154.513 139.323 154.513 142.712C154.513 146.058 152.078 148.219 148.456 148.219ZM148.456 145.402C150.595 145.402 151.358 144.576 151.358 142.712C151.358 140.848 150.595 139.98 148.456 139.98C146.296 139.98 145.554 140.848 145.554 142.712C145.554 144.576 146.296 145.402 148.456 145.402ZM163.287 148.007H160.661C158.183 148.007 156.679 146.842 156.679 144.173V140.022H155.006V137.396H156.679V135.342H159.856V137.396H163.287V140.022H159.856V143.813C159.856 144.872 160.258 145.148 161.381 145.148H163.287V148.007ZM167.654 148.007H164.477V133.817H167.654V140.636H167.823C168.162 138.836 169.412 137.184 172.123 137.184C174.982 137.184 176.38 139.048 176.38 141.505V148.007H173.203V142.458C173.203 140.679 172.44 140.043 170.449 140.043C168.31 140.043 167.654 140.912 167.654 142.691V148.007ZM181.16 136.316H177.983V133.817H181.16V136.316ZM181.16 148.007H177.983V137.396H181.16V148.007ZM186 148.007H182.823V137.396H185.767V140.658H185.957C186.233 138.879 187.503 137.184 190.278 137.184C193.179 137.184 194.556 139.048 194.556 141.399V148.007H191.379V142.458C191.379 140.763 190.68 140.043 188.732 140.043C186.72 140.043 186 140.848 186 142.648V148.007ZM200.823 146.927C197.667 146.927 195.846 145.042 195.846 142.055C195.846 139.09 197.773 137.184 200.95 137.184C203.11 137.184 204.656 138.116 204.995 139.959H205.164V137.396H208.13V146.461C208.13 150.167 205.885 151.819 202.093 151.819C198.662 151.819 196.502 150.294 196.502 147.626H199.679C199.679 148.812 200.145 149.172 202.305 149.172C204.338 149.172 204.953 148.748 204.953 146.673V144.279H204.783C204.444 145.847 203.195 146.927 200.823 146.927ZM199.044 142.055C199.044 143.623 199.933 144.195 201.924 144.195C203.957 144.195 204.953 143.623 204.953 142.161V141.928C204.953 140.488 203.936 139.938 201.966 139.938C199.933 139.938 199.044 140.488 199.044 142.055ZM216.259 148.007H213.082V133.817H216.259V148.007ZM223.555 148.219C220.018 148.219 217.604 146.482 217.604 142.712C217.604 139.323 219.997 137.184 223.492 137.184C226.965 137.184 229.274 139.006 229.274 142.331C229.274 142.712 229.231 142.987 229.189 143.347H220.548C220.633 144.978 221.395 145.677 223.449 145.677C225.334 145.677 225.991 145.19 225.991 144.279V144.067H229.168V144.3C229.168 146.609 226.923 148.219 223.555 148.219ZM223.428 139.662C221.543 139.662 220.739 140.298 220.59 141.674H226.224C226.139 140.276 225.292 139.662 223.428 139.662ZM235.979 148.219C232.4 148.219 230.43 146.821 230.43 144.364V144.3H233.607V144.491C233.607 145.444 234.2 145.698 236.001 145.698C237.695 145.698 238.097 145.423 238.097 144.788C238.097 144.195 237.78 144.025 236.53 143.856L233.544 143.496C231.426 143.263 230.24 142.31 230.24 140.531C230.24 138.667 231.828 137.184 235.471 137.184C238.944 137.184 240.914 138.497 240.914 141.081V141.145H237.737V141.018C237.737 140.149 237.314 139.705 235.365 139.705C233.777 139.705 233.374 139.98 233.374 140.658C233.374 141.208 233.671 141.441 235.069 141.611L237.335 141.886C240.173 142.204 241.232 143.157 241.232 144.915C241.232 146.906 239.262 148.219 235.979 148.219ZM247.872 148.219C244.293 148.219 242.323 146.821 242.323 144.364V144.3H245.5V144.491C245.5 145.444 246.093 145.698 247.893 145.698C249.588 145.698 249.99 145.423 249.99 144.788C249.99 144.195 249.672 144.025 248.423 143.856L245.436 143.496C243.319 143.263 242.132 142.31 242.132 140.531C242.132 138.667 243.721 137.184 247.364 137.184C250.837 137.184 252.807 138.497 252.807 141.081V141.145H249.63V141.018C249.63 140.149 249.206 139.705 247.258 139.705C245.669 139.705 245.267 139.98 245.267 140.658C245.267 141.208 245.564 141.441 246.961 141.611L249.228 141.886C252.066 142.204 253.125 143.157 253.125 144.915C253.125 146.906 251.155 148.219 247.872 148.219ZM258.282 148.007H254.195V144.3H258.282V148.007ZM266.208 148.007H263.031V133.817H267.331L270.656 140.806L271.99 144.131H272.223L273.515 140.806L276.734 133.817H281.055V148.007H277.878V140.806L277.984 138.582H277.751L276.925 140.806L273.96 147.16H270.105L267.14 140.806L266.314 138.582H266.081L266.208 140.806V148.007ZM284.755 151.607H283.018V148.727H285.623C286.407 148.727 286.745 148.515 286.957 148.049L281.768 137.396H285.369L287.614 142.246L288.503 144.745H288.715L289.562 142.225L291.574 137.396H295.111L289.859 148.769C288.842 150.993 287.423 151.607 284.755 151.607ZM302.321 151.607H299.144V137.396H302.088V140.298H302.299C302.681 138.264 304.036 137.184 306.535 137.184C309.797 137.184 311.618 139.344 311.618 142.712C311.618 146.08 309.839 148.219 306.641 148.219C304.184 148.219 302.829 147.011 302.469 145.148H302.321V151.607ZM302.321 142.86C302.321 144.682 303.422 145.317 305.413 145.317C307.446 145.317 308.399 144.639 308.399 142.712C308.399 140.763 307.446 140.107 305.434 140.107C303.38 140.107 302.321 140.806 302.321 142.691V142.86ZM317.323 148.219C314.337 148.219 312.918 146.376 312.918 144.004V137.396H316.095V142.945C316.095 144.66 316.815 145.381 318.827 145.381C320.903 145.381 321.644 144.576 321.644 142.776V137.396H324.821V148.007H321.856V144.766H321.686C321.411 146.545 320.119 148.219 317.323 148.219ZM329.622 148.007H326.445V137.396H329.389V140.213H329.58C329.876 138.497 330.999 137.184 333.138 137.184C335.51 137.184 336.484 138.815 336.484 140.891V142.648H333.307V141.547C333.307 140.382 332.841 139.874 331.549 139.874C330.13 139.874 329.622 140.531 329.622 141.865V148.007ZM342.993 148.219C339.414 148.219 337.444 146.821 337.444 144.364V144.3H340.621V144.491C340.621 145.444 341.214 145.698 343.014 145.698C344.709 145.698 345.111 145.423 345.111 144.788C345.111 144.195 344.793 144.025 343.544 143.856L340.557 143.496C338.439 143.263 337.253 142.31 337.253 140.531C337.253 138.667 338.842 137.184 342.485 137.184C345.958 137.184 347.928 138.497 347.928 141.081V141.145H344.751V141.018C344.751 140.149 344.327 139.705 342.379 139.705C340.79 139.705 340.388 139.98 340.388 140.658C340.388 141.208 340.684 141.441 342.082 141.611L344.348 141.886C347.187 142.204 348.245 143.157 348.245 144.915C348.245 146.906 346.276 148.219 342.993 148.219ZM355.161 148.219C351.624 148.219 349.21 146.482 349.21 142.712C349.21 139.323 351.603 137.184 355.097 137.184C358.571 137.184 360.879 139.006 360.879 142.331C360.879 142.712 360.837 142.987 360.795 143.347H352.154C352.238 144.978 353.001 145.677 355.055 145.677C356.94 145.677 357.597 145.19 357.597 144.279V144.067H360.774V144.3C360.774 146.609 358.529 148.219 355.161 148.219ZM355.034 139.662C353.149 139.662 352.344 140.298 352.196 141.674H357.83C357.745 140.276 356.898 139.662 355.034 139.662ZM368.671 136.316H365.495V133.817H368.671V136.316ZM368.671 148.007H365.495V137.396H368.671V148.007ZM375.693 148.219C372.113 148.219 370.144 146.821 370.144 144.364V144.3H373.321V144.491C373.321 145.444 373.914 145.698 375.714 145.698C377.408 145.698 377.811 145.423 377.811 144.788C377.811 144.195 377.493 144.025 376.243 143.856L373.257 143.496C371.139 143.263 369.953 142.31 369.953 140.531C369.953 138.667 371.542 137.184 375.184 137.184C378.658 137.184 380.628 138.497 380.628 141.081V141.145H377.451V141.018C377.451 140.149 377.027 139.705 375.079 139.705C373.49 139.705 373.088 139.98 373.088 140.658C373.088 141.208 373.384 141.441 374.782 141.611L377.048 141.886C379.886 142.204 380.945 143.157 380.945 144.915C380.945 146.906 378.976 148.219 375.693 148.219ZM389.519 148.007H386.342V140.022H384.838V137.396H386.406C386.745 135.257 388.608 133.817 391.87 133.817H392.802V136.125H391.362C389.964 136.125 389.307 136.358 389.392 137.396H392.802V140.022H389.519V148.007ZM399.506 148.219C395.884 148.219 393.448 146.058 393.448 142.712C393.448 139.323 395.884 137.184 399.506 137.184C403.127 137.184 405.563 139.323 405.563 142.712C405.563 146.058 403.127 148.219 399.506 148.219ZM399.506 145.402C401.645 145.402 402.407 144.576 402.407 142.712C402.407 140.848 401.645 139.98 399.506 139.98C397.345 139.98 396.604 140.848 396.604 142.712C396.604 144.576 397.345 145.402 399.506 145.402ZM410.037 148.007H406.86V137.396H409.804V140.213H409.995C410.292 138.497 411.414 137.184 413.553 137.184C415.925 137.184 416.899 138.815 416.899 140.891V142.648H413.723V141.547C413.723 140.382 413.257 139.874 411.965 139.874C410.546 139.874 410.037 140.531 410.037 141.865V148.007ZM426.973 148.219C423.351 148.219 420.915 146.058 420.915 142.712C420.915 139.323 423.351 137.184 426.973 137.184C430.594 137.184 433.03 139.323 433.03 142.712C433.03 146.058 430.594 148.219 426.973 148.219ZM426.973 145.402C429.112 145.402 429.874 144.576 429.874 142.712C429.874 140.848 429.112 139.98 426.973 139.98C424.812 139.98 424.071 140.848 424.071 142.712C424.071 144.576 424.812 145.402 426.973 145.402ZM438.712 148.219C435.725 148.219 434.306 146.376 434.306 144.004V137.396H437.483V142.945C437.483 144.66 438.203 145.381 440.215 145.381C442.291 145.381 443.032 144.576 443.032 142.776V137.396H446.209V148.007H443.244V144.766H443.075C442.799 146.545 441.507 148.219 438.712 148.219ZM451.01 148.007H447.833V137.396H450.777V140.213H450.968C451.264 138.497 452.387 137.184 454.526 137.184C456.898 137.184 457.872 138.815 457.872 140.891V142.648H454.696V141.547C454.696 140.382 454.23 139.874 452.938 139.874C451.519 139.874 451.01 140.531 451.01 141.865V148.007ZM40.036 174.219C36.3931 174.219 34.0634 172.058 34.0634 168.712C34.0634 165.323 36.3931 163.184 40.036 163.184C43.4459 163.184 45.7756 165.006 45.7756 167.759V168.055H42.6199V167.886C42.6199 166.531 41.6244 166.043 39.9725 166.043C38.0875 166.043 37.2191 166.742 37.2191 168.712C37.2191 170.66 38.0875 171.359 39.9725 171.359C41.6244 171.359 42.6199 170.872 42.6199 169.517V169.347H45.7756V169.644C45.7756 172.376 43.4459 174.219 40.036 174.219ZM51.5266 174.219C48.5403 174.219 47.1213 172.376 47.1213 170.004V163.396H50.2982V168.945C50.2982 170.66 51.0183 171.381 53.0304 171.381C55.1059 171.381 55.8472 170.576 55.8472 168.776V163.396H59.0241V174.007H56.059V170.766H55.8896C55.6142 172.545 54.3223 174.219 51.5266 174.219ZM66.0068 174.219C62.4275 174.219 60.4579 172.821 60.4579 170.364V170.3H63.6348V170.491C63.6348 171.444 64.2278 171.698 66.028 171.698C67.7224 171.698 68.1248 171.423 68.1248 170.788C68.1248 170.195 67.8071 170.025 66.5575 169.856L63.5712 169.496C61.4533 169.263 60.2672 168.31 60.2672 166.531C60.2672 164.667 61.8557 163.184 65.4985 163.184C68.9719 163.184 70.9416 164.497 70.9416 167.081V167.145H67.7647V167.018C67.7647 166.149 67.3411 165.705 65.3926 165.705C63.8042 165.705 63.4018 165.98 63.4018 166.658C63.4018 167.208 63.6983 167.441 65.0961 167.611L67.3623 167.886C70.2004 168.204 71.2593 169.157 71.2593 170.915C71.2593 172.906 69.2896 174.219 66.0068 174.219ZM80.0175 174.007H77.3912C74.9133 174.007 73.4095 172.842 73.4095 170.173V166.022H71.7364V163.396H73.4095V161.342H76.5864V163.396H80.0175V166.022H76.5864V169.813C76.5864 170.872 76.9888 171.148 78.1113 171.148H80.0175V174.007ZM86.8622 174.219C83.2405 174.219 80.8049 172.058 80.8049 168.712C80.8049 165.323 83.2405 163.184 86.8622 163.184C90.4839 163.184 92.9195 165.323 92.9195 168.712C92.9195 172.058 90.4839 174.219 86.8622 174.219ZM86.8622 171.402C89.0013 171.402 89.7638 170.576 89.7638 168.712C89.7638 166.848 89.0013 165.98 86.8622 165.98C84.7019 165.98 83.9606 166.848 83.9606 168.712C83.9606 170.576 84.7019 171.402 86.8622 171.402ZM97.3938 174.007H94.2169V163.396H97.1608V166.615H97.3303C97.5844 164.836 98.6434 163.184 101.312 163.184C103.769 163.184 105.018 164.688 105.251 166.658H105.442C105.696 164.857 106.776 163.184 109.508 163.184C112.241 163.184 113.575 164.984 113.575 167.399V174.007H110.398V168.458C110.398 166.7 109.784 166.043 107.962 166.043C106.035 166.043 105.484 166.806 105.484 168.648V174.007H102.307V168.458C102.307 166.7 101.693 166.043 99.8718 166.043C97.9445 166.043 97.3938 166.806 97.3938 168.648V174.007ZM120.823 174.219C117.286 174.219 114.872 172.482 114.872 168.712C114.872 165.323 117.265 163.184 120.76 163.184C124.233 163.184 126.542 165.006 126.542 168.331C126.542 168.712 126.499 168.987 126.457 169.347H117.816C117.9 170.978 118.663 171.677 120.717 171.677C122.602 171.677 123.259 171.19 123.259 170.279V170.067H126.436V170.3C126.436 172.609 124.191 174.219 120.823 174.219ZM120.696 165.662C118.811 165.662 118.006 166.298 117.858 167.674H123.492C123.407 166.276 122.56 165.662 120.696 165.662ZM131.066 174.007H127.889V163.396H130.833V166.213H131.023C131.32 164.497 132.442 163.184 134.581 163.184C136.954 163.184 137.928 164.815 137.928 166.891V168.648H134.751V167.547C134.751 166.382 134.285 165.874 132.993 165.874C131.574 165.874 131.066 166.531 131.066 167.865V174.007ZM144.437 174.219C140.857 174.219 138.888 172.821 138.888 170.364V170.3H142.065V170.491C142.065 171.444 142.658 171.698 144.458 171.698C146.152 171.698 146.555 171.423 146.555 170.788C146.555 170.195 146.237 170.025 144.987 169.856L142.001 169.496C139.883 169.263 138.697 168.31 138.697 166.531C138.697 164.667 140.285 163.184 143.928 163.184C147.402 163.184 149.371 164.497 149.371 167.081V167.145H146.194V167.018C146.194 166.149 145.771 165.705 143.822 165.705C142.234 165.705 141.832 165.98 141.832 166.658C141.832 167.208 142.128 167.441 143.526 167.611L145.792 167.886C148.63 168.204 149.689 169.157 149.689 170.915C149.689 172.906 147.719 174.219 144.437 174.219ZM152.009 176.993H150.886V175.023H151.924C152.348 175.023 152.559 174.918 152.559 174.367V174.007H150.759V170.3H154.847V174.346C154.847 176.125 153.809 176.993 152.009 176.993ZM162.857 174.219C160.57 174.219 159.193 173.16 159.193 171.381C159.193 169.813 160.358 168.839 162.624 168.606L167.178 168.14V167.738C167.178 166.361 166.564 165.98 164.869 165.98C163.26 165.98 162.603 166.403 162.603 167.611V167.695H159.405V167.632C159.405 165.006 161.608 163.184 165.102 163.184C168.639 163.184 170.312 165.006 170.312 167.78V174.007H167.347V171.571H167.178C166.691 173.223 165.208 174.219 162.857 174.219ZM162.391 171.169C162.391 171.741 162.836 171.974 163.768 171.974C165.928 171.974 167.093 171.465 167.178 169.962L163.493 170.385C162.73 170.449 162.391 170.66 162.391 171.169ZM175.1 174.007H171.923V163.396H174.867V166.658H175.057C175.333 164.879 176.603 163.184 179.378 163.184C182.279 163.184 183.656 165.048 183.656 167.399V174.007H180.479V168.458C180.479 166.763 179.78 166.043 177.832 166.043C175.82 166.043 175.1 166.848 175.1 168.648V174.007ZM190.007 174.219C186.703 174.219 184.882 172.058 184.882 168.712C184.882 165.323 186.682 163.184 189.838 163.184C192.358 163.184 193.65 164.434 194.01 166.213H194.201V159.817H197.378V174.007H194.413V171.063H194.243C193.841 173.16 192.443 174.219 190.007 174.219ZM188.101 168.712C188.101 170.639 189.054 171.317 191.088 171.317C193.1 171.317 194.201 170.618 194.201 168.776V168.606C194.201 166.763 193.121 166.086 191.088 166.086C189.054 166.086 188.101 166.763 188.101 168.712ZM209.803 174.007H207.177C204.699 174.007 203.195 172.842 203.195 170.173V166.022H201.522V163.396H203.195V161.342H206.372V163.396H209.803V166.022H206.372V169.813C206.372 170.872 206.774 171.148 207.897 171.148H209.803V174.007ZM214.17 174.007H210.993V159.817H214.17V166.636H214.339C214.678 164.836 215.928 163.184 218.639 163.184C221.498 163.184 222.896 165.048 222.896 167.505V174.007H219.719V168.458C219.719 166.679 218.956 166.043 216.965 166.043C214.826 166.043 214.17 166.912 214.17 168.691V174.007ZM230.133 174.219C226.596 174.219 224.181 172.482 224.181 168.712C224.181 165.323 226.574 163.184 230.069 163.184C233.542 163.184 235.851 165.006 235.851 168.331C235.851 168.712 235.809 168.987 235.766 169.347H227.125C227.21 170.978 227.972 171.677 230.027 171.677C231.912 171.677 232.568 171.19 232.568 170.279V170.067H235.745V170.3C235.745 172.609 233.5 174.219 230.133 174.219ZM230.005 165.662C228.121 165.662 227.316 166.298 227.167 167.674H232.801C232.716 166.276 231.869 165.662 230.005 165.662ZM240.375 162.316H237.198V159.817H240.375V162.316ZM240.375 174.007H237.198V163.396H240.375V174.007ZM245.215 174.007H242.038V163.396H244.982V166.213H245.173C245.469 164.497 246.592 163.184 248.731 163.184C251.103 163.184 252.077 164.815 252.077 166.891V168.648H248.9V167.547C248.9 166.382 248.434 165.874 247.142 165.874C245.723 165.874 245.215 166.531 245.215 167.865V174.007ZM262.51 174.007H258.55L255.648 163.396H258.931L260.181 168.246L260.625 171.55H260.837L261.684 167.928L263.294 163.396H267.382L268.97 167.928L269.817 171.55H270.029L270.495 168.246L271.723 163.396H274.964L271.956 174.007H267.996L266.174 168.903L265.391 165.98H265.158L264.353 168.903L262.51 174.007ZM281.447 174.219C277.91 174.219 275.496 172.482 275.496 168.712C275.496 165.323 277.889 163.184 281.383 163.184C284.857 163.184 287.165 165.006 287.165 168.331C287.165 168.712 287.123 168.987 287.081 169.347H278.44C278.524 170.978 279.287 171.677 281.341 171.677C283.226 171.677 283.883 171.19 283.883 170.279V170.067H287.06V170.3C287.06 172.609 284.814 174.219 281.447 174.219ZM281.32 165.662C279.435 165.662 278.63 166.298 278.482 167.674H284.116C284.031 166.276 283.184 165.662 281.32 165.662ZM291.774 174.219C289.487 174.219 288.11 173.16 288.11 171.381C288.11 169.813 289.275 168.839 291.541 168.606L296.095 168.14V167.738C296.095 166.361 295.481 165.98 293.786 165.98C292.177 165.98 291.52 166.403 291.52 167.611V167.695H288.322V167.632C288.322 165.006 290.525 163.184 294.019 163.184C297.556 163.184 299.229 165.006 299.229 167.78V174.007H296.264V171.571H296.095C295.608 173.223 294.125 174.219 291.774 174.219ZM291.308 171.169C291.308 171.741 291.753 171.974 292.685 171.974C294.845 171.974 296.01 171.465 296.095 169.962L292.41 170.385C291.647 170.449 291.308 170.66 291.308 171.169ZM304.017 174.007H300.84V159.817H304.017V174.007ZM313.156 174.007H310.53C308.052 174.007 306.548 172.842 306.548 170.173V166.022H304.875V163.396H306.548V161.342H309.725V163.396H313.156V166.022H309.725V169.813C309.725 170.872 310.127 171.148 311.25 171.148H313.156V174.007ZM317.523 174.007H314.346V159.817H317.523V166.636H317.692C318.031 164.836 319.28 163.184 321.991 163.184C324.851 163.184 326.248 165.048 326.248 167.505V174.007H323.072V168.458C323.072 166.679 322.309 166.043 320.318 166.043C318.179 166.043 317.523 166.912 317.523 168.691V174.007ZM331.727 174.007H327.64V170.3H331.727V174.007Z" fill="black"/>
<path d="M39.6712 545.069H33.3457L44.3778 519.842H52.4353L63.5427 545.069H57.0665L54.6945 539.497H42.081L39.6712 545.069ZM46.6369 528.917L44.2648 534.414H52.5106L50.1385 528.917L48.5948 525.001H48.1806L46.6369 528.917ZM76.3177 545.069H70.6699V526.206H75.9035V531.213H76.2424C76.7695 528.164 78.7651 525.829 82.5679 525.829C86.785 525.829 88.517 528.728 88.517 532.418V535.543H82.8692V533.585C82.8692 531.515 82.0408 530.611 79.744 530.611C77.2213 530.611 76.3177 531.778 76.3177 534.15V545.069ZM100.578 545.446C94.2898 545.446 89.9975 542.358 89.9975 535.656C89.9975 529.632 94.2522 525.829 100.465 525.829C106.64 525.829 110.744 529.067 110.744 534.979C110.744 535.656 110.669 536.146 110.593 536.786H95.2311C95.3817 539.685 96.7372 540.928 100.389 540.928C103.741 540.928 104.908 540.062 104.908 538.443V538.066H110.556V538.48C110.556 542.584 106.564 545.446 100.578 545.446ZM100.352 530.234C97.0008 530.234 95.57 531.364 95.3064 533.811H105.322C105.171 531.326 103.665 530.234 100.352 530.234ZM122.665 545.446C116.302 545.446 112.8 542.961 112.8 538.593V538.48H118.448V538.819C118.448 540.513 119.502 540.965 122.703 540.965C125.715 540.965 126.43 540.476 126.43 539.346C126.43 538.292 125.865 537.991 123.644 537.69L118.335 537.049C114.57 536.635 112.461 534.941 112.461 531.778C112.461 528.465 115.285 525.829 121.761 525.829C127.936 525.829 131.438 528.164 131.438 532.757V532.87H125.79V532.644C125.79 531.1 125.037 530.31 121.573 530.31C118.749 530.31 118.034 530.799 118.034 532.004C118.034 532.983 118.561 533.397 121.046 533.698L125.075 534.188C130.12 534.753 132.003 536.447 132.003 539.572C132.003 543.111 128.501 545.446 122.665 545.446ZM144.297 545.446C138.009 545.446 133.717 542.358 133.717 535.656C133.717 529.632 137.971 525.829 144.184 525.829C150.359 525.829 154.463 529.067 154.463 534.979C154.463 535.656 154.388 536.146 154.312 536.786H138.95C139.101 539.685 140.456 540.928 144.109 540.928C147.46 540.928 148.627 540.062 148.627 538.443V538.066H154.275V538.48C154.275 542.584 150.284 545.446 144.297 545.446ZM144.071 530.234C140.72 530.234 139.289 531.364 139.026 533.811H149.041C148.89 531.326 147.384 530.234 144.071 530.234ZM162.656 545.446C158.59 545.446 156.143 543.563 156.143 540.4C156.143 537.614 158.214 535.882 162.242 535.468L170.338 534.64V533.924C170.338 531.477 169.246 530.799 166.233 530.799C163.372 530.799 162.205 531.552 162.205 533.698V533.849H156.519V533.736C156.519 529.067 160.435 525.829 166.648 525.829C172.936 525.829 175.91 529.067 175.91 534V545.069H170.639V540.739H170.338C169.472 543.676 166.836 545.446 162.656 545.446ZM161.828 540.024C161.828 541.041 162.619 541.455 164.276 541.455C168.116 541.455 170.187 540.551 170.338 537.878L163.786 538.631C162.431 538.744 161.828 539.12 161.828 540.024ZM184.421 545.069H178.773V526.206H184.006V531.213H184.345C184.872 528.164 186.868 525.829 190.671 525.829C194.888 525.829 196.62 528.728 196.62 532.418V535.543H190.972V533.585C190.972 531.515 190.144 530.611 187.847 530.611C185.324 530.611 184.421 531.778 184.421 534.15V545.069ZM208.718 545.446C202.242 545.446 198.1 541.605 198.1 535.656C198.1 529.632 202.242 525.829 208.718 525.829C214.78 525.829 218.922 529.067 218.922 533.962V534.489H213.312V534.188C213.312 531.778 211.542 530.912 208.605 530.912C205.254 530.912 203.711 532.155 203.711 535.656C203.711 539.12 205.254 540.363 208.605 540.363C211.542 540.363 213.312 539.497 213.312 537.087V536.786H218.922V537.313C218.922 542.17 214.78 545.446 208.718 545.446ZM227 545.069H221.352V519.842H227V531.966H227.301C227.904 528.766 230.125 525.829 234.945 525.829C240.028 525.829 242.513 529.142 242.513 533.51V545.069H236.865V535.204C236.865 532.042 235.509 530.912 231.97 530.912C228.167 530.912 227 532.456 227 535.619V545.069ZM45.0932 591.446C38.617 591.446 34.4752 587.605 34.4752 581.656C34.4752 575.632 38.617 571.829 45.0932 571.829C51.1552 571.829 55.2969 575.067 55.2969 579.962V580.489H49.6867V580.188C49.6867 577.778 47.9171 576.912 44.9802 576.912C41.6292 576.912 40.0854 578.155 40.0854 581.656C40.0854 585.12 41.6292 586.363 44.9802 586.363C47.9171 586.363 49.6867 585.497 49.6867 583.087V582.786H55.2969V583.313C55.2969 588.17 51.1552 591.446 45.0932 591.446ZM67.7801 591.446C61.3415 591.446 57.0115 587.605 57.0115 581.656C57.0115 575.632 61.3415 571.829 67.7801 571.829C74.2186 571.829 78.5486 575.632 78.5486 581.656C78.5486 587.605 74.2186 591.446 67.7801 591.446ZM67.7801 586.438C71.5829 586.438 72.9384 584.97 72.9384 581.656C72.9384 578.343 71.5829 576.799 67.7801 576.799C63.9395 576.799 62.6217 578.343 62.6217 581.656C62.6217 584.97 63.9395 586.438 67.7801 586.438ZM86.5029 591.069H80.8551V572.206H86.0887V577.929H86.3899C86.8418 574.766 88.7244 571.829 93.4685 571.829C97.8362 571.829 100.058 574.502 100.472 578.004H100.811C101.263 574.804 103.183 571.829 108.04 571.829C112.897 571.829 115.269 575.03 115.269 579.322V591.069H109.621V581.204C109.621 578.079 108.529 576.912 105.291 576.912C101.865 576.912 100.886 578.268 100.886 581.543V591.069H95.2382V581.204C95.2382 578.079 94.1463 576.912 90.9082 576.912C87.4819 576.912 86.5029 578.268 86.5029 581.543V591.069ZM123.787 597.47H118.14V572.206H123.373V577.364H123.75C124.427 573.749 126.837 571.829 131.28 571.829C137.079 571.829 140.317 575.67 140.317 581.656C140.317 587.643 137.154 591.446 131.468 591.446C127.101 591.446 124.691 589.3 124.051 585.986H123.787V597.47ZM123.787 581.92C123.787 585.158 125.745 586.288 129.285 586.288C132.899 586.288 134.594 585.083 134.594 581.656C134.594 578.192 132.899 577.025 129.322 577.025C125.67 577.025 123.787 578.268 123.787 581.619V581.92ZM148.463 591.446C144.397 591.446 141.95 589.563 141.95 586.4C141.95 583.614 144.02 581.882 148.049 581.468L156.144 580.64V579.924C156.144 577.477 155.052 576.799 152.04 576.799C149.179 576.799 148.012 577.552 148.012 579.698V579.849H142.326V579.736C142.326 575.067 146.242 571.829 152.454 571.829C158.742 571.829 161.717 575.067 161.717 580V591.069H156.446V586.739H156.144C155.278 589.676 152.643 591.446 148.463 591.446ZM147.635 586.024C147.635 587.041 148.426 587.455 150.082 587.455C153.923 587.455 155.994 586.551 156.144 583.878L149.593 584.631C148.237 584.744 147.635 585.12 147.635 586.024ZM170.227 591.069H164.58V572.206H169.813V578.004H170.152C170.642 574.841 172.901 571.829 177.833 571.829C182.992 571.829 185.439 575.142 185.439 579.322V591.069H179.791V581.204C179.791 578.192 178.549 576.912 175.085 576.912C171.508 576.912 170.227 578.343 170.227 581.543V591.069ZM191.911 597.47H188.823V592.35H193.454C194.848 592.35 195.45 591.973 195.827 591.145L186.602 572.206H193.003L196.994 580.828L198.575 585.271H198.952L200.458 580.79L204.035 572.206H210.323L200.985 592.425C199.178 596.378 196.655 597.47 191.911 597.47ZM224.645 591.069H218.997V576.874H216.324V572.206H219.11C219.713 568.403 223.026 565.842 228.825 565.842H230.481V569.946H227.921C225.436 569.946 224.269 570.361 224.419 572.206H230.481V576.874H224.645V591.069ZM238.012 570.285H232.364V565.842H238.012V570.285ZM238.012 591.069H232.364V572.206H238.012V591.069ZM246.635 591.069H240.987V572.206H246.221V577.213H246.56C247.087 574.164 249.082 571.829 252.885 571.829C257.102 571.829 258.834 574.728 258.834 578.418V581.543H253.186V579.585C253.186 577.515 252.358 576.611 250.061 576.611C247.539 576.611 246.635 577.778 246.635 580.15V591.069ZM270.406 591.446C264.042 591.446 260.541 588.961 260.541 584.593V584.48H266.188V584.819C266.188 586.513 267.243 586.965 270.443 586.965C273.455 586.965 274.171 586.476 274.171 585.346C274.171 584.292 273.606 583.991 271.384 583.69L266.076 583.049C262.31 582.635 260.202 580.941 260.202 577.778C260.202 574.465 263.026 571.829 269.502 571.829C275.677 571.829 279.178 574.164 279.178 578.757V578.87H273.531V578.644C273.531 577.1 272.778 576.31 269.314 576.31C266.49 576.31 265.774 576.799 265.774 578.004C265.774 578.983 266.301 579.397 268.786 579.698L272.815 580.188C277.861 580.753 279.743 582.447 279.743 585.572C279.743 589.111 276.242 591.446 270.406 591.446ZM295.313 591.069H290.644C286.239 591.069 283.566 588.998 283.566 584.254V576.874H280.591V572.206H283.566V568.553H289.214V572.206H295.313V576.874H289.214V583.614C289.214 585.497 289.929 585.986 291.925 585.986H295.313V591.069Z" fill="white"/>
<path d="M377.68 587.784H375.562V580.95H373.133V579.496H373.528C374.573 579.496 375.279 579.256 375.745 578.324H377.68V587.784ZM383.328 587.925C380.279 587.925 378.598 586.005 378.598 583.054C378.598 580.117 380.279 578.183 383.328 578.183C386.364 578.183 388.058 580.117 388.058 583.054C388.058 586.005 386.364 587.925 383.328 587.925ZM383.328 585.864C385.122 585.864 385.785 585.087 385.785 583.054C385.785 581.021 385.122 580.244 383.328 580.244C381.521 580.244 380.872 581.021 380.872 583.054C380.872 585.087 381.521 585.864 383.328 585.864ZM390.37 588.067H388.111L393.194 578.042H395.454L390.37 588.067ZM399.444 587.784H397.001C397.001 583.534 399.43 581.656 401.209 580.386V580.23H395.236V578.324H403.411V580.033C400.785 582.518 399.444 584.226 399.444 587.784ZM405.414 588.067H403.155L408.238 578.042H410.497L405.414 588.067ZM418.864 587.784H410.463V586.429C410.463 584.763 411.183 583.901 413.174 583.238L415.603 582.447C416.45 582.15 416.761 581.868 416.761 581.247C416.761 580.527 416.365 580.117 414.812 580.117C413.075 580.117 412.553 580.64 412.553 581.685V581.868H410.477V581.685C410.477 579.849 411.734 578.183 414.883 578.183C417.735 578.183 418.893 579.482 418.893 581.275C418.893 582.955 417.791 583.788 416.111 584.254L414.05 584.819C413.132 585.101 412.694 585.37 412.694 586.118L415.165 585.878H418.864V587.784ZM424.308 587.925C421.258 587.925 419.578 586.005 419.578 583.054C419.578 580.117 421.258 578.183 424.308 578.183C427.344 578.183 429.038 580.117 429.038 583.054C429.038 586.005 427.344 587.925 424.308 587.925ZM424.308 585.864C426.101 585.864 426.765 585.087 426.765 583.054C426.765 581.021 426.101 580.244 424.308 580.244C422.501 580.244 421.851 581.021 421.851 583.054C421.851 585.087 422.501 585.864 424.308 585.864ZM438.099 587.784H429.698V586.429C429.698 584.763 430.418 583.901 432.409 583.238L434.838 582.447C435.685 582.15 435.996 581.868 435.996 581.247C435.996 580.527 435.6 580.117 434.047 580.117C432.31 580.117 431.788 580.64 431.788 581.685V581.868H429.712V581.685C429.712 579.849 430.969 578.183 434.118 578.183C436.97 578.183 438.128 579.482 438.128 581.275C438.128 582.955 437.026 583.788 435.346 584.254L433.285 584.819C432.367 585.101 431.929 585.37 431.929 586.118L434.4 585.878H438.099V587.784ZM446.791 587.784H444.673V585.977H438.672V584.537L444.334 578.324H446.791V584.071H448.231V585.977H446.791V587.784ZM441.623 584.071H444.673V580.767H444.518L441.623 583.915V584.071Z" fill="white"/>
<path d="M463.659 481.8C499.329 492.665 537.053 472.558 547.918 436.888C558.783 401.218 538.675 363.494 503.006 352.629C467.336 341.764 429.612 361.872 418.747 397.542C407.882 433.211 427.99 470.935 463.659 481.8Z" stroke="black" stroke-width="14.4573" stroke-miterlimit="10"/>
<path d="M572.754 492.791C613.994 492.885 647.525 449.53 647.648 395.954C647.77 342.378 614.438 298.87 573.198 298.775C531.958 298.681 498.427 342.036 498.305 395.612C498.182 449.188 531.514 492.697 572.754 492.791Z" stroke="black" stroke-width="14.4573" stroke-miterlimit="10"/>
<path d="M617.578 357.604C658.818 357.698 692.349 314.343 692.471 260.767C692.594 207.191 659.262 163.682 618.022 163.588C576.782 163.493 543.251 206.849 543.128 260.425C543.006 314.001 576.338 357.509 617.578 357.604Z" stroke="black" stroke-width="14.4573" stroke-miterlimit="10"/>
<path d="M37.558 402.993L34.3811 402.993L34.3811 388.803L38.6805 388.803L42.0057 395.792L43.34 399.117L43.5729 399.117L44.8649 395.792L48.0841 388.803L52.4047 388.803L52.4047 402.993L49.2278 402.993L49.2278 395.792L49.3337 393.568L49.1008 393.568L48.2748 395.792L45.3097 402.146L41.455 402.146L38.4899 395.792L37.6639 393.568L37.4309 393.568L37.558 395.792L37.558 402.993ZM56.1045 406.594L54.3678 406.594L54.3678 403.713L56.9729 403.713C57.7565 403.713 58.0954 403.501 58.3072 403.036L53.1182 392.382L56.7187 392.382L58.9637 397.232L59.8532 399.732L60.065 399.732L60.9122 397.211L62.9243 392.382L66.4612 392.382L61.2087 403.756C60.1921 405.979 58.7731 406.594 56.1045 406.594ZM73.6705 406.594L70.4936 406.594L70.4936 392.382L73.4375 392.382L73.4375 395.284L73.6493 395.284C74.0305 393.251 75.386 392.171 77.8851 392.171C81.1468 392.171 82.9682 394.331 82.9682 397.698C82.9682 401.066 81.1891 403.205 77.991 403.205C75.5342 403.205 74.1788 401.998 73.8187 400.134L73.6705 400.134L73.6705 406.594ZM73.6705 397.847C73.6705 399.668 74.7718 400.303 76.7626 400.303C78.7959 400.303 79.7489 399.626 79.7489 397.698C79.7489 395.75 78.7959 395.093 76.7838 395.093C74.7294 395.093 73.6705 395.792 73.6705 397.677L73.6705 397.847ZM88.6732 403.205C85.6869 403.205 84.2679 401.362 84.2679 398.99L84.2679 392.382L87.4448 392.382L87.4448 397.931C87.4448 399.647 88.1649 400.367 90.1769 400.367C92.2525 400.367 92.9938 399.562 92.9938 397.762L92.9938 392.382L96.1707 392.382L96.1707 402.993L93.2056 402.993L93.2056 399.753L93.0362 399.753C92.7608 401.532 91.4689 403.205 88.6732 403.205ZM100.972 402.993L97.7951 402.993L97.7951 392.382L100.739 392.382L100.739 395.199L100.93 395.199C101.226 393.484 102.349 392.171 104.488 392.171C106.86 392.171 107.834 393.801 107.834 395.877L107.834 397.635L104.657 397.635L104.657 396.533C104.657 395.369 104.191 394.86 102.899 394.86C101.48 394.86 100.972 395.517 100.972 396.851L100.972 402.993ZM114.343 403.205C110.764 403.205 108.794 401.807 108.794 399.35L108.794 399.287L111.971 399.287L111.971 399.477C111.971 400.43 112.564 400.685 114.364 400.685C116.058 400.685 116.461 400.409 116.461 399.774C116.461 399.181 116.143 399.011 114.894 398.842L111.907 398.482C109.789 398.249 108.603 397.296 108.603 395.517C108.603 393.653 110.192 392.171 113.835 392.171C117.308 392.171 119.278 393.484 119.278 396.068L119.278 396.131L116.101 396.131L116.101 396.004C116.101 395.136 115.677 394.691 113.729 394.691C112.14 394.691 111.738 394.966 111.738 395.644C111.738 396.195 112.034 396.428 113.432 396.597L115.698 396.872C118.536 397.19 119.595 398.143 119.595 399.901C119.595 401.892 117.626 403.205 114.343 403.205ZM126.511 403.205C122.974 403.205 120.56 401.468 120.56 397.698C120.56 394.31 122.953 392.171 126.447 392.171C129.921 392.171 132.229 393.992 132.229 397.317C132.229 397.698 132.187 397.974 132.145 398.334L123.503 398.334C123.588 399.965 124.351 400.663 126.405 400.663C128.29 400.663 128.947 400.176 128.947 399.266L128.947 399.054L132.123 399.054L132.123 399.287C132.123 401.595 129.878 403.205 126.511 403.205ZM126.384 394.648C124.499 394.648 123.694 395.284 123.546 396.661L129.18 396.661C129.095 395.263 128.248 394.648 126.384 394.648ZM140.021 402.993L136.844 402.993L136.844 388.803L140.021 388.803L140.021 394.437L147.434 394.437L147.434 388.803L150.611 388.803L150.611 402.993L147.434 402.993L147.434 397.296L140.021 397.296L140.021 402.993ZM165.319 405.979L161.189 405.979L158.987 403.184C154.645 402.93 151.998 400.113 151.998 395.898C151.998 391.472 154.92 388.591 159.622 388.591C164.43 388.591 167.331 391.472 167.331 395.898C167.331 399.35 165.574 401.871 162.503 402.803L165.319 405.979ZM159.622 400.155C162.736 400.155 163.943 399.054 163.943 395.898C163.943 392.742 162.736 391.641 159.622 391.641C156.509 391.641 155.365 392.742 155.365 395.898C155.365 399.054 156.509 400.155 159.622 400.155Z" fill="black"/>
<path d="M479.806 587.784L477.688 587.784L477.688 580.71L479.651 580.71L479.651 582.856L479.764 582.856C479.933 581.67 480.639 580.569 482.418 580.569C484.056 580.569 484.889 581.572 485.045 582.885L485.172 582.885C485.341 581.685 486.061 580.569 487.883 580.569C489.704 580.569 490.594 581.769 490.594 583.379L490.594 587.784L488.476 587.784L488.476 584.085C488.476 582.913 488.066 582.475 486.852 582.475C485.567 582.475 485.2 582.984 485.2 584.212L485.2 587.784L483.082 587.784L483.082 584.085C483.082 582.913 482.673 582.475 481.458 582.475C480.173 582.475 479.806 582.984 479.806 584.212L479.806 587.784ZM493.026 590.185L491.868 590.185L491.868 588.264L493.604 588.264C494.127 588.264 494.353 588.123 494.494 587.812L491.035 580.71L493.435 580.71L494.932 583.944L495.525 585.61L495.666 585.61L496.231 583.93L497.572 580.71L499.93 580.71L496.428 588.292C495.751 589.775 494.805 590.185 493.026 590.185ZM502.558 590.185L500.44 590.185L500.44 580.71L502.402 580.71L502.402 582.645L502.543 582.645C502.798 581.289 503.701 580.569 505.367 580.569C507.542 580.569 508.756 582.009 508.756 584.254C508.756 586.499 507.57 587.925 505.438 587.925C503.8 587.925 502.896 587.121 502.656 585.878L502.558 585.878L502.558 590.185ZM502.558 584.353C502.558 585.567 503.292 585.991 504.619 585.991C505.975 585.991 506.61 585.539 506.61 584.254C506.61 582.955 505.975 582.518 504.633 582.518C503.264 582.518 502.558 582.984 502.558 584.24L502.558 584.353ZM512.559 587.925C510.569 587.925 509.623 586.697 509.623 585.116L509.623 580.71L511.74 580.71L511.74 584.41C511.74 585.553 512.221 586.033 513.562 586.033C514.946 586.033 515.44 585.497 515.44 584.297L515.44 580.71L517.558 580.71L517.558 587.784L515.581 587.784L515.581 585.624L515.468 585.624C515.285 586.81 514.423 587.925 512.559 587.925ZM520.759 587.784L518.641 587.784L518.641 580.71L520.603 580.71L520.603 582.588L520.73 582.588C520.928 581.444 521.676 580.569 523.102 580.569C524.684 580.569 525.333 581.656 525.333 583.04L525.333 584.212L523.215 584.212L523.215 583.478C523.215 582.701 522.905 582.362 522.043 582.362C521.097 582.362 520.759 582.8 520.759 583.69L520.759 587.784ZM529.673 587.925C527.286 587.925 525.973 586.993 525.973 585.356L525.973 585.313L528.091 585.313L528.091 585.44C528.091 586.076 528.487 586.245 529.687 586.245C530.816 586.245 531.085 586.062 531.085 585.638C531.085 585.243 530.873 585.13 530.04 585.017L528.049 584.777C526.637 584.621 525.846 583.986 525.846 582.8C525.846 581.557 526.905 580.569 529.334 580.569C531.649 580.569 532.962 581.444 532.962 583.167L532.962 583.209L530.844 583.209L530.844 583.125C530.844 582.546 530.562 582.249 529.263 582.249C528.204 582.249 527.936 582.433 527.936 582.885C527.936 583.252 528.134 583.407 529.065 583.52L530.576 583.704C532.468 583.915 533.174 584.551 533.174 585.723C533.174 587.05 531.861 587.925 529.673 587.925ZM537.785 587.925C535.427 587.925 533.817 586.768 533.817 584.254C533.817 581.995 535.412 580.569 537.742 580.569C540.058 580.569 541.597 581.783 541.597 584C541.597 584.254 541.569 584.438 541.54 584.678L535.78 584.678C535.836 585.765 536.344 586.231 537.714 586.231C538.971 586.231 539.408 585.906 539.408 585.299L539.408 585.158L541.526 585.158L541.526 585.313C541.526 586.852 540.03 587.925 537.785 587.925ZM537.7 582.221C536.443 582.221 535.907 582.645 535.808 583.562L539.564 583.562C539.507 582.631 538.942 582.221 537.7 582.221ZM544.613 590.185L542.495 590.185L542.495 580.71L544.458 580.71L544.458 582.645L544.599 582.645C544.853 581.289 545.757 580.569 547.423 580.569C549.597 580.569 550.811 582.009 550.811 584.254C550.811 586.499 549.625 587.925 547.493 587.925C545.855 587.925 544.952 587.121 544.712 585.878L544.613 585.878L544.613 590.185ZM544.613 584.353C544.613 585.567 545.347 585.991 546.674 585.991C548.03 585.991 548.665 585.539 548.665 584.254C548.665 582.955 548.03 582.518 546.689 582.518C545.319 582.518 544.613 582.984 544.613 584.24L544.613 584.353ZM553.866 587.925C552.342 587.925 551.424 587.219 551.424 586.033C551.424 584.989 552.2 584.339 553.711 584.184L556.747 583.873L556.747 583.605C556.747 582.687 556.337 582.433 555.208 582.433C554.135 582.433 553.697 582.715 553.697 583.52L553.697 583.577L551.565 583.577L551.565 583.534C551.565 581.783 553.033 580.569 555.363 580.569C557.721 580.569 558.837 581.783 558.837 583.633L558.837 587.784L556.86 587.784L556.86 586.16L556.747 586.16C556.422 587.262 555.434 587.925 553.866 587.925ZM553.556 585.892C553.556 586.273 553.852 586.429 554.474 586.429C555.914 586.429 556.69 586.09 556.747 585.087L554.29 585.37C553.782 585.412 553.556 585.553 553.556 585.892ZM561.266 590.185L560.108 590.185L560.108 588.264L561.844 588.264C562.367 588.264 562.593 588.123 562.734 587.812L559.275 580.71L561.675 580.71L563.172 583.944L563.765 585.61L563.906 585.61L564.471 583.93L565.812 580.71L568.17 580.71L564.668 588.292C563.991 589.775 563.045 590.185 561.266 590.185ZM571.264 587.784L568.538 587.784L568.538 585.313L571.264 585.313L571.264 587.784ZM576.021 587.925C573.592 587.925 572.039 586.485 572.039 584.254C572.039 581.995 573.592 580.569 576.021 580.569C578.294 580.569 579.847 581.783 579.847 583.619L579.847 583.817L577.743 583.817L577.743 583.704C577.743 582.8 577.08 582.475 575.978 582.475C574.722 582.475 574.143 582.941 574.143 584.254C574.143 585.553 574.722 586.019 575.978 586.019C577.08 586.019 577.743 585.694 577.743 584.791L577.743 584.678L579.847 584.678L579.847 584.876C579.847 586.697 578.294 587.925 576.021 587.925ZM584.528 587.925C582.114 587.925 580.49 586.485 580.49 584.254C580.49 581.995 582.114 580.569 584.528 580.569C586.943 580.569 588.567 581.995 588.567 584.254C588.567 586.485 586.943 587.925 584.528 587.925ZM584.528 586.047C585.954 586.047 586.463 585.497 586.463 584.254C586.463 583.012 585.954 582.433 584.528 582.433C583.088 582.433 582.594 583.012 582.594 584.254C582.594 585.497 583.088 586.047 584.528 586.047ZM591.549 587.784L589.432 587.784L589.432 580.71L591.394 580.71L591.394 582.856L591.507 582.856C591.677 581.67 592.383 580.569 594.162 580.569C595.799 580.569 596.632 581.572 596.788 582.885L596.915 582.885C597.084 581.685 597.804 580.569 599.626 580.569C601.447 580.569 602.337 581.769 602.337 583.379L602.337 587.784L600.219 587.784L600.219 584.085C600.219 582.913 599.809 582.475 598.595 582.475C597.31 582.475 596.943 582.984 596.943 584.212L596.943 587.784L594.825 587.784L594.825 584.085C594.825 582.913 594.416 582.475 593.201 582.475C591.917 582.475 591.549 582.984 591.549 584.212L591.549 587.784Z" fill="white"/>
</g>
<defs>
<clipPath id="clip0_701_679">
<rect width="635.38" height="635.38" fill="white"/>
</clipPath>
</defs>
</svg>
